<svg width="421" height="310" viewBox="0 0 421 310" fill="none" xmlns="http://www.w3.org/2000/svg">
<path d="M290.536 197.117V80.6909L407.541 80.6909V197.117L290.536 197.117Z" fill="#0052CC" stroke="black"/>
<path opacity="0.7" d="M408.027 80.2026H290.022V197.629H408.027V80.2026Z" fill="white"/>
<path opacity="0.7" d="M401.612 86.5908V191.229H296.441V86.5908H401.612Z" fill="white" stroke="black"/>
<path d="M338.562 157.602C337.861 158.361 337.332 158.9 336.705 159.512C336.078 160.124 335.475 160.675 334.86 161.225C333.63 162.352 332.399 163.429 331.046 164.481C328.416 166.594 325.637 168.516 322.731 170.235C319.75 172.021 316.602 173.517 313.333 174.702C309.883 175.989 306.259 176.757 302.582 176.979H301.105C300.334 176.983 299.564 176.913 298.805 176.771C297.332 176.474 295.93 175.901 294.672 175.082C292.735 173.736 291.122 171.981 289.948 169.941C288.207 166.786 286.962 163.385 286.258 159.854C284.925 153.477 284.384 146.961 284.647 140.453L290.908 140.061C292.01 145.877 293.539 151.605 295.484 157.198C296.32 159.663 297.492 162.002 298.965 164.151C299.383 164.787 299.954 165.309 300.626 165.669C300.786 165.669 300.81 165.669 300.81 165.669L301.647 165.559C306.469 164.91 311.488 162.584 316.174 159.585C318.558 158.05 320.854 156.382 323.051 154.591C324.17 153.697 325.265 152.779 326.323 151.812L327.897 150.38L329.337 149.009L338.562 157.602Z" fill="#EBC0BB"/>
<path d="M310.103 161.091L316.88 176.024C316.88 176.024 317.594 175.792 318.799 175.351L322.158 174.066C329.661 171.091 341.753 164.775 344.509 159.952C348.63 152.742 341.655 147.503 329.046 150.245C323.597 151.469 318.726 155.68 315.035 157.945C313.805 158.691 312.772 159.352 311.96 159.879C310.791 160.625 310.103 161.091 310.103 161.091Z" fill="#263238"/>
<path opacity="0.3" d="M344.122 160.845C342.461 157.7 338.082 161.09 330.837 161.996C327.614 162.412 316.494 170.565 315.571 173.172L316.875 176.048C316.875 176.048 340.161 168.08 344.122 160.845Z" fill="black"/>
<path d="M291.066 142.644L292.764 133.206L283.624 134.602C283.624 134.602 283.452 143.696 286.244 144.321L291.066 142.644Z" fill="#EEC1BB"/>
<path d="M287.414 126.485L281.312 129.105L283.625 134.601L292.765 133.206L287.414 126.485Z" fill="#EEC1BB"/>
<path d="M379.069 152.975C378.786 153.844 378.528 154.713 378.257 155.594C374.839 167.316 372.455 179.313 371.135 191.447V191.753H323.48C325.153 164.052 332.669 149.902 332.669 149.902C332.669 149.902 334.416 149.523 337.356 149.168C339.656 148.898 342.547 148.629 345.475 148.58C351.807 148.699 358.128 149.173 364.406 150C367.703 150.404 371.037 151.065 373.694 151.653C376.892 152.338 379.069 152.975 379.069 152.975Z" fill="#263238"/>
<path opacity="0.3" d="M371.137 191.447C372.477 179.321 374.872 167.333 378.297 155.619C375.344 155.141 370.227 155.056 369.022 159.768C367.73 164.824 368.001 177.003 371.137 191.447Z" fill="black"/>
<path d="M381.299 158.459C382.074 159.879 382.726 161.14 383.366 162.486C384.005 163.833 384.596 165.167 385.223 166.513C386.453 169.219 387.511 171.961 388.495 174.764C390.568 180.476 391.996 186.4 392.751 192.427L392.825 193.015V193.443V194.092C392.842 194.687 392.792 195.282 392.678 195.867C392.678 196.05 392.616 196.197 392.567 196.393C392.518 196.589 392.432 196.822 392.358 197.03C392.284 197.238 392.21 197.421 392.099 197.642C391.989 197.862 391.841 198.107 391.706 198.34C391.401 198.786 391.046 199.196 390.648 199.564C390.243 199.939 389.792 200.264 389.307 200.531C388.89 200.757 388.454 200.945 388.003 201.094C387.635 201.196 387.261 201.278 386.884 201.338C385.924 201.462 384.951 201.42 384.005 201.216C382.923 200.98 381.87 200.623 380.869 200.151C380.02 199.759 379.282 199.355 378.568 198.927C375.953 197.358 373.446 195.616 371.065 193.712C366.51 190.094 362.195 186.185 358.148 182.01L362.122 177.114C366.895 180.04 371.717 183.026 376.465 185.768C378.73 187.117 381.066 188.343 383.464 189.44C383.974 189.669 384.495 189.869 385.026 190.04C385.319 190.163 385.631 190.234 385.949 190.248C385.949 190.248 385.826 190.15 385.199 190.248C384.993 190.27 384.791 190.315 384.596 190.383C384.306 190.468 384.025 190.582 383.759 190.726C383.431 190.905 383.129 191.127 382.861 191.387C382.585 191.645 382.337 191.932 382.123 192.244C381.685 192.896 381.445 193.662 381.434 194.447V194.569V194.459L381.336 193.994C380.811 191.463 380.15 188.963 379.356 186.503C378.544 183.993 377.621 181.484 376.649 178.975C375.678 176.465 374.595 173.993 373.488 171.52C372.381 169.047 371.175 166.538 370.068 164.273L381.299 158.459Z" fill="#EBC0BB"/>
<path d="M366.917 167.235C368.38 172.915 376.598 185.731 376.598 185.731L392.897 182.475C392.897 182.475 392.737 181.765 392.441 180.541C392.22 179.635 391.925 178.423 391.556 177.04C389.354 168.851 384.692 154.199 379.119 152.962C370.791 151.114 364.309 156.928 366.917 167.235Z" fill="#263238"/>
<path d="M365.602 128.811L360.214 132.618L352.833 137.796C352.971 138.728 353.049 139.669 353.067 140.611C353.153 144.357 351.935 147.674 346.326 148.555C346.326 148.555 339.474 152.375 349.106 153.88C349.062 154.931 349.144 155.983 349.352 157.014C350.293 155.901 351.426 154.964 352.698 154.247C363.314 154.859 365.085 150.073 365.085 150.073C361.321 145.716 363.732 134.785 365.602 128.811Z" fill="#EEC1BB"/>
<path opacity="0.2" d="M352.879 137.796C353.017 138.728 353.095 139.668 353.113 140.611C355.72 140.28 359.374 137.808 359.927 135.225C360.122 134.37 360.217 133.495 360.21 132.618L352.879 137.796Z" fill="black"/>
<path d="M350.556 106.386C346.312 107.929 343.175 119.264 348.194 122.128C353.213 124.992 358.601 103.473 350.556 106.386Z" fill="#263238"/>
<path d="M368.345 120.243C365.983 128.162 364.999 132.912 359.931 136.229C358.298 137.325 356.395 137.956 354.428 138.054C352.461 138.151 350.505 137.712 348.771 136.783C347.037 135.854 345.591 134.471 344.59 132.783C343.588 131.095 343.07 129.167 343.091 127.208C343.029 119.655 346.916 107.953 355.601 106.313C357.475 105.907 359.423 106 361.25 106.58C363.077 107.161 364.718 108.21 366.009 109.621C367.3 111.032 368.196 112.756 368.606 114.621C369.016 116.485 368.926 118.424 368.345 120.243Z" fill="#EEC1BB"/>
<path d="M364.863 114.807C362.562 119.03 363.633 126.02 365.896 127.378C368.356 129.827 373.695 125.787 375.073 123.29C376.303 121.062 377.361 115.688 376.487 113.204L364.863 114.807Z" fill="#263238"/>
<path d="M369.571 128.786C368.149 130.266 366.252 131.205 364.208 131.442C361.625 131.687 361.219 129.288 362.695 127.109C364.011 125.151 366.951 122.666 369.19 123.437C371.429 124.208 371.38 126.938 369.571 128.786Z" fill="#EEC1BB"/>
<path d="M355.513 120.083C355.353 120.732 354.886 121.197 354.443 121.111C354 121.026 353.791 120.426 353.939 119.777C354.086 119.128 354.566 118.663 354.996 118.749C355.427 118.835 355.698 119.422 355.513 120.083Z" fill="#263238"/>
<path d="M348.038 118.627C347.89 119.276 347.41 119.741 346.98 119.655C346.549 119.57 346.315 118.97 346.475 118.321C346.635 117.672 347.103 117.207 347.533 117.293C347.964 117.379 348.185 118.003 348.038 118.627Z" fill="#263238"/>
<path d="M350.335 119.41C349.076 121.257 347.574 122.928 345.87 124.38C346.253 124.792 346.723 125.116 347.246 125.327C347.769 125.539 348.332 125.633 348.896 125.604L350.335 119.41Z" fill="#D4827D"/>
<path d="M358.381 118.149H358.578C358.625 118.127 358.667 118.096 358.702 118.057C358.736 118.019 358.763 117.974 358.78 117.925C358.797 117.876 358.805 117.824 358.802 117.772C358.798 117.72 358.785 117.67 358.762 117.623C358.521 117.051 358.139 116.549 357.651 116.164C357.163 115.778 356.584 115.523 355.97 115.42C355.918 115.411 355.864 115.413 355.813 115.426C355.762 115.439 355.714 115.462 355.673 115.494C355.631 115.527 355.597 115.567 355.572 115.613C355.546 115.659 355.531 115.71 355.527 115.762C355.52 115.813 355.524 115.865 355.537 115.914C355.551 115.964 355.575 116.01 355.607 116.05C355.639 116.09 355.679 116.123 355.725 116.147C355.77 116.172 355.82 116.186 355.871 116.191C356.35 116.29 356.797 116.502 357.176 116.808C357.555 117.115 357.854 117.508 358.049 117.954C358.082 118.012 358.131 118.061 358.189 118.095C358.247 118.129 358.313 118.148 358.381 118.149Z" fill="#263238"/>
<path d="M345.411 115.456C345.476 115.462 345.542 115.451 345.602 115.426C345.662 115.4 345.715 115.36 345.756 115.309C346.057 114.905 346.448 114.577 346.898 114.35C347.349 114.122 347.846 114.002 348.351 113.999C348.408 114.013 348.468 114.014 348.525 114.002C348.583 113.991 348.637 113.967 348.684 113.932C348.732 113.898 348.771 113.854 348.8 113.803C348.828 113.752 348.845 113.695 348.85 113.637C348.854 113.579 348.846 113.52 348.826 113.466C348.805 113.411 348.773 113.361 348.732 113.32C348.69 113.279 348.64 113.247 348.585 113.227C348.53 113.207 348.471 113.199 348.413 113.203C347.777 113.202 347.149 113.346 346.58 113.627C346.01 113.907 345.513 114.315 345.128 114.819C345.056 114.893 345.015 114.992 345.015 115.095C345.015 115.198 345.056 115.297 345.128 115.37C345.209 115.432 345.31 115.462 345.411 115.456Z" fill="#263238"/>
<path d="M347.469 127.11C347.469 127.11 349.855 126.486 356.559 126.633C355.735 129.081 354.247 131.125 350.815 131.015C347.383 130.905 347.469 127.11 347.469 127.11Z" fill="#263238"/>
<path d="M352.437 129.08C351.084 128.963 349.737 129.366 348.673 130.207C349.261 130.73 350.024 131.018 350.813 131.014C352.144 131.114 353.463 130.707 354.504 129.876C353.932 129.374 353.199 129.092 352.437 129.08Z" fill="#A02724"/>
<path d="M347.765 127.049C347.949 127.588 348.134 128.126 348.798 128.273C350.79 128.318 352.782 128.154 354.739 127.784C355.083 127.741 355.408 127.604 355.677 127.388C355.947 127.172 356.15 126.885 356.265 126.56C353.422 126.445 350.575 126.609 347.765 127.049Z" fill="white"/>
<path d="M302.065 156.488C302.491 156.559 302.927 156.46 303.279 156.212C303.632 155.965 303.872 155.588 303.947 155.166L304.168 153.856L351.651 162.07L351.429 163.379C351.392 163.589 351.397 163.804 351.444 164.012C351.491 164.22 351.579 164.417 351.702 164.591C351.826 164.765 351.982 164.913 352.164 165.026C352.345 165.14 352.547 165.217 352.758 165.252C353.944 165.445 355.017 166.064 355.776 166.991C356.535 167.917 356.928 169.088 356.879 170.283C356.828 170.94 356.641 171.58 356.328 172.161C356.015 172.742 355.583 173.251 355.061 173.657C354.539 174.062 353.937 174.355 353.295 174.516C352.653 174.677 351.984 174.703 351.331 174.592H351.134C350.923 174.555 350.707 174.56 350.498 174.607C350.289 174.653 350.092 174.74 349.917 174.863C349.742 174.986 349.593 175.142 349.479 175.322C349.365 175.503 349.288 175.704 349.252 175.914L349.018 177.211L301.536 169.01L301.757 167.7C301.796 167.491 301.793 167.276 301.748 167.069C301.702 166.861 301.616 166.664 301.493 166.49C301.371 166.315 301.215 166.167 301.034 166.053C300.854 165.94 300.652 165.863 300.441 165.827H300.232C299.581 165.713 298.96 165.465 298.411 165.098C297.862 164.731 297.395 164.254 297.042 163.697C296.689 163.14 296.456 162.516 296.36 161.865C296.263 161.214 296.304 160.55 296.48 159.915C296.824 158.76 297.584 157.772 298.615 157.14C299.645 156.508 300.873 156.275 302.065 156.488Z" fill="#0052CC"/>
<path opacity="0.2" d="M299.877 159.621C299.669 159.732 299.487 159.884 299.341 160.068C299.195 160.252 299.089 160.464 299.028 160.69C298.968 160.917 298.955 161.153 298.99 161.385C299.025 161.617 299.107 161.839 299.232 162.038C299.357 162.237 299.521 162.408 299.715 162.541C299.909 162.674 300.128 162.766 300.359 162.811C300.59 162.857 300.828 162.855 301.059 162.805C301.289 162.755 301.506 162.659 301.697 162.522C302.053 162.268 302.298 161.889 302.382 161.462C302.467 161.035 302.385 160.592 302.154 160.222C301.922 159.853 301.558 159.586 301.135 159.474C300.712 159.362 300.262 159.415 299.877 159.621Z" fill="black"/>
<path opacity="0.2" d="M299.56 161.5L299.872 161.998L302.095 160.618L301.782 160.119L299.56 161.5Z" fill="black"/>
<path opacity="0.2" d="M351.641 171.507C352.042 171.669 352.489 171.676 352.894 171.525C353.299 171.374 353.632 171.077 353.827 170.693C354.022 170.31 354.065 169.867 353.947 169.453C353.83 169.039 353.56 168.684 353.191 168.459C352.988 168.335 352.762 168.255 352.526 168.222C352.29 168.19 352.05 168.206 351.821 168.271C351.592 168.335 351.379 168.447 351.195 168.597C351.012 168.748 350.861 168.935 350.754 169.146C350.646 169.357 350.584 169.589 350.571 169.825C350.558 170.061 350.594 170.298 350.677 170.52C350.761 170.742 350.889 170.944 351.055 171.114C351.221 171.284 351.421 171.418 351.641 171.507Z" fill="black"/>
<path opacity="0.2" d="M353.453 170.856L353.719 170.331L351.379 169.158L351.113 169.683L353.453 170.856Z" fill="black"/>
<g opacity="0.4">
<path d="M318.277 170.735C318.118 170.731 317.964 170.68 317.835 170.588C317.706 170.497 317.607 170.369 317.551 170.221C316.936 168.814 317.797 165.729 319.335 163.856C319.715 163.377 320.172 162.963 320.688 162.632C320.948 161.706 321.097 160.753 321.131 159.792C320.162 160.533 319.282 161.383 318.51 162.326C316.862 164.138 315.165 165.998 313.59 166.084C313.265 166.117 312.937 166.051 312.651 165.893C312.366 165.735 312.135 165.494 311.991 165.203C311.795 164.825 311.702 164.403 311.72 163.979C310.056 163.961 308.401 163.722 306.8 163.269L307.132 162.142C308.655 162.584 310.233 162.806 311.819 162.803C311.959 162.204 312.219 161.638 312.581 161.139C312.735 160.879 312.964 160.671 313.239 160.542C313.513 160.414 313.819 160.37 314.119 160.416L314.488 160.502C315.091 160.625 315.558 160.722 315.718 161.2C315.878 161.677 315.447 162.155 314.414 163.134C313.978 163.51 313.446 163.76 312.877 163.856C312.856 164.116 312.902 164.378 313.012 164.615C313.086 164.762 313.172 164.884 313.516 164.872C314.586 164.872 316.259 162.975 317.6 161.494C318.511 160.279 319.662 159.262 320.983 158.507C321.099 158.452 321.225 158.423 321.354 158.422C321.482 158.421 321.609 158.447 321.726 158.5C321.843 158.552 321.947 158.629 322.031 158.725C322.115 158.822 322.177 158.935 322.213 159.058C322.375 160.07 322.317 161.106 322.041 162.093C322.447 162.013 322.865 162.013 323.271 162.093C324.331 162.309 325.403 162.456 326.482 162.534C328.302 162.693 329.754 162.828 330.406 164.076C330.853 163.973 331.312 163.924 331.771 163.93C333.739 164.003 333.998 165.753 334.145 166.696C334.167 166.932 334.212 167.166 334.28 167.394C335.405 166.993 336.447 166.391 337.356 165.619L338.303 164.872V167.59H345.585V168.814H337.122V167.332C336.241 168.058 335.17 168.517 334.034 168.654C333.198 168.544 333.075 167.663 332.964 166.965C332.792 165.741 332.62 165.239 331.734 165.215C331.378 165.204 331.022 165.241 330.676 165.325C330.592 166.04 330.341 166.725 329.944 167.326C329.547 167.928 329.014 168.429 328.388 168.789C328.247 168.879 328.09 168.939 327.925 168.966C327.76 168.993 327.591 168.987 327.428 168.946C327.266 168.906 327.114 168.834 326.98 168.733C326.847 168.632 326.736 168.506 326.654 168.361C326.51 168.076 326.448 167.758 326.474 167.44C326.5 167.123 326.614 166.819 326.801 166.561C327.417 165.68 328.27 164.989 329.262 164.566C328.856 164.052 328.032 163.954 326.371 163.807C325.242 163.73 324.12 163.575 323.013 163.342C322.577 163.246 322.122 163.285 321.709 163.452C320.909 166.623 319.47 170.307 318.572 170.674C318.478 170.713 318.378 170.734 318.277 170.735ZM320.097 164.799C319.203 166.022 318.663 167.466 318.535 168.973C319.18 167.631 319.703 166.234 320.097 164.799ZM329.385 165.827C328.756 166.14 328.216 166.602 327.81 167.173C327.724 167.32 327.576 167.602 327.687 167.785C327.798 167.969 328.228 167.626 328.757 166.941C329.03 166.609 329.242 166.232 329.385 165.827ZM313.873 161.628C313.873 161.628 313.725 161.628 313.541 161.922C313.382 162.132 313.254 162.363 313.159 162.608C313.321 162.543 313.471 162.452 313.602 162.338L314.254 161.714L313.873 161.628Z" fill="white"/>
</g>
<path d="M363.434 178.202L359.744 170.637L354.467 179.671C354.467 179.671 358.932 185.791 361.847 183.233L363.434 178.202Z" fill="#EEC1BB"/>
<path d="M352.232 168.422L348.185 176.085L354.434 179.671L359.772 170.637L352.232 168.422Z" fill="#EEC1BB"/>
<path d="M351.611 100.474C351.611 100.474 352.841 96.3365 350.381 96.2753C344.968 96.1407 343.775 107.672 349.261 109.961C354.748 112.25 363.617 109.961 363.617 109.961C364.056 112.383 364.184 114.851 363.998 117.305C363.617 120.696 375.512 122.924 376.299 119.974C377.148 116.803 377.665 107.733 373.335 104.367C369.005 101 361.895 99.8252 361.895 99.8252C361.895 99.8252 367.467 96.0795 365.647 95.2838C361.55 93.4967 356.937 99.5804 356.937 99.5804C356.937 99.5804 361.169 94.9656 358.254 94.023C353.505 92.4685 351.611 100.474 351.611 100.474Z" fill="#263238"/>
<path d="M352.749 154.247L355.517 159.511C355.517 159.511 366.514 156.903 370.192 150.942L364.964 147.111C361.988 150.989 357.602 153.551 352.749 154.247Z" fill="#263238"/>
<path d="M349.151 153.881L342.459 157.014C342.459 157.014 341.352 152.118 343.087 148.556L349.151 145.973C348.155 148.516 348.155 151.338 349.151 153.881Z" fill="#263238"/>
<path opacity="0.2" d="M352.749 154.247L355.517 159.511C355.517 159.511 366.514 156.903 370.192 150.942L364.964 147.111C361.988 150.989 357.602 153.551 352.749 154.247Z" fill="white"/>
<path opacity="0.2" d="M349.151 153.881L342.459 157.014C342.459 157.014 341.352 152.118 343.087 148.556L349.151 145.973C348.155 148.516 348.155 151.338 349.151 153.881Z" fill="white"/>
<path opacity="0.2" d="M408.027 80.2031V99.9353C406.91 100.221 405.761 100.365 404.608 100.364C402.241 100.364 399.916 99.7385 397.872 98.5512C395.828 97.3639 394.137 95.6574 392.973 93.6065C391.81 91.5556 391.214 89.2338 391.248 86.8787C391.283 84.5236 391.945 82.2198 393.168 80.2031H408.027Z" fill="black"/>
<path d="M411.56 93.417C416.777 88.2256 416.777 79.8086 411.56 74.6172C406.343 69.4257 397.885 69.4257 392.668 74.6172C387.451 79.8086 387.451 88.2256 392.668 93.417C397.885 98.6085 406.343 98.6084 411.56 93.417Z" fill="#0052CC"/>
<path d="M405.139 84.0104L409.568 86.4586L408.055 89.0781L403.552 86.4586V91.4406H400.6V86.5443L396.147 89.1271L394.585 86.5076L399.05 84.0594L394.585 81.6113L396.147 78.955L400.6 81.5745V76.6782H403.552V81.6602L408.055 79.004L409.568 81.6602L405.139 84.0104Z" fill="white"/>
<path d="M258.157 169.565H140.152V286.991H258.157V169.565Z" fill="#0052CC"/>
<path opacity="0.7" d="M257.657 170.065V286.491H140.652V170.065H257.657Z" fill="white" stroke="#B9B9B9"/>
<path opacity="0.7" d="M251.727 280.602H146.568V175.964H251.727V280.602Z" fill="white" stroke="black"/>
<path d="M240.109 281.139H227.402C227.304 280.172 227.168 279.058 227.045 277.822C227.052 277.728 227.052 277.634 227.045 277.541C227.045 277.259 226.984 277.002 226.947 276.721C226.91 276.439 226.947 276.427 226.947 276.28C226.836 275.288 226.713 274.223 226.59 273.134C226.59 272.779 226.59 272.412 226.48 272.032C226.418 271.432 226.357 270.808 226.283 270.221C224.954 257.478 223.921 241.296 229.001 241.663C236.899 242.226 239.642 279.487 240.183 281.103L240.109 281.139Z" fill="#263238"/>
<path opacity="0.2" d="M236.361 281.139H227.43C227.319 280.16 227.184 279.058 227.049 277.822C227.056 277.728 227.056 277.634 227.049 277.541C227.049 277.259 226.987 277.002 226.95 276.72C226.913 276.439 226.95 276.427 226.95 276.28C226.815 274.946 226.643 273.513 226.483 272.032C226.421 271.432 226.36 270.808 226.286 270.221C228.943 262.631 231.625 256.621 231.625 256.621C234.116 264.593 235.705 272.817 236.361 281.139Z" fill="black"/>
<path d="M231.008 281.14H184.522C184.522 279.524 184.436 277.921 184.363 276.329C184.289 274.738 184.19 273.159 184.092 271.617C184.092 271.176 184.03 270.735 183.993 270.295C183.87 268.899 183.76 267.528 183.6 266.194C183.6 265.876 183.526 265.558 183.501 265.252C183.329 263.856 183.145 262.485 182.923 261.2C182.923 260.882 182.837 260.576 182.776 260.27C182.714 259.964 182.665 259.658 182.603 259.352L182.431 258.458C182.173 257.16 181.878 255.936 181.558 254.847C181.447 254.48 181.324 254.137 181.226 253.794C180.82 252.57 180.377 251.248 179.934 249.926C179.785 249.492 179.726 249.032 179.761 248.574C179.796 248.116 179.925 247.67 180.139 247.264C180.353 246.857 180.648 246.498 181.006 246.209C181.364 245.919 181.778 245.706 182.222 245.581C186.43 244.391 190.701 243.435 195.015 242.716C200.815 241.688 206.681 241.075 212.569 240.88C220.171 240.819 228.917 241.664 228.917 241.664C228.967 241.704 229.009 241.754 229.04 241.81L229.2 242.043C229.339 242.324 229.458 242.615 229.557 242.912C229.594 242.985 229.619 243.064 229.631 243.145L229.704 243.377C229.726 243.465 229.754 243.551 229.79 243.634C229.79 243.83 229.889 244.014 229.938 244.246L230.049 244.687C230.049 244.846 230.123 245.005 230.147 245.189C230.172 245.373 230.258 245.789 230.307 246.119C230.479 247.135 230.627 248.359 230.787 249.865C230.787 250.318 230.873 250.832 230.934 251.407C230.996 251.983 231.058 252.631 231.131 253.317C232.033 262.572 231.991 271.893 231.008 281.14Z" fill="#263238"/>
<path opacity="0.1" d="M231.008 281.14H184.535C184.461 277.921 184.313 274.701 184.092 271.617C184.092 271.176 184.03 270.735 183.993 270.295C183.87 268.899 183.76 267.528 183.6 266.194C183.6 265.876 183.526 265.558 183.501 265.252C183.329 263.856 183.145 262.485 182.923 261.2C182.923 260.882 182.837 260.576 182.776 260.27C182.714 259.964 182.665 259.658 182.603 259.352L182.431 258.458C182.173 257.16 181.878 255.936 181.558 254.847C181.447 254.48 181.324 254.137 181.226 253.794C180.82 252.57 180.377 251.248 179.934 249.926C179.785 249.492 179.726 249.032 179.761 248.574C179.796 248.116 179.925 247.67 180.139 247.264C180.353 246.857 180.648 246.498 181.006 246.209C181.364 245.919 181.778 245.706 182.222 245.581C186.43 244.391 190.701 243.435 195.015 242.716C200.815 241.688 206.681 241.075 212.569 240.88C220.171 240.819 228.917 241.664 228.917 241.664C229.22 242.019 229.439 242.437 229.557 242.888C229.594 242.961 229.619 243.039 229.631 243.12C229.8 243.626 229.939 244.141 230.049 244.663C230.049 244.822 230.123 244.981 230.147 245.164C230.369 246.315 230.602 247.833 230.799 249.84C230.873 250.746 230.996 251.897 231.131 253.292C232.034 262.555 231.993 271.885 231.008 281.14Z" fill="white"/>
<path opacity="0.2" d="M192.984 281.14H184.533C184.459 277.92 184.312 274.701 184.09 271.616C184.09 271.176 184.029 270.735 183.992 270.294C183.869 268.899 183.758 267.528 183.598 266.194C183.598 265.875 183.525 265.557 183.5 265.251C187.061 270.301 190.231 275.612 192.984 281.14Z" fill="black"/>
<path d="M204.436 238.811C204.436 238.811 194.029 237.979 191.446 243.316C188.863 248.653 193.845 256.572 193.845 256.572L201.361 250.978L216.86 256.572L220.833 251.211L223.86 252.839C223.86 252.839 223.995 236.449 204.436 238.811Z" fill="#0052CC"/>
<path opacity="0.2" d="M204.436 238.811C204.436 238.811 194.029 237.979 191.446 243.316C188.863 248.653 193.845 256.572 193.845 256.572L201.361 250.978L216.86 256.572L220.833 251.211L223.86 252.839C223.86 252.839 223.995 236.449 204.436 238.811Z" fill="white"/>
<path d="M196.8 244.087C196.8 244.087 200.724 249.669 215.51 254.639C215.51 254.639 222.103 246.303 212.09 242.496C212.09 242.496 209.999 241.847 209.556 238.554C209.339 236.224 209.642 233.875 210.442 231.675C210.557 231.324 210.68 230.957 210.811 230.573L198.633 222.996C198.633 222.996 202.913 238.297 196.8 244.087Z" fill="#E4897B"/>
<path opacity="0.2" d="M201.363 227.391C201.363 227.391 202.015 236.058 209.556 238.555C209.339 236.225 209.642 233.876 210.442 231.675C206.001 229.35 201.363 227.391 201.363 227.391Z" fill="black"/>
<path d="M168.494 239.852L167.461 253.966L159.97 254.259L162.491 238.812L168.494 239.852Z" fill="#E4897B"/>
<path d="M216.984 202.015C217.326 199.029 216.563 196.021 214.838 193.554C213.113 191.087 210.544 189.33 207.611 188.611C204.995 187.86 202.23 187.788 199.578 188.403C195.241 189.402 191.362 191.811 188.554 195.249C185.747 198.688 184.172 202.959 184.079 207.389C183.747 217.304 186.084 229.985 200.452 228.835C223.799 226.974 216.984 202.015 216.984 202.015Z" fill="#263238"/>
<path d="M204.558 198.392C214.621 197.449 218.36 202.505 220.058 212.75C222.198 225.542 220.181 234.967 207.351 233.388C189.945 231.246 187.878 199.946 204.558 198.392Z" fill="#E4897B"/>
<path d="M213.525 212.788C214.469 214.208 215.58 215.511 216.834 216.668C216.582 217.109 216.212 217.472 215.764 217.717C215.317 217.961 214.81 218.077 214.3 218.051L213.525 212.788Z" fill="#DE5753"/>
<path d="M207.293 212.59C207.391 213.423 207.022 214.133 206.481 214.194C205.939 214.255 205.398 213.643 205.251 212.823C205.103 212.003 205.521 211.293 206.075 211.232C206.628 211.17 207.194 211.721 207.293 212.59Z" fill="#263238"/>
<path d="M205.902 211.245L207.612 210.339C207.612 210.339 206.899 211.943 205.902 211.245Z" fill="#263238"/>
<path d="M217.514 211.183C217.612 212.003 217.243 212.713 216.702 212.787C216.161 212.86 215.632 212.236 215.533 211.416C215.435 210.596 215.804 209.874 216.345 209.812C216.887 209.751 217.428 210.363 217.514 211.183Z" fill="#263238"/>
<path d="M216.124 209.873L217.834 208.967C217.834 208.967 217.12 210.57 216.124 209.873Z" fill="#263238"/>
<path d="M202.321 207.989C202.239 207.993 202.157 207.972 202.088 207.928C201.993 207.863 201.927 207.764 201.904 207.652C201.882 207.541 201.903 207.424 201.965 207.328C202.513 206.647 203.213 206.103 204.01 205.737C204.806 205.372 205.677 205.196 206.553 205.222C206.61 205.224 206.665 205.237 206.717 205.26C206.768 205.283 206.815 205.316 206.854 205.356C206.893 205.397 206.923 205.446 206.943 205.498C206.963 205.551 206.973 205.607 206.971 205.663C206.97 205.719 206.957 205.775 206.934 205.826C206.911 205.877 206.878 205.924 206.836 205.962C206.795 206.001 206.747 206.031 206.694 206.051C206.641 206.071 206.585 206.081 206.528 206.079C205.797 206.059 205.071 206.204 204.404 206.503C203.738 206.802 203.147 207.247 202.678 207.805C202.638 207.862 202.585 207.909 202.523 207.941C202.46 207.973 202.391 207.989 202.321 207.989Z" fill="#263238"/>
<path d="M217.894 205.418C217.829 205.437 217.761 205.437 217.697 205.418C217.153 205.077 216.54 204.86 215.902 204.784C215.263 204.708 214.616 204.774 214.006 204.978C213.956 205.002 213.901 205.016 213.844 205.019C213.788 205.022 213.732 205.013 213.679 204.994C213.626 204.974 213.578 204.944 213.537 204.906C213.496 204.867 213.463 204.821 213.441 204.769C213.416 204.72 213.401 204.666 213.397 204.61C213.394 204.555 213.401 204.499 213.42 204.447C213.438 204.394 213.467 204.346 213.504 204.305C213.542 204.263 213.587 204.23 213.637 204.206C214.37 203.94 215.154 203.843 215.93 203.924C216.706 204.005 217.453 204.26 218.115 204.672C218.214 204.726 218.287 204.817 218.319 204.924C218.352 205.032 218.34 205.148 218.287 205.247C218.242 205.306 218.182 205.353 218.113 205.383C218.044 205.413 217.968 205.425 217.894 205.418Z" fill="#263238"/>
<path d="M195.174 216.264C195.174 216.264 199.098 207.597 197.794 201.318C197.794 201.318 216.959 191.366 219.825 211.404C219.825 211.404 220.096 193.349 202.776 194.561C185.456 195.773 187.891 220.927 197.523 227.611C197.523 227.611 192.75 221.686 195.174 216.264Z" fill="#263238"/>
<path d="M197.019 218.234C196.809 217.086 196.153 216.067 195.193 215.398C194.232 214.729 193.045 214.464 191.89 214.66C188.802 215.296 187.917 221.796 195.814 222.604C196.946 222.714 197.474 221.576 197.019 218.234Z" fill="#E4897B"/>
<path d="M215.853 221.907C215.403 223.022 215.033 224.167 214.746 225.334H214.119C211.24 225.089 209.985 224.024 209.469 222.886C209.228 222.344 209.122 221.752 209.161 221.16C209.173 220.823 209.231 220.49 209.333 220.168C211.04 221.101 212.927 221.661 214.869 221.809C215.472 221.894 215.853 221.907 215.853 221.907Z" fill="#263238"/>
<path d="M214.868 221.809L214.523 222.812C211.817 222.58 209.935 222.041 209.16 221.16C209.172 220.823 209.23 220.49 209.332 220.168C211.039 221.101 212.926 221.661 214.868 221.809Z" fill="white"/>
<path d="M214.12 225.285C211.241 225.04 209.986 223.975 209.47 222.836C210.561 222.941 211.625 223.244 212.607 223.73C213.261 224.079 213.79 224.622 214.12 225.285Z" fill="#DE5753"/>
<path d="M187.094 208.601C187.094 208.601 191.928 200.938 183.736 197.914C175.543 194.891 167.56 205.394 172.48 212.665C173.821 214.708 175.792 216.262 178.097 217.095C180.402 217.927 182.916 217.992 185.261 217.279L187.094 208.601Z" fill="#263238"/>
<path d="M162.931 242.312L159.499 231.381L169.451 229.973C169.451 229.973 172.932 237.318 168.331 242.116L162.931 242.312Z" fill="#E4897B"/>
<path d="M161.012 223.375L168.688 224.085L169.451 229.961L159.499 231.38L161.012 223.375Z" fill="#E4897B"/>
<path d="M182.206 245.531C176.683 245.298 167.359 269.254 167.359 269.254L168.589 246.926L159.978 247.575C159.978 247.575 152.597 283.318 155.365 286.868C158.797 291.312 167.666 293.148 184.064 271.175C184.064 271.175 187.692 262.056 187.151 254.822C186.61 247.587 182.206 245.531 182.206 245.531Z" fill="#263238"/>
<path d="M158.013 250.916L159.034 245.518L169.034 245.09L168.801 249.68L158.013 250.916Z" fill="#0052CC"/>
<path opacity="0.2" d="M158.013 250.916L159.034 245.518L169.034 245.09L168.801 249.68L158.013 250.916Z" fill="white"/>
<path d="M224.88 297.555C224.448 297.551 224.035 297.378 223.731 297.073C223.427 296.768 223.256 296.356 223.256 295.926V294.604H175.036V295.926C175.036 296.14 174.993 296.352 174.911 296.55C174.829 296.747 174.708 296.927 174.556 297.078C174.405 297.229 174.224 297.349 174.026 297.431C173.827 297.512 173.614 297.555 173.4 297.555C172.198 297.544 171.035 297.972 170.128 298.757C169.222 299.541 168.635 300.629 168.479 301.814C168.414 302.47 168.487 303.132 168.695 303.758C168.903 304.384 169.24 304.959 169.685 305.447C170.131 305.935 170.674 306.325 171.279 306.591C171.885 306.857 172.541 306.994 173.203 306.992H173.4C173.615 306.991 173.828 307.032 174.028 307.113C174.227 307.194 174.408 307.314 174.56 307.465C174.712 307.617 174.833 307.797 174.914 307.995C174.996 308.194 175.037 308.406 175.036 308.62V309.942H223.256V308.62C223.254 308.407 223.295 308.196 223.376 307.998C223.457 307.801 223.576 307.621 223.727 307.47C223.878 307.318 224.058 307.198 224.256 307.116C224.453 307.034 224.665 306.992 224.88 306.992H225.089C225.751 306.994 226.406 306.857 227.012 306.591C227.618 306.325 228.161 305.935 228.606 305.447C229.051 304.959 229.389 304.384 229.597 303.758C229.804 303.132 229.878 302.47 229.812 301.814C229.656 300.627 229.068 299.538 228.159 298.753C227.25 297.968 226.083 297.541 224.88 297.555Z" fill="#0052CC"/>
<path opacity="0.2" d="M226.504 300.994C226.754 301.222 226.931 301.518 227.012 301.846C227.093 302.173 227.076 302.517 226.962 302.835C226.848 303.152 226.642 303.429 226.37 303.631C226.099 303.832 225.773 303.95 225.435 303.968C225.097 303.987 224.76 303.906 224.468 303.735C224.176 303.564 223.941 303.311 223.792 303.008C223.644 302.705 223.588 302.365 223.633 302.031C223.678 301.696 223.821 301.383 224.044 301.129C224.195 300.957 224.379 300.817 224.586 300.717C224.792 300.617 225.017 300.559 225.246 300.546C225.475 300.533 225.704 300.567 225.921 300.644C226.137 300.721 226.335 300.84 226.504 300.994Z" fill="black"/>
<path opacity="0.2" d="M224.577 301.233L224.184 301.671L226.136 303.41L226.53 302.972L224.577 301.233Z" fill="black"/>
<path opacity="0.2" d="M173.462 303.908C173.136 304.008 172.788 304.009 172.461 303.911C172.134 303.813 171.844 303.621 171.627 303.359C171.41 303.097 171.277 302.777 171.243 302.439C171.209 302.102 171.277 301.761 171.438 301.462C171.599 301.163 171.845 300.918 172.146 300.758C172.447 300.598 172.789 300.531 173.128 300.565C173.468 300.599 173.789 300.732 174.053 300.948C174.316 301.164 174.508 301.453 174.606 301.778C174.737 302.211 174.69 302.679 174.475 303.078C174.261 303.477 173.897 303.775 173.462 303.908Z" fill="black"/>
<path opacity="0.2" d="M174.287 302.155L174.115 301.593L171.608 302.35L171.779 302.913L174.287 302.155Z" fill="black"/>
<g opacity="0.4">
<path d="M188.468 307.543C188.378 307.555 188.287 307.555 188.197 307.543C188.085 307.506 187.981 307.445 187.894 307.365C187.807 307.285 187.739 307.187 187.693 307.078C187.435 306.515 187.767 305.743 188.407 304.311C188.751 303.552 189.464 301.973 189.28 301.618C188.487 301.473 187.672 301.507 186.894 301.716C186.684 302.304 186.229 302.94 185.663 303.063C185.494 303.085 185.322 303.059 185.168 302.987C185.013 302.916 184.882 302.802 184.79 302.659C184.674 302.498 184.611 302.306 184.611 302.108C184.611 301.91 184.674 301.718 184.79 301.557C185.117 301.185 185.544 300.913 186.02 300.774C186.052 300.537 186.032 300.297 185.962 300.069C185.892 299.841 185.773 299.63 185.614 299.452C185.11 298.913 183.154 299.452 181.739 300.492C180.841 301.141 180.509 301.79 180.583 302.035C181.297 303.259 183.314 302.793 183.326 302.793L183.609 303.944C183.486 303.944 180.706 304.605 179.562 302.61C179.045 301.729 179.562 300.578 181.038 299.537C182.514 298.497 185.307 297.383 186.488 298.656C186.943 299.153 187.205 299.796 187.226 300.468C188.038 300.307 188.874 300.307 189.686 300.468C189.855 300.505 190.013 300.579 190.149 300.685C190.286 300.791 190.396 300.926 190.473 301.08C190.67 301.596 190.67 302.167 190.473 302.683L190.842 301.888C192.712 297.848 193.302 296.832 194.114 296.93C195.406 297.077 195.406 299.476 195.344 300.235C195.767 300.121 196.2 300.043 196.636 300.003C197.081 299.912 197.541 299.925 197.98 300.039C198.42 300.154 198.827 300.368 199.17 300.664C199.358 300.852 199.505 301.077 199.601 301.325C200.966 300.602 203.082 299.648 204.066 300.039C204.223 300.092 204.366 300.181 204.483 300.298C204.6 300.414 204.689 300.556 204.742 300.713C204.782 300.88 204.787 301.053 204.755 301.222C204.723 301.39 204.656 301.551 204.558 301.692C205.329 301.639 206.095 301.521 206.846 301.337C206.912 301.073 207.02 300.821 207.166 300.59C207.535 300.003 208.224 299.44 208.863 299.586C209.074 299.641 209.261 299.765 209.393 299.939C209.524 300.112 209.593 300.324 209.589 300.541C209.601 300.752 209.562 300.962 209.474 301.154C209.386 301.346 209.252 301.514 209.085 301.643C208.923 301.768 208.75 301.879 208.568 301.973C212.098 301.929 215.619 301.606 219.098 301.006L219.282 302.23C214.214 302.989 207.99 303.699 207.141 302.659L207.055 302.549C205.961 302.837 204.826 302.945 203.697 302.867C203.57 302.84 203.453 302.782 203.354 302.699C203.255 302.615 203.179 302.509 203.131 302.39C203.083 302.208 203.083 302.016 203.13 301.834C203.178 301.652 203.271 301.485 203.402 301.349L203.512 301.178C202.065 301.442 200.685 301.992 199.453 302.793L198.432 303.381L198.567 302.218C198.575 302.093 198.558 301.968 198.515 301.85C198.473 301.732 198.407 301.624 198.321 301.533C198.098 301.373 197.843 301.262 197.574 301.21C197.304 301.157 197.026 301.163 196.759 301.227C196.22 301.268 195.689 301.387 195.185 301.582C194.975 302.475 194.545 302.928 194.016 302.94C193.901 302.952 193.785 302.941 193.675 302.908C193.564 302.875 193.461 302.821 193.372 302.748C193.283 302.675 193.209 302.585 193.155 302.484C193.101 302.382 193.067 302.271 193.056 302.157C193.056 301.692 193.413 301.19 194.127 300.774C194.227 299.955 194.173 299.125 193.967 298.326C193.186 299.647 192.492 301.017 191.888 302.426C190.043 306.111 189.305 307.543 188.468 307.543Z" fill="white"/>
</g>
<path d="M255.132 0H137.127V117.426H255.132V0Z" fill="#0052CC"/>
<path opacity="0.7" d="M254.632 0.5V116.926H137.627V0.5H254.632Z" fill="white" stroke="#B9B9B9"/>
<path opacity="0.7" d="M248.701 111.038H143.543V6.40039L248.701 6.40039V111.038Z" fill="white" stroke="black"/>
<path d="M260.014 86.4449L264.934 79.3452L269.695 87.7057C269.695 87.7057 264.86 93.8261 261.822 91.1698L260.014 86.4449Z" fill="#E4897B"/>
<path d="M272.888 75.8931L274.524 84.4616L269.751 87.7054L264.99 79.345L272.888 75.8931Z" fill="#E4897B"/>
<path d="M252.523 95.5027L261.331 84.5962L266.461 89.0029L258.625 99.1015L252.523 95.5027Z" fill="#E4897B"/>
<path d="M221.854 73.9712C225.2 75.6115 240.232 102.639 241.536 102.639C243.307 102.639 257.748 89.0151 257.748 89.0151L263.825 96.5065C263.825 96.5065 245.509 118.173 238.792 116.496C232.642 114.941 215.494 92.6996 215.494 92.6996L221.854 73.9712Z" fill="#263238"/>
<path opacity="0.2" d="M263.85 96.5065C263.85 96.5065 245.509 118.173 238.792 116.496C236.197 115.835 231.572 111.404 227.119 106.532C221.153 100.007 215.494 92.6996 215.494 92.6996L218.938 82.5397L221.854 73.9712C225.187 75.6115 240.232 102.627 241.536 102.627C243.307 102.627 257.736 89.0151 257.736 89.0151L263.85 96.5065Z" fill="white"/>
<path opacity="0.2" d="M227.119 106.532C221.153 100.008 215.494 92.7004 215.494 92.7004L218.938 82.5405C219.334 82.8453 219.693 83.1945 220.009 83.581C224.253 88.6609 227.229 97.5355 227.119 106.532Z" fill="black"/>
<path d="M219.982 110.082C219.982 110.571 219.92 111.049 219.895 111.538H170.101C171.774 97.4371 172.475 82.5033 172.475 82.5033H173.446C174.541 82.5033 176.522 82.3686 179.056 82.3074C181.196 82.3074 183.755 82.2095 186.535 82.1973C195.798 82.1973 207.447 82.6012 214.508 84.5108C216.122 84.8812 217.661 85.5229 219.059 86.4081C219.504 86.6644 219.885 87.0179 220.172 87.442C220.46 87.8661 220.647 88.3497 220.72 88.8563C220.916 91.6349 220.547 99.9709 219.982 110.082Z" fill="#263238"/>
<path d="M219.987 110.082C219.901 110.56 219.815 111.037 219.729 111.539H170.524C171.336 106.435 172.087 100.877 172.653 95.0628C173.046 90.9744 173.341 86.7636 173.501 82.4548C173.686 77.2525 173.674 71.9522 173.378 66.6397C173.378 66.6397 177.204 66.3949 181.989 66.4806C182.998 66.4806 184.043 66.4806 185.101 66.5785C186.159 66.6765 186.959 66.6764 187.906 66.7376L188.792 66.8111C195.256 67.3179 201.684 68.2049 208.043 69.4674C208.818 69.6387 209.58 69.8346 210.331 70.0304C213.861 70.9965 217.328 72.1779 220.713 73.568C220.873 74.2902 223.677 87.241 219.987 110.082Z" fill="#0052CC"/>
<path opacity="0.7" d="M219.987 110.082C219.901 110.56 219.815 111.037 219.729 111.539H170.524C171.336 106.435 172.087 100.877 172.653 95.0628C173.046 90.9744 173.341 86.7636 173.501 82.4548C173.686 77.2525 173.674 71.9522 173.378 66.6397C173.378 66.6397 177.204 66.3949 181.989 66.4806C182.998 66.4806 184.043 66.4806 185.101 66.5785C186.159 66.6765 186.959 66.6764 187.906 66.7376L188.792 66.8111C195.256 67.3179 201.684 68.2049 208.043 69.4674C208.818 69.6387 209.58 69.8346 210.331 70.0304C213.861 70.9965 217.328 72.1779 220.713 73.568C220.873 74.2902 223.678 87.241 219.987 110.082Z" fill="white"/>
<path d="M197.559 45.9531C197.24 52.2571 195.628 63.5921 190.363 66.5911C190.363 66.5911 200.758 74.7435 203.894 74.719C206.096 74.719 209.27 71.1202 209.27 71.1202C202.898 67.8886 204.35 62.9433 206.699 58.5489L197.559 45.9531Z" fill="#E4897B"/>
<path opacity="0.2" d="M201.286 51.1055L206.674 58.5479C206.101 59.5706 205.616 60.6393 205.222 61.7427C202.762 60.7512 199.871 57.079 200.302 54.3248C200.431 53.2012 200.764 52.1103 201.286 51.1055Z" fill="black"/>
<path d="M220.661 33.271C221.694 36.5393 221.128 43.2717 216.54 41.0806C211.951 38.8895 218.889 27.6525 220.661 33.271Z" fill="#263238"/>
<path d="M196.971 37.6899C196.467 46.0993 195.741 51.0079 199.431 55.7573C205.041 62.9182 215.89 60.2497 218.916 52.0851C221.647 44.7406 222.016 32.2672 214.18 28.0197C212.443 27.0893 210.497 26.6119 208.524 26.632C206.551 26.652 204.615 27.1688 202.897 28.1343C201.179 29.0997 199.734 30.4823 198.698 32.1532C197.662 33.8241 197.068 35.7288 196.971 37.6899Z" fill="#E4897B"/>
<path d="M202.896 33.124V23.7231C202.896 23.7231 192.846 22.9886 193.289 28.1053C187.729 30.8472 190.362 39.4647 197.841 43.6878C201.937 40.4317 201.457 32.5732 201.457 32.5732C201.9 32.769 202.392 32.9404 202.896 33.124Z" fill="#263238"/>
<path d="M192.92 44.2634C193.119 45.2905 193.52 46.2682 194.101 47.1401C194.681 48.012 195.43 48.7608 196.303 49.3434C198.652 50.8857 200.707 48.9884 200.793 46.3321C200.867 43.884 199.735 40.2117 197.029 39.7833C196.434 39.6996 195.828 39.7615 195.263 39.9638C194.698 40.166 194.191 40.5025 193.786 40.9439C193.381 41.3854 193.09 41.9185 192.94 42.4969C192.789 43.0754 192.782 43.6818 192.92 44.2634Z" fill="#E4897B"/>
<path d="M209.456 41.4481C209.37 42.1335 209.665 42.6721 210.108 42.77C210.551 42.868 210.994 42.3049 211.08 41.6317C211.166 40.9584 210.859 40.4076 210.416 40.3097C209.973 40.2117 209.542 40.7626 209.456 41.4481Z" fill="#263238"/>
<path d="M217.192 42.28C217.118 42.9655 217.413 43.5041 217.856 43.602C218.299 43.6999 218.73 43.1491 218.816 42.4636C218.902 41.7781 218.607 41.2395 218.151 41.1416C217.696 41.0437 217.278 41.6312 217.192 42.28Z" fill="#263238"/>
<path d="M214.697 42.3779C215.292 44.4826 216.183 46.4935 217.341 48.3514C216.83 48.6133 216.269 48.7649 215.694 48.7965C215.12 48.8282 214.545 48.7391 214.008 48.535L214.697 42.3779Z" fill="#DE5753"/>
<path d="M207.363 38.6935C207.433 38.7128 207.506 38.7127 207.575 38.6932C207.645 38.6738 207.708 38.6358 207.757 38.5833C208.098 38.2061 208.525 37.9151 209.002 37.7342C209.479 37.5533 209.992 37.4877 210.5 37.5428C210.607 37.5608 210.718 37.5363 210.807 37.4746C210.897 37.4129 210.959 37.3188 210.98 37.2123C210.995 37.109 210.97 37.0039 210.911 36.9177C210.852 36.8315 210.762 36.7707 210.66 36.7472C210.019 36.6704 209.368 36.747 208.763 36.9705C208.157 37.1941 207.614 37.5581 207.179 38.0325C207.141 38.069 207.11 38.1127 207.09 38.1611C207.069 38.2095 207.059 38.2615 207.059 38.314C207.059 38.3665 207.069 38.4185 207.09 38.4669C207.11 38.5153 207.141 38.559 207.179 38.5956C207.225 38.6504 207.291 38.6855 207.363 38.6935Z" fill="#263238"/>
<path d="M220.859 40.0406C220.936 40.0589 221.016 40.0589 221.092 40.0406C221.193 40.0047 221.276 39.9304 221.322 39.8341C221.368 39.7378 221.374 39.6272 221.338 39.5265C221.145 38.92 220.807 38.3692 220.353 37.9214C219.899 37.4736 219.342 37.1423 218.731 36.956C218.626 36.9284 218.515 36.9432 218.422 36.9971C218.328 37.0511 218.26 37.1397 218.232 37.2436C218.205 37.3475 218.22 37.4581 218.274 37.5511C218.328 37.6441 218.417 37.7118 218.521 37.7394C219.008 37.8864 219.45 38.1512 219.809 38.5101C220.167 38.869 220.431 39.3108 220.576 39.7958C220.603 39.8543 220.642 39.9064 220.691 39.9486C220.739 39.9908 220.797 40.0222 220.859 40.0406Z" fill="#263238"/>
<path d="M193.29 28.1062C193.29 28.1062 187.902 23.2099 205.48 22.9284C223.059 22.6469 226.392 32.3048 218.446 34.9244L218.003 33.3453C216.653 34.1142 215.153 34.5873 213.605 34.733C212.056 34.8787 210.494 34.6935 209.023 34.1899L210.253 33.3453C210.253 33.3453 198.333 35.0835 193.29 28.1062Z" fill="#263238"/>
<path d="M213.711 50.7259C212.929 51.7514 212.222 52.8313 211.595 53.9574L210.955 53.7371C208.052 52.6599 207.056 51.2155 206.835 49.9302C206.736 49.3014 206.795 48.658 207.007 48.0574C207.109 47.7105 207.263 47.3805 207.462 47.0781C208.961 48.5309 210.756 49.6456 212.727 50.3464C213.33 50.6035 213.711 50.7259 213.711 50.7259Z" fill="#263238"/>
<path d="M212.725 50.3464L212.073 51.289C209.342 50.273 207.558 49.1958 207.005 48.0574C207.107 47.7105 207.261 47.3805 207.46 47.0781C208.959 48.5309 210.755 49.6456 212.725 50.3464Z" fill="white"/>
<path d="M210.956 53.7376C208.053 52.6604 207.056 51.2159 206.835 49.9307C207.931 50.3589 208.943 50.9764 209.824 51.7545C210.399 52.2829 210.794 52.9759 210.956 53.7376Z" fill="#DE5753"/>
<path d="M203.882 74.7304C203.882 74.7304 201.422 77.0195 198.457 79.235C194.988 76.9215 186.919 70.9113 187.903 66.3577C188.579 65.1336 192.196 64.6562 192.196 64.6562C192.196 64.6562 195.382 70.0667 203.882 74.7304Z" fill="#0052CC"/>
<path d="M203.881 74.7303C205.537 76.4013 206.942 78.302 208.051 80.3733C210.979 78.9411 210.634 70.2134 209.748 69.1485C208.414 68.1767 206.851 67.5614 205.209 67.3613C205.609 68.6042 205.697 69.9256 205.466 71.2101C205.234 72.4947 204.69 73.7032 203.881 74.7303Z" fill="#0052CC"/>
<g opacity="0.5">
<path d="M203.882 74.7304C203.882 74.7304 201.422 77.0195 198.457 79.235C194.988 76.9215 186.919 70.9113 187.903 66.3577C188.579 65.1336 192.196 64.6562 192.196 64.6562C192.196 64.6562 195.382 70.0667 203.882 74.7304Z" fill="white"/>
<path d="M203.882 74.7308C205.538 76.4018 206.943 78.3025 208.052 80.3738C210.98 78.9416 210.635 70.2139 209.749 69.149C208.415 68.1772 206.852 67.5619 205.21 67.3618C205.61 68.6047 205.698 69.9261 205.467 71.2106C205.235 72.4952 204.691 73.7037 203.882 74.7308Z" fill="white"/>
</g>
<path d="M187.891 66.3705V66.7377C187.891 68.2433 187.571 74.0822 186.538 82.1489C185.874 87.2778 184.902 93.3125 183.462 99.6654C182.601 103.534 181.556 107.512 180.313 111.49H168.64C168.701 110.658 168.775 109.789 168.849 108.907C168.923 108.026 169.009 106.851 169.095 105.798C169.329 102.579 169.562 99.2125 169.759 95.883V95.7851C169.759 95.0507 169.857 94.2917 169.894 93.545C169.98 91.8681 170.079 90.2278 170.165 88.6487C170.165 87.8408 170.251 87.0697 170.288 86.2862C170.288 85.2458 170.386 84.2298 170.436 83.2628C170.436 82.9323 170.436 82.6018 170.436 82.2713C170.436 81.4756 170.509 80.7045 170.534 79.9455C170.559 79.1866 170.608 78.3909 170.645 77.6443V76.7874C170.645 76.2243 170.645 75.6735 170.719 75.1471C170.792 74.6208 170.719 74.3148 170.719 73.9231C170.719 73.3233 170.719 72.699 170.78 72.2093C170.78 71.377 170.854 70.6058 170.878 69.9203C170.878 69.7367 170.878 69.5653 170.878 69.3817C170.952 67.4722 170.989 66.3827 170.989 66.3827C174.728 65.8452 178.512 65.6975 182.282 65.9421C184.102 66.0155 185.935 66.1379 187.891 66.3705Z" fill="#263238"/>
<path opacity="0.2" d="M187.891 66.3705V66.7377C187.891 68.2433 187.571 74.0822 186.538 82.1489C185.874 87.2778 184.902 93.3125 183.462 99.6654C182.601 103.534 181.556 107.512 180.313 111.49H168.64C168.701 110.658 168.775 109.789 168.849 108.907C168.923 108.026 169.009 106.851 169.095 105.798C169.329 102.579 169.562 99.2125 169.759 95.883V95.7851C169.759 95.0507 169.857 94.2917 169.894 93.545C169.98 91.8681 170.079 90.2278 170.165 88.6487C170.165 87.8408 170.251 87.0697 170.288 86.2862C170.288 85.2458 170.386 84.2298 170.436 83.2628C170.436 82.9323 170.436 82.6018 170.436 82.2713C170.436 81.4756 170.509 80.7045 170.534 79.9455C170.559 79.1866 170.608 78.3909 170.645 77.6443V76.7874C170.645 76.2243 170.645 75.6735 170.719 75.1471C170.792 74.6208 170.719 74.3148 170.719 73.9231C170.719 73.3233 170.719 72.699 170.78 72.2093C170.78 71.377 170.78 70.6058 170.878 69.9203C170.878 69.7367 170.878 69.5653 170.878 69.3817C170.952 67.4722 170.989 66.3827 170.989 66.3827C174.728 65.8452 178.512 65.6975 182.282 65.9421C184.102 66.0155 185.935 66.1379 187.891 66.3705Z" fill="white"/>
<path opacity="0.2" d="M187.9 66.3577C187.398 77.567 185.916 88.7115 183.471 99.6649L177.48 75.8933L183.816 75.2935L177.48 71.6213L182.462 65.8926C184.111 66.0027 185.931 66.1374 187.9 66.3577Z" fill="white"/>
<path d="M221.212 111.538H216.39C216.39 110.437 216.39 109.335 216.316 108.209C216.316 106.605 216.206 105.063 216.144 103.594C215.916 97.1918 215.353 90.8057 214.459 84.4617C212.737 72.8941 210.473 70.2501 210.276 70.042L214.373 71.4375L220.646 73.5918L221.803 73.9835C222.639 82.6745 222.184 96.8493 221.212 111.538Z" fill="#263238"/>
<path opacity="0.2" d="M221.212 111.538H216.39C216.39 110.437 216.39 109.335 216.316 108.209C216.316 106.605 216.206 105.063 216.144 103.594C215.916 97.1918 215.353 90.8057 214.459 84.4617C212.737 72.8941 210.473 70.2501 210.276 70.042L214.373 71.4375L220.646 73.5918L221.803 73.9835C222.639 82.6745 222.184 96.8493 221.212 111.538Z" fill="white"/>
<path opacity="0.2" d="M214.73 79.8967L219.417 82.8222C219.417 82.8222 218.187 96.5686 216.194 103.632C214.964 75.4777 210.609 70.3978 210.326 70.0918L214.422 71.475C216.674 73.5568 218.562 75.9976 220.007 78.6971L214.73 79.8967Z" fill="white"/>
<path opacity="0.2" d="M172.476 86.6778C172.198 89.904 171.274 93.0422 169.758 95.9074C169.955 92.6391 170.127 89.383 170.299 86.2861C171.045 86.2571 171.788 86.3908 172.476 86.6778Z" fill="black"/>
<path d="M174.58 75.7711C174.478 79.5 173.768 83.1877 172.477 86.6898C172.477 86.6898 155.366 101.917 155.833 105.626C156.316 107.649 156.971 109.626 157.789 111.539H145.094C144.294 109.339 143.91 107.011 143.963 104.672C144.91 95.9316 166.105 66.9087 171.148 66.3701C171.148 66.3701 174.814 69.3324 174.58 75.7711Z" fill="#263238"/>
<path opacity="0.2" d="M174.58 75.7711C174.478 79.5 173.768 83.1877 172.477 86.6898C172.477 86.6898 155.366 101.917 155.833 105.626C156.316 107.649 156.971 109.626 157.789 111.539H145.094C144.294 109.339 143.91 107.011 143.963 104.672C144.91 95.9316 166.105 66.9087 171.148 66.3701C171.148 66.3701 174.814 69.3324 174.58 75.7711Z" fill="white"/>
<path d="M221.854 127.965C221.639 127.967 221.426 127.926 221.226 127.845C221.027 127.763 220.846 127.643 220.694 127.492C220.542 127.34 220.421 127.16 220.34 126.962C220.258 126.764 220.217 126.551 220.218 126.337V125.015H172.01V126.337C172.012 126.55 171.971 126.762 171.89 126.959C171.809 127.157 171.69 127.336 171.539 127.488C171.388 127.639 171.209 127.759 171.011 127.841C170.813 127.923 170.601 127.965 170.387 127.965C169.185 127.955 168.022 128.383 167.115 129.167C166.209 129.952 165.622 131.04 165.466 132.225C165.403 132.88 165.478 133.542 165.686 134.167C165.895 134.792 166.232 135.366 166.677 135.854C167.122 136.341 167.664 136.731 168.269 136.998C168.874 137.264 169.528 137.402 170.19 137.403H170.399C170.831 137.406 171.244 137.579 171.548 137.884C171.852 138.189 172.023 138.601 172.023 139.031V140.353H220.218V139.031C220.218 138.599 220.391 138.185 220.698 137.88C221.004 137.574 221.421 137.403 221.854 137.403H222.051C222.714 137.404 223.369 137.268 223.975 137.001C224.581 136.735 225.124 136.346 225.569 135.858C226.014 135.37 226.351 134.794 226.559 134.169C226.767 133.543 226.84 132.881 226.775 132.225C226.619 131.04 226.032 129.952 225.126 129.167C224.219 128.383 223.056 127.955 221.854 127.965Z" fill="#0052CC"/>
<path opacity="0.2" d="M223.465 131.442C223.641 131.591 223.785 131.773 223.887 131.979C223.99 132.184 224.049 132.408 224.062 132.637C224.074 132.866 224.04 133.096 223.961 133.311C223.881 133.526 223.759 133.724 223.601 133.89C223.287 134.186 222.873 134.353 222.441 134.359C222.009 134.366 221.591 134.21 221.269 133.923C220.946 133.637 220.744 133.24 220.702 132.812C220.661 132.385 220.782 131.957 221.042 131.613C221.188 131.442 221.367 131.3 221.569 131.199C221.771 131.097 221.992 131.036 222.217 131.02C222.443 131.004 222.67 131.033 222.884 131.106C223.098 131.178 223.296 131.293 223.465 131.442Z" fill="black"/>
<path opacity="0.2" d="M221.544 131.644L221.15 132.082L223.103 133.821L223.497 133.383L221.544 131.644Z" fill="black"/>
<path opacity="0.2" d="M170.422 134.343C170.2 134.43 169.963 134.471 169.725 134.463C169.487 134.455 169.253 134.397 169.038 134.294C168.824 134.191 168.633 134.045 168.478 133.865C168.323 133.685 168.207 133.475 168.138 133.248C168.068 133.021 168.047 132.782 168.076 132.547C168.104 132.311 168.181 132.084 168.302 131.88C168.423 131.676 168.586 131.499 168.779 131.36C168.972 131.221 169.192 131.124 169.425 131.075C169.848 130.985 170.288 131.056 170.66 131.274C171.032 131.492 171.308 131.842 171.434 132.253C171.559 132.664 171.525 133.107 171.337 133.494C171.15 133.881 170.823 134.184 170.422 134.343Z" fill="black"/>
<path opacity="0.2" d="M171.242 132.601L171.07 132.039L168.563 132.796L168.735 133.358L171.242 132.601Z" fill="black"/>
<g opacity="0.4">
<path d="M179.846 137.428C179.64 137.43 179.44 137.361 179.28 137.232C178.973 137.012 178.345 136.534 180.043 132.409L180.166 132.128C178.882 132.781 177.554 133.346 176.192 133.817L175.799 132.715C177.609 132.068 179.351 131.248 181.002 130.267C182.331 127.599 182.958 127.672 183.192 127.709C183.375 127.743 183.541 127.84 183.66 127.983C183.779 128.126 183.844 128.306 183.844 128.492C183.954 129.374 183.106 130.267 181.925 131.063C181.117 132.667 180.502 134.359 180.092 136.106C180.971 135.458 181.794 134.737 182.552 133.952C183.624 132.77 184.868 131.755 186.242 130.94C186.515 130.797 186.819 130.722 187.128 130.722C187.437 130.722 187.741 130.797 188.014 130.94C188.252 131.179 188.426 131.473 188.518 131.797C188.611 132.12 188.619 132.461 188.543 132.789C189.182 132.789 190.843 132.911 195.235 132.923C195.207 132.819 195.186 132.712 195.173 132.605C195.075 131.936 195.161 131.253 195.421 130.628C195.681 130.004 196.105 129.46 196.649 129.055C196.959 128.839 197.329 128.724 197.707 128.724C198.086 128.724 198.455 128.839 198.765 129.055C199.153 129.279 199.453 129.628 199.616 130.043C199.78 130.459 199.796 130.918 199.663 131.344C199.249 132.409 198.45 133.282 197.424 133.792L197.769 133.903C198.25 134.08 198.763 134.152 199.275 134.114C199.787 134.076 200.284 133.929 200.733 133.682C200.995 133.493 201.217 133.253 201.386 132.978C201.555 132.703 201.667 132.397 201.717 132.079C201.76 131.791 201.911 131.53 202.139 131.348C202.367 131.167 202.656 131.078 202.947 131.1C203.404 131.099 203.851 131.224 204.24 131.462C204.629 131.7 204.944 132.04 205.149 132.446C208.565 132.098 212 131.963 215.433 132.042V133.266C212.008 133.181 208.581 133.316 205.174 133.67C205.143 133.883 205.061 134.086 204.935 134.261C204.809 134.435 204.641 134.577 204.448 134.674C204.217 134.753 203.964 134.745 203.738 134.653C203.512 134.561 203.327 134.39 203.218 134.172C203.126 134.053 203.069 133.91 203.056 133.76C203.043 133.611 203.074 133.46 203.144 133.327C203.23 133.144 203.341 132.936 203.956 132.74C203.864 132.648 203.755 132.573 203.636 132.519C203.394 132.37 203.107 132.31 202.824 132.348C202.771 132.822 202.614 133.279 202.366 133.687C202.117 134.095 201.783 134.444 201.385 134.711C200.798 135.054 200.143 135.265 199.465 135.331C198.787 135.396 198.104 135.314 197.461 135.09C196.851 134.95 196.295 134.635 195.862 134.184C187.805 134.184 187.694 134.025 187.46 133.707C187.323 133.448 187.284 133.148 187.35 132.862C187.35 132.679 187.35 132.116 187.35 131.981C187.145 132.006 186.946 132.064 186.759 132.152C185.54 132.923 184.431 133.853 183.462 134.919C181.851 136.339 180.695 137.428 179.846 137.428ZM197.646 129.888C197.494 129.894 197.349 129.945 197.227 130.035C196.877 130.315 196.606 130.682 196.44 131.098C196.274 131.514 196.219 131.966 196.28 132.409C196.303 132.566 196.349 132.719 196.415 132.862C196.865 132.702 197.277 132.454 197.628 132.132C197.979 131.811 198.261 131.422 198.457 130.989C198.525 130.807 198.52 130.606 198.445 130.427C198.37 130.247 198.229 130.103 198.052 130.022C197.932 129.94 197.791 129.893 197.646 129.888Z" fill="white"/>
</g>
<path d="M118.005 65.2173H0V182.643H118.005V65.2173Z" fill="#0052CC"/>
<path opacity="0.7" d="M117.505 65.7173V182.143H0.5V65.7173H117.505Z" fill="white" stroke="#B9B9B9"/>
<path opacity="0.7" d="M111.581 176.255H6.42285V71.6177H111.581V176.255Z" fill="white" stroke="black"/>
<path d="M76.4181 146.265C77.9558 147.66 79.6902 149.251 81.3386 150.659C82.9869 152.067 84.7829 153.499 86.5173 154.809C88.1911 156.074 89.9367 157.243 91.7453 158.31C93.1402 159.164 94.6527 159.811 96.2352 160.231H96.3951C96.2149 160.219 96.0341 160.219 95.8539 160.231C95.5345 160.292 95.227 160.403 94.9436 160.562C94.5007 160.843 94.4761 160.978 94.5623 160.929C95.01 160.468 95.3686 159.928 95.6202 159.338C96.4921 157.455 97.1999 155.502 97.7359 153.499C98.9661 149.239 99.9378 144.612 100.873 140.108V139.997C101.038 139.282 101.453 138.647 102.043 138.207C102.634 137.766 103.362 137.548 104.099 137.59C104.835 137.633 105.533 137.933 106.069 138.439C106.604 138.945 106.942 139.622 107.023 140.352C107.509 145.31 107.509 150.304 107.023 155.262C106.767 157.946 106.231 160.596 105.424 163.169C104.896 164.832 104.107 166.402 103.087 167.821C102.263 168.918 101.21 169.824 99.9993 170.477C99.1859 170.912 98.304 171.206 97.3915 171.346C96.9191 171.415 96.442 171.448 95.9646 171.444H95.2265C92.0855 171.17 89.0276 170.293 86.2221 168.861C83.8137 167.697 81.4984 166.35 79.2966 164.834C77.1651 163.41 75.112 161.874 73.146 160.231C71.2024 158.579 69.3696 157.012 67.4875 155.09C66.3664 153.927 65.7407 152.378 65.7412 150.767C65.7417 149.155 66.3685 147.606 67.4903 146.444C68.6122 145.282 70.1422 144.596 71.7603 144.531C73.3785 144.466 74.9593 145.025 76.1721 146.093L76.4181 146.265Z" fill="#EBC0BB"/>
<path d="M64.9955 140.29C75.0701 138.479 78.9942 144.22 90.8278 154.208C90.5199 157.367 89.5063 160.418 87.8611 163.138C86.216 165.857 83.9808 168.176 81.3191 169.925C81.3191 169.925 56.6677 153.914 64.9955 140.29Z" fill="#0052CC"/>
<path opacity="0.2" d="M65.4648 153.926C69.7333 161.736 78.8976 168.26 80.915 169.631C80.2016 166.069 77.9505 158.529 71.2956 153.718C70.4749 153.018 69.4196 152.651 68.3394 152.69C67.2592 152.728 66.233 153.17 65.4648 153.926Z" fill="black"/>
<path d="M66.5617 99.7488C66.5617 99.7488 75.5784 122.198 66.5617 141.759C57.545 161.32 32.1924 149.569 29.6584 144.881C27.1243 140.192 33.0289 130.645 33.0289 121.905C33.0289 113.165 30.175 108.195 32.4876 101.218C37.4204 86.3451 66.5617 99.7488 66.5617 99.7488Z" fill="#263238"/>
<path d="M77.8589 176.756H35.1372C35.0511 175.85 34.965 174.944 34.8912 174.063C34.4606 169.497 33.9317 165.262 33.3781 161.467C32.4335 154.653 31.1237 147.895 29.4541 141.221C51.3132 130.718 71.8683 140.352 71.8683 140.352C77.084 147.892 78.1296 163.23 77.8589 176.756Z" fill="#263238"/>
<path opacity="0.1" d="M77.8589 176.756H35.1372C35.0511 175.85 34.965 174.944 34.8912 174.063C34.4606 169.497 33.9317 165.262 33.3781 161.467C32.4335 154.653 31.1237 147.895 29.4541 141.221C51.3132 130.718 71.8683 140.352 71.8683 140.352C77.084 147.892 78.1296 163.23 77.8589 176.756Z" fill="white"/>
<path opacity="0.2" d="M33.3877 161.455C33.9289 165.25 34.4579 169.485 34.8884 174.063C37.8334 167.255 38.239 159.624 36.0324 152.544L33.3877 161.455Z" fill="black"/>
<path d="M50.1648 133.571C37.5931 133.571 36.0186 143.865 36.0186 143.865L41.8985 141.344L59.12 152.85L63.3639 141.234L68.6903 142.225C68.6903 142.225 61.1005 133.583 50.1648 133.571Z" fill="#0052CC"/>
<path d="M58.6201 152.153L42.4072 138.1C46.3559 134.073 44.3385 123.032 42.7025 116.997L55.0036 126.79C54.1794 131.466 54.3762 136.46 61.2525 138.063C61.2402 138.1 58.6078 152.116 58.6201 152.153Z" fill="#EEC1BB"/>
<path opacity="0.2" d="M47.7032 121.036L54.9854 126.838C54.7665 127.935 54.6553 129.05 54.6533 130.168C52.0455 129.788 48.2813 126.973 47.8139 124.292C47.5748 123.223 47.5373 122.119 47.7032 121.036Z" fill="black"/>
<path d="M39.5007 102.601C39.2546 112.504 38.9471 116.678 43.4247 122.406C50.1534 130.975 62.2208 129.751 65.3822 120.313C68.2237 111.745 68.1499 97.0557 58.9733 91.7799C57.0391 90.5879 54.8197 89.9323 52.5452 89.8812C50.2707 89.83 48.0238 90.3851 46.0374 91.4889C44.051 92.5927 42.3975 94.2051 41.2481 96.1589C40.0988 98.1127 39.4954 100.337 39.5007 102.601Z" fill="#EEC1BB"/>
<path d="M49.2044 97.4235C42.4634 103.079 51.6646 113.19 40.8888 110.423C30.1131 107.657 37.8259 93.3718 45.0097 91.2786C52.1936 89.1854 49.2044 97.4235 49.2044 97.4235Z" fill="#263238"/>
<path d="M54.3125 107.363C54.3125 108.196 54.6446 108.93 55.1613 109.004C55.6779 109.077 56.17 108.453 56.2192 107.62C56.2684 106.788 55.8993 106.066 55.3704 105.992C54.8414 105.919 54.374 106.531 54.3125 107.363Z" fill="#263238"/>
<path d="M64.2129 108.868C64.2129 109.701 64.5327 110.435 65.0617 110.496C65.5906 110.557 66.0581 109.958 66.1196 109.125C66.1811 108.293 65.7874 107.571 65.2708 107.497C64.7541 107.424 64.2621 108.036 64.2129 108.868Z" fill="#263238"/>
<path d="M65.0234 107.497L67.0035 107.191C67.0035 107.191 65.8966 108.623 65.0234 107.497Z" fill="#263238"/>
<path d="M61.3624 109.848C61.933 111.842 62.76 113.755 63.8226 115.54C63.3809 115.785 62.8887 115.927 62.3834 115.955C61.8782 115.983 61.3732 115.895 60.9072 115.699L61.3624 109.848Z" fill="#D4827D"/>
<path d="M56.1115 118.134C56.5517 118.279 57.0048 118.381 57.4646 118.44C57.4947 118.444 57.5252 118.441 57.5541 118.432C57.583 118.423 57.6099 118.409 57.6329 118.389C57.656 118.37 57.6748 118.346 57.6881 118.319C57.7015 118.292 57.7092 118.262 57.7107 118.232C57.7148 118.167 57.6945 118.102 57.6537 118.05C57.6129 117.998 57.5544 117.963 57.4892 117.951C56.4586 117.815 55.4721 117.449 54.6032 116.881C53.7342 116.313 53.0052 115.557 52.4704 114.67C52.4573 114.642 52.4384 114.616 52.415 114.595C52.3916 114.574 52.3641 114.557 52.3342 114.547C52.3043 114.537 52.2726 114.533 52.241 114.535C52.2095 114.537 52.1787 114.546 52.1506 114.56C52.1215 114.573 52.0956 114.592 52.0745 114.615C52.0534 114.639 52.0377 114.667 52.0283 114.697C52.019 114.727 52.0163 114.759 52.0204 114.79C52.0245 114.821 52.0354 114.852 52.0522 114.878C52.9551 116.425 54.4009 117.585 56.1115 118.134Z" fill="#263238"/>
<path d="M36.6355 111.537C36.85 112.46 37.2549 113.328 37.8245 114.087C38.3942 114.845 39.1161 115.478 39.9445 115.944C42.048 117.009 43.5611 114.72 43.3643 111.978C43.1797 109.53 41.8758 106.078 39.5878 106.176C37.2998 106.274 35.959 109.065 36.6355 111.537Z" fill="#EEC1BB"/>
<path d="M52.5136 102.454C52.5767 102.47 52.6425 102.471 52.7063 102.459C52.7701 102.446 52.8303 102.419 52.8826 102.381C53.3538 102.026 53.9056 101.792 54.4893 101.701C55.0729 101.609 55.6703 101.662 56.2285 101.855C56.2844 101.882 56.3456 101.897 56.4079 101.899C56.4703 101.901 56.5322 101.889 56.5896 101.865C56.6469 101.84 56.6982 101.804 56.7399 101.757C56.7817 101.711 56.8128 101.657 56.8313 101.597C56.8707 101.474 56.8638 101.34 56.8118 101.22C56.7598 101.101 56.6662 101.005 56.5483 100.949C55.8456 100.692 55.0895 100.613 54.3485 100.72C53.6074 100.827 52.9049 101.116 52.3044 101.561C52.2046 101.642 52.14 101.759 52.124 101.886C52.108 102.014 52.1418 102.143 52.2183 102.246C52.2866 102.35 52.3922 102.425 52.5136 102.454Z" fill="#263238"/>
<path d="M67.3873 104.707C67.4414 104.731 67.5001 104.744 67.5595 104.744C67.6189 104.744 67.6776 104.731 67.7317 104.707C67.7862 104.674 67.8336 104.631 67.8712 104.58C67.9088 104.529 67.9358 104.471 67.9507 104.409C67.9655 104.348 67.968 104.284 67.9578 104.222C67.9477 104.159 67.9252 104.099 67.8917 104.046C67.5236 103.35 66.9991 102.748 66.359 102.288C65.7189 101.827 64.9805 101.52 64.2013 101.389C64.1392 101.383 64.0762 101.389 64.0167 101.408C63.9572 101.427 63.9023 101.458 63.8559 101.5C63.8094 101.541 63.7723 101.592 63.747 101.649C63.7218 101.706 63.7089 101.768 63.7093 101.83C63.705 101.96 63.7491 102.087 63.8331 102.186C63.9171 102.286 64.0351 102.351 64.1644 102.369C64.7758 102.481 65.3531 102.732 65.8521 103.101C66.351 103.47 66.7584 103.948 67.0429 104.499C67.1265 104.61 67.2499 104.684 67.3873 104.707Z" fill="#263238"/>
<path d="M55.085 106.004L57.0527 105.698C57.0527 105.698 56.0074 107.117 55.085 106.004Z" fill="#263238"/>
<path d="M54.8142 93.6168C54.8142 93.6168 49.1803 105.772 39.4378 105.184C29.6953 104.597 34.8741 91.2298 48.5529 88.8062C62.2317 86.3825 70.2521 98.6967 70.2398 101.549C70.179 102.425 69.8771 103.268 69.3673 103.984C68.8574 104.701 68.1592 105.264 67.349 105.613C67.349 105.613 64.6182 95.967 54.8142 93.6168Z" fill="#263238"/>
<path d="M33.5799 156.914C31.6486 160.672 29.6312 164.589 27.786 168.359C26.8758 170.257 25.9778 172.154 25.252 173.941C24.8953 174.823 24.6001 175.704 24.3909 176.389C24.2925 176.695 24.2433 176.989 24.2187 176.891C24.1941 176.793 24.2187 176.708 24.0588 176.181C23.9339 175.798 23.7603 175.432 23.5422 175.092C23.3714 174.827 23.1735 174.581 22.9517 174.357C22.8363 174.235 22.7086 174.124 22.5704 174.027C21.6355 173.378 21.5371 173.574 21.6355 173.574C21.8913 173.658 22.1551 173.715 22.4228 173.745C23.3041 173.853 24.1923 173.894 25.0798 173.868C27.0357 173.868 29.1638 173.696 31.2304 173.488C35.4865 173.084 39.8411 172.509 44.2572 172.044H44.331C45.0742 171.961 45.8228 172.145 46.4418 172.562C47.0608 172.98 47.5095 173.604 47.7069 174.322C47.9043 175.04 47.8375 175.804 47.5185 176.477C47.1995 177.15 46.6493 177.688 45.9671 177.993C41.7617 179.882 37.4195 181.453 32.9771 182.693C30.674 183.357 28.3324 183.88 25.9655 184.26C24.6345 184.473 23.2906 184.595 21.943 184.627C21.0946 184.638 20.2469 184.576 19.409 184.444C17.9492 184.239 16.5676 183.661 15.3988 182.767C15.1578 182.576 14.9278 182.372 14.71 182.155C14.3952 181.826 14.1111 181.47 13.8612 181.09C13.4999 180.51 13.2186 179.884 13.0247 179.229C12.808 178.464 12.6922 177.674 12.6803 176.879C12.672 175.94 12.7503 175.001 12.914 174.076C13.1536 172.73 13.4823 171.401 13.8981 170.098C14.6021 167.809 15.4232 165.558 16.3583 163.353C18.1671 159.113 20.2207 154.981 22.5089 150.978C23.2935 149.517 24.6292 148.426 26.2221 147.945C27.815 147.464 29.5347 147.632 31.0028 148.413C32.4709 149.194 33.5672 150.523 34.0505 152.108C34.5338 153.693 34.3645 155.404 33.5799 156.865V156.914Z" fill="#EBC0BB"/>
<path d="M31.9602 140.315C25.2069 141.343 21.5042 146.582 15.9688 160.072C22.353 171.003 31.8495 172.496 31.8495 172.496C31.8495 172.496 41.2352 155.934 31.9602 140.315Z" fill="#0052CC"/>
<path opacity="0.6" d="M58.8496 156.314C58.8496 156.469 58.8958 156.621 58.9823 156.75C59.0688 156.878 59.1917 156.979 59.3355 157.038C59.4793 157.097 59.6376 157.113 59.7903 157.083C59.943 157.052 60.0832 156.978 60.1933 156.868C60.3034 156.759 60.3783 156.619 60.4087 156.467C60.4391 156.315 60.4235 156.158 60.3639 156.015C60.3043 155.872 60.2035 155.749 60.074 155.663C59.9446 155.577 59.7924 155.531 59.6367 155.531C59.428 155.531 59.2278 155.614 59.0802 155.761C58.9325 155.908 58.8496 156.107 58.8496 156.314Z" fill="white"/>
<path opacity="0.6" d="M60.4287 167.856C60.4287 168.064 60.5116 168.263 60.6593 168.41C60.8069 168.557 61.0071 168.64 61.2158 168.64C61.4246 168.64 61.6248 168.557 61.7724 168.41C61.92 168.263 62.0029 168.064 62.0029 167.856C62.0029 167.649 61.92 167.45 61.7724 167.303C61.6248 167.156 61.4246 167.073 61.2158 167.073C61.0071 167.073 60.8069 167.156 60.6593 167.303C60.5116 167.45 60.4287 167.649 60.4287 167.856Z" fill="white"/>
<path d="M101.242 139.556L100.528 130.914L109.557 134.329C109.557 134.329 109.73 142.065 105.719 141.992L101.242 139.556Z" fill="#EEC1BB"/>
<path d="M104.391 123.24L111.144 128.797L109.557 134.33L100.528 130.915L104.391 123.24Z" fill="#EEC1BB"/>
<path d="M44.7906 172.043L54.9882 171.223L52.6264 177.968C52.6264 177.968 45.2458 180.416 44.1387 176.548L44.7906 172.043Z" fill="#EEC1BB"/>
<path d="M60.4222 176.756L54.9851 179.829L52.6602 177.968L54.9851 171.224L60.4222 176.756Z" fill="#EEC1BB"/>
<path d="M84.7292 193.182C84.5139 193.184 84.3004 193.143 84.1012 193.062C83.9019 192.981 83.7209 192.861 83.5687 192.709C83.4164 192.558 83.296 192.378 83.2143 192.179C83.1327 191.981 83.0915 191.769 83.0931 191.554V190.232H34.8974V191.554C34.899 191.768 34.8582 191.979 34.7773 192.177C34.6965 192.374 34.5771 192.554 34.4262 192.705C34.2752 192.856 34.0957 192.976 33.8979 193.058C33.7001 193.14 33.4879 193.182 33.2736 193.182C32.0723 193.172 30.9087 193.6 30.0023 194.385C29.0959 195.169 28.5093 196.257 28.3532 197.442C28.2878 198.098 28.3614 198.76 28.5692 199.386C28.777 200.012 29.1143 200.587 29.5595 201.075C30.0046 201.563 30.5476 201.953 31.1535 202.219C31.7594 202.485 32.4146 202.622 33.0768 202.62H33.286C33.7177 202.623 34.1307 202.796 34.4349 203.101C34.739 203.406 34.9097 203.818 34.9097 204.248V205.57H83.1054V204.248C83.1054 203.816 83.2778 203.402 83.5846 203.097C83.8914 202.792 84.3076 202.62 84.7415 202.62H84.9383C85.6006 202.622 86.2558 202.485 86.8616 202.219C87.4675 201.953 88.0105 201.563 88.4557 201.075C88.9008 200.587 89.2382 200.012 89.4459 199.386C89.6537 198.76 89.7273 198.098 89.6619 197.442C89.5055 196.255 88.9172 195.165 88.0082 194.381C87.0992 193.596 85.9327 193.169 84.7292 193.182Z" fill="#0052CC"/>
<path opacity="0.2" d="M86.3434 196.659C86.5192 196.808 86.6627 196.99 86.7653 197.196C86.8678 197.401 86.9273 197.625 86.9399 197.854C86.9526 198.083 86.9182 198.313 86.8389 198.528C86.7596 198.744 86.6371 198.941 86.4787 199.107C86.3276 199.279 86.1434 199.419 85.9371 199.52C85.7307 199.62 85.5063 199.678 85.2771 199.69C85.0479 199.703 84.8185 199.67 84.6023 199.593C84.3862 199.516 84.1877 199.396 84.0185 199.242C83.7215 198.93 83.5532 198.518 83.547 198.088C83.5409 197.658 83.6973 197.242 83.9853 196.921C84.2733 196.601 84.6717 196.4 85.1017 196.358C85.5317 196.316 85.9617 196.437 86.3065 196.696L86.3434 196.659Z" fill="black"/>
<path opacity="0.2" d="M84.4123 196.86L84.0186 197.297L85.9709 199.036L86.3647 198.598L84.4123 196.86Z" fill="black"/>
<path opacity="0.2" d="M33.3002 199.561C32.9741 199.661 32.6256 199.662 32.2989 199.564C31.9722 199.466 31.682 199.274 31.4651 199.012C31.2482 198.75 31.1145 198.43 31.0807 198.092C31.047 197.754 31.1148 197.414 31.2756 197.115C31.4364 196.816 31.6829 196.57 31.9839 196.411C32.2849 196.251 32.6268 196.184 32.9662 196.218C33.3056 196.251 33.6273 196.385 33.8904 196.601C34.1535 196.817 34.3463 197.106 34.4442 197.431C34.5746 197.864 34.5276 198.331 34.3132 198.731C34.0989 199.13 33.7348 199.428 33.3002 199.561Z" fill="black"/>
<path opacity="0.2" d="M34.1275 197.814L33.9561 197.251L31.4488 198.009L31.6203 198.571L34.1275 197.814Z" fill="black"/>
<g opacity="0.4">
<path d="M64.4456 202.681C64.2868 202.681 64.129 202.656 63.9782 202.607C63.8445 202.558 63.7228 202.482 63.621 202.383C63.5192 202.283 63.4397 202.164 63.3877 202.032C63.0802 201.249 63.6337 199.731 64.1381 198.605C62.5357 198.718 60.9265 198.694 59.3283 198.531C58.9447 198.482 58.5661 198.4 58.1966 198.286C56.3894 199.018 54.3964 199.163 52.5012 198.703C51.6386 199.167 50.747 199.576 49.8319 199.927C48.2943 200.514 44.6408 201.775 43.7551 200.906C43.3123 200.465 43.3369 199.584 43.6075 198.568H38.6133V197.344H44.0135C44.4254 196.278 44.9754 195.269 45.6495 194.345C47.0887 192.472 48.2081 192.717 48.7371 193.023C49.1129 193.221 49.4072 193.543 49.5689 193.935C49.7307 194.326 49.7497 194.761 49.6228 195.165C49.2624 196.073 48.6593 196.865 47.8787 197.457C47.0981 198.048 46.1698 198.415 45.1944 198.519H44.8499C44.6651 198.982 44.5813 199.478 44.6039 199.976C46.8695 199.727 49.0728 199.081 51.1112 198.066C50.77 197.87 50.5158 197.553 50.3994 197.179C50.2831 196.804 50.3132 196.4 50.4838 196.046C50.9267 195.238 52.2798 194.822 53.9036 195.704C54.1004 195.786 54.2672 195.926 54.3816 196.106C54.4959 196.285 54.5523 196.495 54.5432 196.707C54.4671 197.14 54.2244 197.527 53.8667 197.784C54.8325 197.862 55.8046 197.784 56.7451 197.552C56.4561 197.291 56.2306 196.968 56.0857 196.607C55.9408 196.247 55.8802 195.858 55.9086 195.471C55.9111 195.26 55.9818 195.056 56.1104 194.888C56.2389 194.72 56.4184 194.599 56.6221 194.541C57.1387 194.458 57.668 194.513 58.1563 194.7C58.6446 194.887 59.0744 195.2 59.4021 195.606C59.5997 195.853 59.7073 196.159 59.7073 196.475C59.7073 196.79 59.5997 197.097 59.4021 197.344C61.2513 197.52 63.1131 197.52 64.9622 197.344L66.0447 197.234L65.5527 198.201C64.9465 199.215 64.5298 200.331 64.3226 201.493H64.4456C65.6757 200.857 67.1026 196.218 67.6193 194.467C68.0498 193.047 68.099 192.839 68.6157 192.839H69.0708L69.1815 193.292C69.2553 193.598 69.1815 194.014 68.7756 195.189C68.4516 196.15 68.2128 197.137 68.0621 198.139C68.505 198.139 69.2922 197.993 70.0672 197.882C72.6069 197.47 75.1711 197.225 77.7431 197.148V198.372C75.2289 198.453 72.7226 198.694 70.2394 199.094C69.425 199.234 68.6038 199.332 67.7792 199.388C67.5866 199.391 67.3991 199.326 67.2502 199.204C66.864 200.539 66.0631 201.717 64.9622 202.571C64.7977 202.637 64.6229 202.674 64.4456 202.681ZM52.1445 196.389C52.0336 196.374 51.9208 196.387 51.8157 196.425C51.7107 196.463 51.6167 196.527 51.5417 196.609C51.5417 196.72 51.6156 197.001 52.1076 197.283C52.188 197.338 52.2747 197.383 52.3659 197.417C52.7126 197.23 53.0279 196.991 53.3008 196.707C52.9485 196.517 52.5574 196.408 52.1568 196.389H52.1445ZM47.9252 193.941C47.6255 193.992 47.3523 194.143 47.1503 194.369C46.3221 195.225 45.6739 196.236 45.2436 197.344C45.9379 197.233 46.5933 196.951 47.1499 196.524C47.7065 196.096 48.1464 195.536 48.4296 194.896C48.4887 194.742 48.4873 194.573 48.4257 194.421C48.364 194.268 48.2467 194.145 48.0974 194.075C48.0487 194.042 47.9947 194.017 47.9375 194.002L47.9252 193.941ZM57.1141 195.581C57.1104 195.886 57.2053 196.184 57.3847 196.43C57.5642 196.677 57.8186 196.86 58.1105 196.952C58.2606 196.856 58.3936 196.736 58.5042 196.597C58.5042 196.499 58.6149 196.401 58.5042 196.218C58.1357 195.856 57.6437 195.646 57.1264 195.63L57.1141 195.581Z" fill="white"/>
</g>
<path d="M72.6614 2.00684H107.105C108.04 2.00684 108.966 2.19015 109.83 2.54633C110.694 2.90251 111.479 3.42456 112.141 4.08269C112.802 4.74081 113.327 5.52213 113.685 6.38202C114.043 7.2419 114.227 8.16351 114.227 9.09425V29.1202C114.227 30.0503 114.043 30.9714 113.684 31.8306C113.326 32.6898 112.802 33.4703 112.14 34.1274C111.478 34.7846 110.693 35.3055 109.829 35.6603C108.965 36.0151 108.039 36.197 107.105 36.1954H100.363L106.022 47.3345L95.5661 36.1954H72.6614C71.7267 36.197 70.8008 36.0151 69.9367 35.6603C69.0727 35.3055 68.2874 34.7846 67.6259 34.1274C66.9644 33.4703 66.4396 32.6898 66.0815 31.8306C65.7234 30.9714 65.5391 30.0503 65.5391 29.1202V9.09425C65.5391 7.21455 66.2895 5.41183 67.6252 4.08269C68.9609 2.75354 70.7725 2.00684 72.6614 2.00684Z" fill="#0052CC"/>
<path opacity="0.2" d="M72.6614 2.00684H107.105C108.04 2.00684 108.966 2.19015 109.83 2.54633C110.694 2.90251 111.479 3.42456 112.141 4.08269C112.802 4.74081 113.327 5.52213 113.685 6.38202C114.043 7.2419 114.227 8.16351 114.227 9.09425V29.1202C114.227 30.0503 114.043 30.9714 113.684 31.8306C113.326 32.6898 112.802 33.4703 112.14 34.1274C111.478 34.7846 110.693 35.3055 109.829 35.6603C108.965 36.0151 108.039 36.197 107.105 36.1954H100.363L106.022 47.3345L95.5661 36.1954H72.6614C71.7267 36.197 70.8008 36.0151 69.9367 35.6603C69.0727 35.3055 68.2874 34.7846 67.6259 34.1274C66.9644 33.4703 66.4396 32.6898 66.0815 31.8306C65.7234 30.9714 65.5391 30.0503 65.5391 29.1202V9.09425C65.5391 7.21455 66.2895 5.41183 67.6252 4.08269C68.9609 2.75354 70.7725 2.00684 72.6614 2.00684Z" fill="white"/>
<path d="M79.6497 22.0932C80.8726 22.0932 81.864 21.1067 81.864 19.8899C81.864 18.673 80.8726 17.6865 79.6497 17.6865C78.4269 17.6865 77.4355 18.673 77.4355 19.8899C77.4355 21.1067 78.4269 22.0932 79.6497 22.0932Z" fill="white"/>
<path d="M89.8597 22.0932C91.0826 22.0932 92.0739 21.1067 92.0739 19.8899C92.0739 18.673 91.0826 17.6865 89.8597 17.6865C88.6369 17.6865 87.6455 18.673 87.6455 19.8899C87.6455 21.1067 88.6369 22.0932 89.8597 22.0932Z" fill="white"/>
<path d="M102.284 19.8899C102.284 20.3256 102.154 20.7516 101.911 21.114C101.667 21.4763 101.322 21.7587 100.917 21.9255C100.512 22.0923 100.067 22.1359 99.6377 22.0509C99.2082 21.9659 98.8137 21.756 98.504 21.4479C98.1943 21.1397 97.9835 20.7471 97.898 20.3197C97.8126 19.8923 97.8564 19.4493 98.024 19.0467C98.1916 18.6441 98.4754 18.3 98.8395 18.0579C99.2036 17.8158 99.6317 17.6865 100.07 17.6865C100.657 17.6865 101.22 17.9187 101.635 18.3319C102.051 18.7451 102.284 19.3055 102.284 19.8899Z" fill="white"/>
<path d="M329.936 225.752H295.492C293.604 225.752 291.792 226.499 290.456 227.828C289.121 229.157 288.37 230.96 288.37 232.84V252.866C288.37 254.745 289.121 256.548 290.456 257.877C291.792 259.206 293.604 259.953 295.492 259.953H302.246L296.587 271.08L307.031 259.953H329.899C331.788 259.953 333.599 259.206 334.935 257.877C336.271 256.548 337.021 254.745 337.021 252.866V232.791C337.008 230.926 336.257 229.141 334.931 227.824C333.604 226.506 331.81 225.762 329.936 225.752Z" fill="#0052CC"/>
<path opacity="0.2" d="M329.936 225.752H295.492C293.604 225.752 291.792 226.499 290.456 227.828C289.121 229.157 288.37 230.96 288.37 232.84V252.866C288.37 254.745 289.121 256.548 290.456 257.877C291.792 259.206 293.604 259.953 295.492 259.953H302.246L296.587 271.08L307.031 259.953H329.899C331.788 259.953 333.599 259.206 334.935 257.877C336.271 256.548 337.021 254.745 337.021 252.866V232.791C337.008 230.926 336.257 229.141 334.931 227.824C333.604 226.506 331.81 225.762 329.936 225.752Z" fill="white"/>
<path d="M322.954 245.791C324.177 245.791 325.169 244.805 325.169 243.588C325.169 242.371 324.177 241.384 322.954 241.384C321.732 241.384 320.74 242.371 320.74 243.588C320.74 244.805 321.732 245.791 322.954 245.791Z" fill="white"/>
<path d="M312.723 245.791C313.946 245.791 314.937 244.805 314.937 243.588C314.937 242.371 313.946 241.384 312.723 241.384C311.5 241.384 310.509 242.371 310.509 243.588C310.509 244.805 311.5 245.791 312.723 245.791Z" fill="white"/>
<path d="M302.513 245.791C303.736 245.791 304.727 244.805 304.727 243.588C304.727 242.371 303.736 241.384 302.513 241.384C301.29 241.384 300.299 242.371 300.299 243.588C300.299 244.805 301.29 245.791 302.513 245.791Z" fill="white"/>
</svg>
