<svg width="365" height="345" viewBox="0 0 365 345" fill="none" xmlns="http://www.w3.org/2000/svg">
<path d="M39.8647 139.575L62.2326 123.941L47.2804 144.704L39.8647 139.575Z" fill="#0052CC"/>
<path d="M62.2325 123.941L36.9354 136.101L29.5215 130.979L62.2325 123.941Z" fill="#0052CC"/>
<path d="M36.9368 136.102L38.9823 144.025L39.8659 139.575L62.2338 123.941L36.9368 136.102Z" fill="#0052CC"/>
<path opacity="0.25" d="M36.9368 136.102L38.9823 144.025L39.8659 139.575L62.2338 123.941L36.9368 136.102Z" fill="black"/>
<path d="M38.9828 144.025L42.3402 141.284L39.8664 139.574L38.9828 144.025Z" fill="#0052CC"/>
<path opacity="0.25" d="M39.8652 139.574L42.339 141.284L41.7994 141.717L39.8652 139.574Z" fill="black"/>
<path d="M34.3939 144.195C34.3013 144.218 34.2021 144.204 34.1115 144.155C34.021 144.106 33.9441 144.024 33.8928 143.923C33.8415 143.822 33.8186 143.707 33.8277 143.595C33.8368 143.484 33.8774 143.382 33.9432 143.306C34.3589 142.832 34.7838 142.371 35.2096 141.959C35.2519 141.917 35.3018 141.886 35.3563 141.868C35.4108 141.85 35.4689 141.845 35.527 141.855C35.5851 141.864 35.6421 141.886 35.6946 141.921C35.7471 141.956 35.794 142.002 35.8326 142.057C35.9119 142.165 35.954 142.302 35.9498 142.438C35.9457 142.573 35.8954 142.697 35.8102 142.781C35.3939 143.183 34.9863 143.618 34.5838 144.074C34.5328 144.135 34.467 144.177 34.3939 144.195Z" fill="#8E8E8E"/>
<path d="M41.1651 190.126C41.0718 190.152 40.9704 190.138 40.8795 190.085C39.7267 189.467 38.6169 188.727 37.565 187.874C37.4664 187.792 37.3961 187.669 37.369 187.534C37.3419 187.399 37.3602 187.261 37.42 187.151C37.4498 187.096 37.489 187.049 37.5355 187.014C37.582 186.979 37.6349 186.955 37.691 186.944C37.7471 186.934 37.8055 186.937 37.8627 186.953C37.9199 186.969 37.9749 186.998 38.0245 187.038C39.0275 187.854 40.0854 188.564 41.1844 189.159C41.2693 189.205 41.3421 189.281 41.3928 189.374C41.4435 189.468 41.4696 189.575 41.4675 189.681C41.4653 189.787 41.4351 189.886 41.381 189.966C41.3268 190.046 41.2514 190.102 41.1651 190.126ZM35.494 185.688C35.4241 185.707 35.3496 185.704 35.2775 185.68C35.2054 185.656 35.1381 185.611 35.0819 185.55C34.1408 184.531 33.271 183.425 32.4826 182.243C32.4421 182.188 32.4111 182.125 32.3915 182.057C32.372 181.989 32.3643 181.919 32.3691 181.85C32.3738 181.781 32.3908 181.716 32.4191 181.658C32.4473 181.599 32.4861 181.55 32.533 181.512C32.5772 181.471 32.6289 181.442 32.6848 181.426C32.7408 181.41 32.7999 181.408 32.8586 181.42C32.9174 181.431 32.9746 181.456 33.0269 181.494C33.0791 181.531 33.1254 181.58 33.1629 181.637C33.9204 182.768 34.7542 183.828 35.655 184.806C35.7386 184.902 35.79 185.03 35.7984 185.161C35.8067 185.293 35.7714 185.419 35.6999 185.512C35.6537 185.6 35.5806 185.662 35.494 185.688ZM31.1739 179.443C31.0813 179.467 30.9817 179.454 30.8909 179.404C30.8002 179.355 30.7235 179.272 30.6731 179.17C30.0124 177.883 29.4299 176.547 28.9304 175.176C28.8834 175.046 28.8808 174.904 28.9231 174.781C28.9654 174.659 29.0492 174.565 29.156 174.521C29.2083 174.499 29.2649 174.489 29.3225 174.493C29.38 174.497 29.4373 174.514 29.4911 174.544C29.5449 174.573 29.5941 174.614 29.6358 174.665C29.6775 174.716 29.7109 174.775 29.7341 174.839C30.2228 176.154 30.7907 177.433 31.4334 178.665C31.4943 178.788 31.5141 178.929 31.4885 179.059C31.4629 179.189 31.3939 179.297 31.2962 179.361C31.2569 179.389 31.2131 179.407 31.1669 179.416L31.1739 179.443ZM28.291 171.657L27.8595 171.769C27.4973 170.366 27.2123 168.945 27.0065 167.515C26.997 167.447 26.999 167.379 27.0122 167.315C27.0255 167.25 27.0498 167.19 27.0837 167.139C27.1177 167.087 27.1606 167.045 27.21 167.015C27.2594 166.984 27.3143 166.966 27.3716 166.962C27.4284 166.956 27.4867 166.963 27.543 166.984C27.5992 167.005 27.6524 167.038 27.6994 167.082C27.7464 167.126 27.7862 167.18 27.8166 167.24C27.847 167.301 27.8673 167.367 27.8763 167.434C28.0713 168.812 28.3448 170.181 28.6949 171.531L28.291 171.657ZM27.2811 164.457C27.2456 164.474 27.2078 164.483 27.169 164.486C27.1117 164.484 27.0544 164.468 27.0006 164.439C26.9467 164.41 26.8973 164.37 26.8554 164.32C26.8135 164.27 26.7798 164.211 26.7565 164.147C26.7331 164.084 26.7205 164.016 26.7194 163.949C26.6731 162.513 26.7262 161.085 26.8783 159.679C26.8928 159.545 26.9528 159.427 27.0452 159.353C27.1375 159.279 27.2546 159.253 27.3707 159.282C27.4868 159.311 27.5924 159.393 27.6643 159.508C27.7361 159.624 27.7683 159.764 27.7538 159.898C27.6149 161.248 27.569 162.619 27.6166 163.997C27.6105 164.108 27.5739 164.21 27.5121 164.288C27.4504 164.366 27.3669 164.416 27.2741 164.431L27.2811 164.457ZM28.0052 156.889C27.9272 156.909 27.8439 156.9 27.7658 156.865C27.6565 156.82 27.5626 156.729 27.504 156.61C27.4454 156.491 27.4267 156.354 27.4519 156.228C27.7662 154.888 28.1651 153.585 28.6453 152.329C28.6933 152.208 28.7822 152.119 28.8924 152.081C29.0026 152.044 29.125 152.06 29.2328 152.128C29.3405 152.195 29.4248 152.308 29.467 152.441C29.5093 152.574 29.506 152.717 29.458 152.838C28.9973 154.058 28.6171 155.325 28.3204 156.628C28.2883 156.696 28.2424 156.752 28.1865 156.793C28.1305 156.833 28.0661 156.857 27.9982 156.862L28.0052 156.889ZM30.4943 150.021C30.4098 150.043 30.3193 150.034 30.2348 149.995C30.1502 149.955 30.0754 149.888 30.0202 149.802C29.9649 149.715 29.9318 149.613 29.9251 149.51C29.9183 149.406 29.9384 149.305 29.9825 149.22C30.5824 148.034 31.2506 146.902 31.983 145.831C32.0556 145.737 32.1589 145.683 32.2715 145.68C32.384 145.677 32.497 145.725 32.5871 145.815C32.6772 145.904 32.7374 146.028 32.7552 146.161C32.773 146.293 32.747 146.424 32.6826 146.527C31.9727 147.557 31.3233 148.646 30.7384 149.786C30.6839 149.893 30.5939 149.968 30.4873 149.994L30.4943 150.021Z" fill="#8E8E8E"/>
<path d="M45.8011 191.923C45.7416 191.939 45.679 191.94 45.6169 191.927C45.0171 191.781 44.4198 191.597 43.8415 191.395C43.7294 191.353 43.632 191.262 43.5701 191.142C43.5083 191.022 43.4869 190.882 43.5107 190.753C43.5344 190.624 43.6013 190.515 43.6971 190.451C43.7929 190.386 43.9098 190.37 44.0229 190.407C44.581 190.601 45.1524 190.776 45.7207 190.917C45.7787 190.931 45.8349 190.957 45.8859 190.996C45.9369 191.035 45.9817 191.084 46.0177 191.142C46.0537 191.199 46.0802 191.264 46.0956 191.331C46.111 191.399 46.115 191.468 46.1074 191.535C46.0964 191.631 46.0617 191.718 46.0073 191.787C45.953 191.856 45.8813 191.903 45.8011 191.923Z" fill="#8E8E8E"/>
<path d="M233.813 65.5617L249.705 45.1954L259.305 46.307L233.813 65.5617Z" fill="#0052CC"/>
<path d="M233.814 65.5626L246.52 43.9723L241.347 39.6785L233.814 65.5626Z" fill="#0052CC"/>
<path d="M246.519 43.9719L247.548 47.9571L233.813 65.5623L246.519 43.9719Z" fill="#0052CC"/>
<path opacity="0.25" d="M246.519 43.9719L247.548 47.9571L233.813 65.5623L246.519 43.9719Z" fill="black"/>
<path d="M249.283 42.8913C249.198 42.9131 249.108 42.9039 249.023 42.8647C248.939 42.8256 248.864 42.7584 248.809 42.6719C248.754 42.5854 248.72 42.4836 248.714 42.3798C248.707 42.276 248.727 42.175 248.771 42.09C249.188 41.2848 249.547 40.4359 249.843 39.5514C249.888 39.4346 249.97 39.3464 250.074 39.3049C250.177 39.2634 250.294 39.2718 250.4 39.3283C250.506 39.3849 250.593 39.4852 250.643 39.6087C250.693 39.7322 250.702 39.8693 250.668 39.9918C250.357 40.9305 249.977 41.8306 249.534 42.6829C249.478 42.789 249.389 42.8633 249.283 42.8913ZM251.14 37.0482C251.074 37.0635 251.004 37.0619 250.935 37.0435C250.822 37.0083 250.72 36.923 250.653 36.806C250.586 36.689 250.558 36.5496 250.577 36.4181C250.761 35.1255 250.814 33.7986 250.734 32.4643C250.728 32.3272 250.768 32.1976 250.845 32.1027C250.922 32.0079 251.03 31.9552 251.146 31.9556C251.204 31.9575 251.262 31.9728 251.317 32.0006C251.372 32.0285 251.422 32.0683 251.466 32.1178C251.509 32.1674 251.544 32.2256 251.569 32.2892C251.595 32.3529 251.609 32.4206 251.613 32.4886C251.696 33.9067 251.639 35.3167 251.442 36.6901C251.428 36.7813 251.393 36.8641 251.341 36.9296C251.288 36.9951 251.22 37.0408 251.143 37.0616L251.14 37.0482ZM250.84 29.5647C250.783 29.5765 250.725 29.5748 250.667 29.5596C250.609 29.5444 250.553 29.5161 250.503 29.4763C250.453 29.4365 250.409 29.386 250.374 29.3278C250.339 29.2695 250.313 29.2047 250.299 29.1371C250.23 28.8678 250.16 28.5985 250.089 28.3225C249.82 27.285 249.48 26.268 249.071 25.2824C249.044 25.2195 249.028 25.1521 249.023 25.0841C249.018 25.0161 249.025 24.9489 249.043 24.8863C249.061 24.8237 249.089 24.7669 249.126 24.7192C249.164 24.6716 249.21 24.6339 249.261 24.6085C249.366 24.5584 249.488 24.561 249.599 24.6155C249.711 24.6701 249.803 24.7723 249.857 24.9C250.287 25.9396 250.646 27.0118 250.929 28.1055C251.004 28.395 251.079 28.6844 251.152 28.9672C251.18 29.102 251.164 29.2399 251.106 29.3516C251.047 29.4632 250.952 29.5397 250.84 29.5647ZM248.057 22.514C247.97 22.5369 247.877 22.5267 247.79 22.4848C247.703 22.4429 247.627 22.3713 247.572 22.2801C246.891 21.1301 246.127 20.0463 245.29 19.0423C245.243 18.9929 245.204 18.9336 245.176 18.8679C245.148 18.8023 245.131 18.7317 245.127 18.6607C245.123 18.5897 245.131 18.5197 245.151 18.4551C245.171 18.3906 245.203 18.3328 245.245 18.2855C245.286 18.2381 245.336 18.2022 245.392 18.18C245.447 18.1578 245.507 18.1498 245.568 18.1564C245.628 18.163 245.688 18.1842 245.744 18.2185C245.799 18.2529 245.849 18.2997 245.89 18.356C246.767 19.4075 247.568 20.5417 248.283 21.7448C248.322 21.8038 248.35 21.8706 248.367 21.9409C248.383 22.0111 248.388 22.0834 248.379 22.1531C248.371 22.2228 248.35 22.2884 248.318 22.3457C248.286 22.4029 248.243 22.4507 248.193 22.486C248.149 22.5008 248.101 22.5058 248.054 22.5005L248.057 22.514ZM243.446 16.8111C243.381 16.8285 243.312 16.8272 243.245 16.8072C243.177 16.7872 243.113 16.7491 243.058 16.696C242.109 15.8225 241.11 15.0289 240.072 14.3219C239.969 14.2476 239.891 14.1307 239.857 13.9969C239.822 13.8631 239.833 13.7234 239.888 13.6084C239.942 13.4935 240.035 13.4128 240.147 13.384C240.258 13.3553 240.379 13.3808 240.482 13.455C241.556 14.1845 242.587 15.0057 243.567 15.9112C243.653 15.9998 243.71 16.1199 243.728 16.2482C243.745 16.3764 243.722 16.5036 243.662 16.6047C243.613 16.6996 243.536 16.7679 243.443 16.7977L243.446 16.8111ZM237.718 12.7756C237.627 12.7985 237.529 12.786 237.44 12.7397C236.353 12.17 235.244 11.6771 234.118 11.2638C234.008 11.2202 233.913 11.1307 233.851 11.0132C233.79 10.8957 233.767 10.7591 233.787 10.6311C233.814 10.5056 233.883 10.4016 233.978 10.3408C234.074 10.28 234.189 10.2671 234.3 10.3047C235.461 10.7296 236.605 11.2378 237.724 11.8262C237.826 11.8846 237.909 11.9838 237.956 12.1043C238.004 12.2248 238.013 12.358 237.982 12.4777C237.96 12.5477 237.925 12.6096 237.879 12.6588C237.832 12.7081 237.776 12.7434 237.714 12.7621L237.718 12.7756ZM193.17 22.1943C193.077 22.2192 192.977 22.2065 192.886 22.1581C192.795 22.1098 192.717 22.0287 192.665 21.9273C192.613 21.8259 192.589 21.7101 192.598 21.5978C192.607 21.4856 192.647 21.3833 192.714 21.3069C193.515 20.3819 194.364 19.4806 195.235 18.6383C195.321 18.5551 195.435 18.5186 195.552 18.5369C195.669 18.5552 195.779 18.6268 195.858 18.736C195.937 18.8451 195.978 18.9828 195.973 19.1188C195.968 19.2548 195.916 19.378 195.83 19.4612C194.973 20.2857 194.142 21.1678 193.36 22.0735C193.309 22.1345 193.243 22.1763 193.17 22.1943ZM231.458 10.3418C231.397 10.3591 231.331 10.3589 231.267 10.341C230.12 10.0196 228.955 9.74587 227.802 9.54088C227.745 9.53031 227.688 9.50665 227.637 9.47124C227.585 9.43583 227.539 9.38937 227.501 9.33451C227.463 9.27966 227.433 9.21748 227.415 9.15152C227.397 9.08557 227.389 9.01714 227.393 8.95012C227.397 8.88311 227.412 8.81884 227.438 8.76097C227.463 8.70311 227.499 8.65278 227.543 8.61287C227.586 8.57296 227.637 8.54424 227.691 8.52836C227.746 8.51248 227.804 8.50975 227.862 8.52031C229.035 8.73443 230.229 9.00768 231.395 9.33146C231.495 9.35769 231.587 9.42281 231.656 9.5159C231.726 9.609 231.767 9.72442 231.775 9.84282C231.782 9.96123 231.755 10.0754 231.697 10.1663C231.64 10.2571 231.555 10.3191 231.458 10.3418ZM197.894 17.5711C197.811 17.5928 197.722 17.5837 197.638 17.5451C197.554 17.5065 197.48 17.44 197.426 17.3546C197.387 17.2978 197.358 17.2335 197.34 17.1653C197.322 17.0972 197.316 17.0267 197.321 16.9581C197.327 16.8895 197.345 16.8242 197.373 16.7662C197.402 16.7082 197.441 16.6587 197.488 16.6206C198.409 15.8586 199.376 15.1351 200.351 14.4452C200.399 14.4047 200.454 14.377 200.513 14.364C200.572 14.3509 200.634 14.3528 200.694 14.3695C200.755 14.3862 200.813 14.4173 200.865 14.4609C200.917 14.5044 200.961 14.5595 200.995 14.6225C201.03 14.6855 201.053 14.7551 201.064 14.8267C201.075 14.8984 201.073 14.9706 201.058 15.0387C201.043 15.1067 201.017 15.1692 200.979 15.2221C200.942 15.2749 200.895 15.317 200.841 15.3456C199.881 16.0028 198.934 16.7138 198.034 17.4633C197.985 17.5082 197.928 17.538 197.865 17.55L197.894 17.5711ZM225.008 9.13509L224.884 9.16693C223.732 9.05523 222.561 8.99117 221.409 8.99441C221.351 8.99423 221.293 8.98066 221.237 8.95446C221.182 8.92827 221.131 8.88997 221.087 8.84175C221.042 8.79353 221.006 8.73633 220.979 8.67343C220.952 8.61052 220.936 8.54313 220.931 8.47512C220.926 8.4071 220.932 8.33979 220.95 8.27702C220.967 8.21425 220.995 8.15726 221.033 8.10929C221.07 8.06132 221.116 8.02332 221.167 7.99746C221.219 7.9716 221.275 7.95837 221.332 7.95855C222.528 7.95864 223.704 8.02126 224.882 8.14063C224.986 8.15456 225.085 8.21035 225.162 8.29827C225.24 8.38618 225.29 8.50062 225.306 8.62155C225.322 8.74248 225.301 8.8622 225.247 8.95977C225.194 9.05734 225.111 9.12655 225.013 9.15529L225.008 9.13509ZM203.212 13.8574C203.109 13.8819 202.999 13.8605 202.902 13.797C202.804 13.7336 202.727 13.6326 202.685 13.513C202.642 13.3934 202.637 13.2635 202.67 13.1477C202.703 13.0319 202.773 12.9382 202.865 12.8842C203.88 12.2992 204.935 11.754 206.005 11.2694C206.058 11.2398 206.116 11.2239 206.176 11.2225C206.236 11.2211 206.297 11.2343 206.354 11.2613C206.412 11.2883 206.465 11.3285 206.511 11.3794C206.557 11.4304 206.594 11.4909 206.62 11.5572C206.646 11.6236 206.661 11.6944 206.663 11.7652C206.666 11.836 206.655 11.9052 206.633 11.9687C206.611 12.0322 206.578 12.0885 206.535 12.1341C206.493 12.1797 206.442 12.2137 206.386 12.2338C205.315 12.7184 204.304 13.2453 203.304 13.8193C203.276 13.8387 203.245 13.8516 203.212 13.8574ZM218.603 9.05802L218.542 9.07393C217.4 9.16759 216.254 9.3127 215.128 9.51022C215.014 9.53097 214.894 9.49699 214.794 9.41575C214.694 9.33452 214.622 9.21269 214.594 9.07706C214.566 8.94143 214.585 8.80312 214.645 8.69254C214.706 8.58197 214.804 8.50819 214.917 8.48745C216.062 8.29232 217.22 8.14431 218.391 8.05015C218.5 8.04384 218.611 8.08598 218.701 8.16829C218.792 8.2506 218.856 8.36711 218.88 8.49489C218.905 8.62267 218.889 8.75247 218.835 8.85874C218.781 8.965 218.693 9.04005 218.588 9.06909L218.603 9.05802ZM208.984 11.1609C208.874 11.1951 208.753 11.1751 208.647 11.1053C208.542 11.0356 208.461 10.9218 208.422 10.7891C208.383 10.6563 208.389 10.5155 208.439 10.3975C208.49 10.2795 208.58 10.194 208.69 10.1599C209.783 9.76277 210.916 9.40558 212.043 9.11476C212.154 9.08598 212.275 9.11156 212.378 9.1859C212.481 9.26023 212.559 9.37721 212.593 9.51112C212.628 9.64502 212.617 9.78487 212.562 9.8999C212.508 10.0149 212.415 10.0957 212.303 10.1245C211.182 10.4139 210.075 10.7571 209.023 11.1508L208.984 11.1609Z" fill="#8E8E8E"/>
<path d="M79.372 315.195C144.704 353.883 250.62 353.891 315.99 315.195C381.361 276.499 381.315 213.776 315.99 175.088C250.665 136.4 144.743 136.4 79.41 175.088C14.0776 213.776 14.0472 276.507 79.372 315.195Z" fill="#F1F1F1"/>
<path d="M308.586 197.566C298.437 202.405 281.957 202.405 271.815 197.566C261.673 192.727 261.658 184.875 271.815 180.067C281.972 175.259 298.444 175.228 308.586 180.067C318.728 184.906 318.743 192.72 308.586 197.566Z" fill="#EAF2F2"/>
<path d="M65.3013 266.188L148.338 314.121C149.359 314.638 150.488 314.908 151.633 314.908C152.777 314.908 153.906 314.638 154.927 314.121L312.137 223.338C313.956 222.288 313.956 220.584 312.137 219.534L229.1 171.602C228.081 171.081 226.951 170.809 225.806 170.809C224.66 170.809 223.531 171.081 222.512 171.602L65.3013 262.384C63.4829 263.434 63.4829 265.138 65.3013 266.188Z" fill="#37474F"/>
<path d="M111.521 287.462C112.936 288.179 114.5 288.552 116.086 288.552C117.673 288.552 119.236 288.179 120.651 287.462C123.177 286.001 123.177 283.658 120.651 282.174C119.235 281.461 117.672 281.09 116.086 281.09C114.501 281.09 112.937 281.461 111.521 282.174C108.995 283.635 108.995 286.001 111.521 287.462Z" fill="#263238"/>
<path d="M148.339 314.121L65.3022 266.189C63.674 265.245 63.5066 263.784 64.7925 262.734C63.9803 263.377 63.3126 264.183 62.8328 265.101C62.353 266.018 62.0719 267.027 62.0078 268.06V271.157C62.0703 272.3 62.4011 273.412 62.9734 274.403C63.5458 275.395 64.3436 276.237 65.3022 276.863L148.339 324.795C149.354 325.325 150.489 325.587 151.634 325.556V314.912C150.486 314.934 149.352 314.662 148.339 314.121Z" fill="#455A64"/>
<path d="M312.137 234.042C313.096 233.416 313.894 232.574 314.466 231.582C315.039 230.591 315.369 229.479 315.432 228.336V225.216C315.369 224.183 315.088 223.174 314.608 222.256C314.128 221.338 313.46 220.532 312.647 219.891C313.933 220.941 313.766 222.401 312.137 223.337L154.927 314.119C153.912 314.649 152.778 314.91 151.633 314.88V325.646C152.778 325.676 153.912 325.414 154.927 324.885L312.137 234.042Z" fill="#263238"/>
<path d="M165.138 302.404L88.7125 258.276C87.6245 257.652 87.6245 256.625 88.7125 255.993L214.5 183.372C215.112 183.061 215.789 182.898 216.475 182.898C217.161 182.898 217.838 183.061 218.449 183.372L294.905 227.5C295.993 228.132 295.993 229.151 294.905 229.783L169.064 302.472C168.449 302.768 167.774 302.916 167.093 302.904C166.411 302.892 165.741 302.721 165.138 302.404Z" fill="#FAFAFA"/>
<path d="M158.906 291.677L101.083 258.269C99.9878 257.637 99.9878 256.618 101.083 255.986L103.305 254.7C103.918 254.389 104.596 254.227 105.283 254.227C105.971 254.227 106.648 254.389 107.261 254.7L165.084 288.108C166.18 288.732 166.18 289.759 165.084 290.391L162.855 291.677C162.243 291.987 161.567 292.148 160.881 292.148C160.195 292.148 159.518 291.987 158.906 291.677Z" fill="#E6E6E6"/>
<path d="M164.962 294.026L169.17 291.599C169.429 291.462 169.731 291.428 170.014 291.506C170.297 291.584 170.539 291.767 170.691 292.018L172.639 295.396C172.951 295.944 172.708 296.286 172.084 296.157L165.137 294.818C164.475 294.696 164.414 294.346 164.962 294.026Z" fill="#0052CC"/>
<path d="M211.876 192C213.314 191.272 214.902 190.893 216.514 190.893C218.125 190.893 219.713 191.272 221.151 192C223.715 193.476 223.707 195.873 221.151 197.326C219.713 198.054 218.125 198.433 216.514 198.433C214.902 198.433 213.314 198.054 211.876 197.326C209.32 195.88 209.32 193.484 211.876 192Z" fill="#E6E6E6"/>
<path d="M270.171 223.871C271.259 224.502 271.259 225.522 270.171 226.153L258.667 232.826C258.054 233.137 257.377 233.299 256.689 233.299C256.002 233.299 255.324 233.137 254.711 232.826L218.488 211.918C217.4 211.287 217.4 210.267 218.488 209.636L228.873 203.64L225.784 198.314L270.171 223.871Z" fill="#E6E6E6"/>
<path d="M232.349 206.411L264.373 224.899C264.913 225.211 265.012 225.659 264.586 225.918C264.303 226.034 263.997 226.083 263.692 226.061C263.387 226.038 263.091 225.945 262.828 225.789L230.805 207.301C230.257 206.989 230.166 206.54 230.592 206.289C230.874 206.171 231.18 206.12 231.485 206.141C231.79 206.163 232.086 206.255 232.349 206.411Z" fill="#FAFAFA"/>
<path d="M229.252 208.206L261.268 226.694C261.816 227.006 261.915 227.454 261.489 227.713C261.205 227.83 260.897 227.878 260.591 227.856C260.285 227.834 259.988 227.74 259.724 227.584L227.708 209.096C227.16 208.784 227.061 208.335 227.487 208.084C227.771 207.966 228.078 207.915 228.384 207.936C228.691 207.957 228.988 208.05 229.252 208.206Z" fill="#FAFAFA"/>
<path d="M226.157 210L258.172 228.489C258.72 228.801 258.819 229.249 258.393 229.508C258.109 229.625 257.802 229.673 257.495 229.651C257.189 229.629 256.892 229.535 256.628 229.379L224.612 210.891C224.064 210.579 223.966 210.13 224.392 209.879C224.675 209.761 224.982 209.71 225.289 209.731C225.595 209.752 225.892 209.845 226.157 210Z" fill="#FAFAFA"/>
<path d="M205.713 263.396C207.15 262.668 208.739 262.289 210.35 262.289C211.961 262.289 213.55 262.668 214.987 263.396C217.544 264.872 217.544 267.269 214.987 268.722C213.551 269.454 211.962 269.835 210.35 269.835C208.738 269.835 207.149 269.454 205.713 268.722C203.179 267.269 203.179 264.872 205.713 263.396Z" fill="#E6E6E6"/>
<path d="M194.894 258.938L184.501 264.948C183.889 265.259 183.213 265.422 182.526 265.422C181.84 265.422 181.164 265.259 180.552 264.948L144.306 244.025C143.21 243.394 143.21 242.374 144.306 241.743L155.817 235.108C156.429 234.797 157.106 234.635 157.792 234.635C158.478 234.635 159.155 234.797 159.766 235.108L204.168 260.741L194.894 258.938Z" fill="#E6E6E6"/>
<path d="M158.04 238.532L190.055 257.02C190.603 257.332 190.702 257.781 190.276 258.032C189.992 258.15 189.685 258.2 189.379 258.179C189.073 258.158 188.775 258.066 188.511 257.91L156.495 239.422C155.947 239.11 155.848 238.661 156.274 238.41C156.558 238.292 156.865 238.241 157.171 238.262C157.478 238.284 157.775 238.376 158.04 238.532Z" fill="#FAFAFA"/>
<path d="M154.935 240.328L186.958 258.817C187.506 259.128 187.597 259.577 187.171 259.828C186.889 259.946 186.583 259.997 186.278 259.976C185.973 259.955 185.677 259.862 185.414 259.707L153.39 241.196C152.85 240.884 152.751 240.435 153.177 240.184C153.461 240.069 153.768 240.023 154.073 240.048C154.378 240.073 154.673 240.169 154.935 240.328Z" fill="#FAFAFA"/>
<path d="M151.84 242.123L183.863 260.612C184.403 260.923 184.502 261.372 184.076 261.623C183.794 261.741 183.488 261.792 183.183 261.771C182.878 261.75 182.582 261.658 182.318 261.502L150.295 243.014C149.747 242.702 149.656 242.253 150.082 242.002C150.364 241.884 150.67 241.833 150.975 241.854C151.28 241.875 151.576 241.968 151.84 242.123Z" fill="#FAFAFA"/>
<path d="M168.607 216.986C170.043 216.254 171.632 215.873 173.244 215.873C174.856 215.873 176.445 216.254 177.881 216.986C180.445 218.462 180.445 220.859 177.881 222.312C176.444 223.04 174.855 223.419 173.244 223.419C171.633 223.419 170.044 223.04 168.607 222.312C166.05 220.859 166.05 218.462 168.607 216.986Z" fill="#E6E6E6"/>
<path d="M217.636 243.478C218.724 244.109 218.724 245.129 217.636 245.76L209.168 250.614C208.555 250.926 207.877 251.088 207.19 251.088C206.502 251.088 205.825 250.926 205.212 250.614L178.255 235.109C177.167 234.477 177.167 233.458 178.255 232.826L185.613 228.619L182.516 223.293L217.636 243.478Z" fill="#E6E6E6"/>
<path d="M190.246 230.338L213.459 243.736C214.006 244.055 214.105 244.497 213.679 244.755C213.395 244.871 213.089 244.92 212.783 244.899C212.477 244.878 212.18 244.787 211.914 244.634L188.671 231.228C188.123 230.908 188.024 230.467 188.45 230.208C188.739 230.087 189.051 230.035 189.363 230.058C189.676 230.08 189.978 230.176 190.246 230.338Z" fill="#FAFAFA"/>
<path d="M187.111 232.133L210.331 245.531C210.879 245.851 210.978 246.292 210.552 246.551C210.268 246.666 209.961 246.716 209.655 246.695C209.349 246.673 209.052 246.583 208.787 246.429L185.566 233.023C185.026 232.703 184.927 232.262 185.353 232.004C185.636 231.887 185.942 231.838 186.247 231.861C186.552 231.883 186.848 231.976 187.111 232.133Z" fill="#FAFAFA"/>
<path d="M184.013 233.928L207.234 247.326C207.782 247.646 207.873 248.087 207.447 248.345C207.164 248.461 206.859 248.51 206.554 248.489C206.249 248.468 205.953 248.377 205.689 248.224L182.469 234.818C181.921 234.498 181.83 234.057 182.256 233.798C182.539 233.682 182.845 233.633 183.15 233.656C183.455 233.678 183.751 233.771 184.013 233.928Z" fill="#FAFAFA"/>
<path d="M245.892 240.199C247.329 239.471 248.918 239.092 250.529 239.092C252.14 239.092 253.729 239.471 255.166 240.199C257.723 241.683 257.723 244.079 255.166 245.525C253.729 246.253 252.14 246.632 250.529 246.632C248.918 246.632 247.329 246.253 245.892 245.525C243.328 244.079 243.328 241.683 245.892 240.199Z" fill="#E6E6E6"/>
<path d="M235.075 235.739L230.875 238.151C230.262 238.462 229.584 238.625 228.897 238.625C228.209 238.625 227.531 238.462 226.918 238.151L209.267 227.956C208.179 227.324 208.179 226.305 209.267 225.673L214.593 222.63C215.206 222.319 215.884 222.156 216.571 222.156C217.259 222.156 217.936 222.319 218.549 222.63L244.418 237.55L235.075 235.739Z" fill="#E6E6E6"/>
<path d="M217.248 224.457L232.738 233.405C233.286 233.717 233.385 234.166 232.959 234.417C232.675 234.535 232.368 234.585 232.062 234.564C231.756 234.543 231.458 234.451 231.194 234.295L215.703 225.348C215.155 225.036 215.064 224.587 215.49 224.336C215.772 224.218 216.078 224.167 216.383 224.188C216.689 224.209 216.985 224.302 217.248 224.457Z" fill="#FAFAFA"/>
<path d="M214.151 226.282L229.641 235.229C230.189 235.541 230.28 235.99 229.854 236.241C229.572 236.359 229.266 236.409 228.961 236.388C228.656 236.367 228.36 236.275 228.097 236.119L212.606 227.172C212.059 226.86 211.96 226.411 212.386 226.16C212.669 226.042 212.976 225.991 213.283 226.013C213.589 226.034 213.886 226.126 214.151 226.282Z" fill="#FAFAFA"/>
<path d="M122.257 243.744C123.693 243.016 125.28 242.637 126.89 242.637C128.5 242.637 130.088 243.016 131.524 243.744C134.088 245.228 134.088 247.624 131.524 249.07C130.088 249.798 128.5 250.177 126.89 250.177C125.28 250.177 123.693 249.798 122.257 249.07C119.693 247.624 119.693 245.228 122.257 243.744Z" fill="#E6E6E6"/>
<path d="M158.855 263.131C159.943 263.762 159.943 264.782 158.855 265.413L153.529 268.494C152.916 268.806 152.238 268.968 151.551 268.968C150.863 268.968 150.185 268.806 149.572 268.494L135.041 260.064C133.953 259.433 133.953 258.413 135.041 257.782L139.225 255.347L136.136 250.021L158.855 263.131Z" fill="#E6E6E6"/>
<path d="M143.698 256.922L155.551 263.77C156.099 264.082 156.198 264.531 155.772 264.782C155.489 264.9 155.182 264.95 154.875 264.929C154.569 264.908 154.272 264.816 154.007 264.66L142.153 257.813C141.605 257.501 141.507 257.052 141.933 256.801C142.216 256.682 142.523 256.632 142.83 256.653C143.136 256.674 143.433 256.766 143.698 256.922Z" fill="#FAFAFA"/>
<path d="M140.601 258.694L152.454 265.541C153.002 265.853 153.101 266.302 152.667 266.553C152.385 266.671 152.079 266.722 151.774 266.701C151.469 266.679 151.173 266.587 150.91 266.431L139.049 259.584C138.508 259.272 138.409 258.823 138.836 258.572C139.119 258.454 139.426 258.403 139.732 258.425C140.039 258.446 140.336 258.538 140.601 258.694Z" fill="#FAFAFA"/>
<path d="M264.243 199.457C264.556 199.614 264.901 199.697 265.251 199.697C265.601 199.697 265.947 199.614 266.259 199.457C266.384 199.418 266.493 199.341 266.571 199.237C266.648 199.132 266.69 199.005 266.69 198.875C266.69 198.744 266.648 198.617 266.571 198.513C266.493 198.408 266.384 198.331 266.259 198.293C265.948 198.131 265.602 198.047 265.251 198.047C264.9 198.047 264.555 198.131 264.243 198.293C264.118 198.331 264.009 198.408 263.932 198.513C263.854 198.617 263.812 198.744 263.812 198.875C263.812 199.005 263.854 199.132 263.932 199.237C264.009 199.341 264.118 199.418 264.243 199.457Z" fill="#263238"/>
<path d="M267.469 208.616C268.096 208.931 268.788 209.095 269.489 209.095C270.191 209.095 270.882 208.931 271.509 208.616C272.62 207.969 272.62 206.927 271.509 206.28C270.882 205.965 270.191 205.801 269.489 205.801C268.788 205.801 268.096 205.965 267.469 206.28C266.328 206.957 266.328 207.969 267.469 208.616Z" fill="#263238"/>
<path d="M264.624 204.552C265.384 204.126 265.324 203.404 264.532 202.947L251.248 195.278C250.82 195.052 250.346 194.93 249.862 194.92C249.379 194.911 248.9 195.015 248.464 195.225C247.703 195.658 247.764 196.373 248.555 196.83L261.839 204.507C262.266 204.735 262.741 204.859 263.226 204.867C263.71 204.875 264.189 204.767 264.624 204.552Z" fill="#263238"/>
<path d="M101.633 206.488L97.4176 204.053C97.3339 204.018 97.2642 203.957 97.2198 203.878L96.459 202.524L98.9621 201.078L98.886 201.299L101.633 206.488Z" fill="#0052CC"/>
<path opacity="0.2" d="M101.633 206.488L97.4176 204.053C97.3339 204.018 97.2642 203.957 97.2198 203.878L96.459 202.524L98.9621 201.078L98.886 201.299L101.633 206.488Z" fill="black"/>
<path d="M98.5664 201.283L101.488 206.335C101.53 206.403 101.59 206.457 101.662 206.493C101.733 206.528 101.813 206.542 101.892 206.534C101.971 206.526 102.047 206.496 102.11 206.448C102.173 206.399 102.221 206.334 102.249 206.259L105.338 197.365L98.5664 201.283Z" fill="#0052CC"/>
<path d="M160.345 137.518C160.314 136.812 160.116 136.122 159.769 135.506C159.421 134.89 158.933 134.365 158.344 133.973L156.685 133.014C156.054 132.692 155.355 132.523 154.646 132.523C153.937 132.523 153.239 132.692 152.607 133.014L86.2402 171.307C85.6462 171.693 85.1519 172.214 84.7976 172.827C84.4433 173.441 84.2389 174.129 84.2012 174.837V200.621C84.2401 201.329 84.445 202.017 84.7992 202.63C85.1534 203.243 85.6471 203.765 86.2402 204.152L87.9064 205.11C88.5374 205.429 89.2346 205.595 89.9416 205.595C90.6487 205.595 91.3458 205.429 91.9768 205.11L158.496 166.688C160.33 165.639 160.345 164.596 160.345 163.295V137.518Z" fill="#0052CC"/>
<path opacity="0.2" d="M84.1641 200.637C84.203 201.344 84.4079 202.032 84.7621 202.645C85.1163 203.259 85.61 203.78 86.2031 204.167L87.8693 205.126C88.4439 205.415 89.073 205.579 89.7155 205.608C90.3579 205.637 90.9992 205.529 91.5974 205.293C90.6387 205.658 89.9083 205.11 89.9083 203.946V178.162C89.9337 177.453 90.1378 176.762 90.5018 176.153L84.7651 172.844C84.3947 173.45 84.1877 174.142 84.1641 174.852V200.637Z" fill="black"/>
<path opacity="0.4" d="M160.276 136.94C160.04 136.073 159.249 135.799 158.306 136.339L91.9385 174.632C91.3375 175.006 90.8445 175.53 90.5081 176.153L84.7715 172.844C85.1128 172.222 85.6079 171.698 86.2095 171.322L152.561 133.029C153.196 132.712 153.895 132.547 154.604 132.547C155.313 132.547 156.013 132.712 156.647 133.029L158.344 133.973C158.851 134.31 159.283 134.747 159.615 135.258C159.948 135.768 160.173 136.34 160.276 136.94Z" fill="white"/>
<path d="M95.3872 178.611L153.781 144.83C154.466 144.435 155.021 144.617 155.021 145.234C154.97 145.613 154.831 145.976 154.616 146.293C154.401 146.609 154.115 146.872 153.781 147.06L95.4101 180.84C94.7253 181.236 94.1699 181.061 94.1699 180.445C94.2186 180.066 94.3537 179.704 94.5648 179.386C94.7759 179.068 95.0573 178.803 95.3872 178.611Z" fill="white"/>
<path d="M95.3866 190.116L143.753 162.186C144.43 161.79 144.985 161.973 144.985 162.582C144.934 162.961 144.797 163.324 144.583 163.642C144.369 163.96 144.085 164.225 143.753 164.415L95.3866 192.345C94.7019 192.741 94.1465 192.558 94.1465 191.942C94.1965 191.562 94.3347 191.199 94.55 190.882C94.7653 190.565 95.0518 190.303 95.3866 190.116Z" fill="white"/>
<path d="M95.3866 195.716L152.32 162.787C152.997 162.392 153.552 162.574 153.552 163.191C153.501 163.569 153.363 163.931 153.15 164.248C152.936 164.565 152.652 164.828 152.32 165.017L95.3866 197.945C94.7019 198.333 94.1465 198.158 94.1465 197.542C94.1965 197.162 94.3347 196.799 94.55 196.482C94.7653 196.165 95.0518 195.903 95.3866 195.716Z" fill="white"/>
<path d="M95.3866 184.234L152.32 151.305C152.997 150.917 153.552 151.092 153.552 151.709C153.501 152.088 153.364 152.451 153.15 152.769C152.936 153.087 152.652 153.352 152.32 153.542L95.3866 186.471C94.7019 186.867 94.1465 186.684 94.1465 186.068C94.1977 185.687 94.3362 185.324 94.5514 185.005C94.7665 184.687 95.0524 184.423 95.3866 184.234Z" fill="white"/>
<path d="M101.633 79.4974L97.4176 77.0627C97.3339 77.0283 97.2642 76.9666 97.2198 76.8877L96.459 75.5335L98.9621 74.0879L98.886 74.3085L101.633 79.4974Z" fill="#0052CC"/>
<path opacity="0.2" d="M101.633 79.4974L97.4176 77.0627C97.3339 77.0283 97.2642 76.9666 97.2198 76.8877L96.459 75.5335L98.9621 74.0879L98.886 74.3085L101.633 79.4974Z" fill="black"/>
<path d="M98.5664 74.295L101.488 79.3469C101.532 79.4121 101.592 79.4641 101.663 79.4976C101.734 79.531 101.813 79.5445 101.891 79.5367C101.969 79.5289 102.044 79.5 102.107 79.4532C102.17 79.4064 102.219 79.3434 102.249 79.2708L105.338 70.3691L98.5664 74.295Z" fill="#0052CC"/>
<path d="M153.476 21.0285C153.438 20.321 153.234 19.6325 152.879 19.019C152.525 18.4055 152.031 17.8844 151.437 17.4982L149.778 16.5396C149.147 16.217 148.448 16.0488 147.739 16.0488C147.03 16.0488 146.331 16.217 145.7 16.5396L86.2031 50.8758C85.6091 51.262 85.1148 51.783 84.7605 52.3965C84.4062 53.01 84.2018 53.6986 84.1641 54.406V73.6398C84.2018 74.3472 84.4062 75.0358 84.7605 75.6493C85.1148 76.2627 85.6091 76.7838 86.2031 77.17L87.8693 78.1287C88.4993 78.4512 89.1968 78.6193 89.9045 78.6193C90.6122 78.6193 91.3098 78.4512 91.9397 78.1287L151.627 43.6555C153.46 42.6056 153.476 41.5632 153.476 40.2622V21.0285Z" fill="#0052CC"/>
<path opacity="0.2" d="M84.1641 73.6408C84.2018 74.3482 84.4062 75.0368 84.7605 75.6503C85.1148 76.2637 85.6091 76.7848 86.2031 77.171L87.8693 78.1297C88.4433 78.4198 89.0722 78.5854 89.7146 78.6155C90.3571 78.6457 90.9987 78.5398 91.5974 78.3047C90.6387 78.6622 89.9083 78.1144 89.9083 76.958V57.7166C89.9337 57.0078 90.1378 56.3168 90.5018 55.708L84.7651 52.3984C84.3957 53.0053 84.1887 53.697 84.1641 54.407V73.6408Z" fill="black"/>
<path opacity="0.4" d="M153.406 20.4499C153.17 19.5825 152.379 19.3086 151.435 19.8488L91.9385 54.1926C91.3357 54.5646 90.8421 55.0896 90.5081 55.7143L84.7715 52.4047C85.1105 51.7812 85.6061 51.2568 86.2095 50.883L145.691 16.5392C146.325 16.2219 147.025 16.0566 147.734 16.0566C148.443 16.0566 149.143 16.2219 149.777 16.5392L151.435 17.4979C151.947 17.8308 152.385 18.2642 152.724 18.7716C153.062 19.279 153.295 19.85 153.406 20.4499Z" fill="white"/>
<path d="M95.3866 63.1165L136.875 39.1428C137.559 38.7472 138.115 38.9298 138.115 39.546C138.063 39.9253 137.923 40.2874 137.708 40.6041C137.493 40.9208 137.208 41.1836 136.875 41.372L95.3866 65.3457C94.7019 65.7414 94.1465 65.5588 94.1465 64.9501C94.1977 64.5695 94.3362 64.2059 94.5514 63.8878C94.7665 63.5697 95.0524 63.3057 95.3866 63.1165Z" fill="white"/>
<path d="M95.3858 68.7167L145.41 39.7444C146.095 39.3487 146.651 39.5313 146.651 40.1476C146.599 40.5272 146.461 40.8898 146.246 41.2067C146.03 41.5235 145.744 41.7861 145.41 41.9736L95.3554 70.946C94.6706 71.3416 94.1152 71.159 94.1152 70.5427C94.1697 70.1602 94.3129 69.7959 94.5336 69.4788C94.7542 69.1617 95.0461 68.9007 95.3858 68.7167Z" fill="white"/>
<path d="M95.3866 57.2444L145.411 28.272C146.096 27.8764 146.651 28.0514 146.651 28.6676C146.6 29.0483 146.462 29.4119 146.246 29.73C146.031 30.0481 145.745 30.3121 145.411 30.5012L95.3866 59.4736C94.7019 59.8692 94.1465 59.6866 94.1465 59.0703C94.1976 58.6907 94.3363 58.3282 94.5515 58.0113C94.7667 57.6944 95.0526 57.4319 95.3866 57.2444Z" fill="white"/>
<path d="M201.431 53.22L197.216 50.7854C197.133 50.7509 197.063 50.6893 197.019 50.6104L196.258 49.2561L198.761 47.8105L198.67 48.0008L201.431 53.22Z" fill="#263238"/>
<path d="M198.363 48.0001L201.285 53.052C201.329 53.1172 201.389 53.1692 201.46 53.2026C201.531 53.2361 201.61 53.2496 201.688 53.2418C201.766 53.234 201.841 53.2051 201.904 53.1583C201.967 53.1115 202.016 53.0484 202.046 52.9759L205.135 44.0742L198.363 48.0001Z" fill="#37474F"/>
<path d="M212.127 21.0585C212.083 20.3569 211.875 19.6756 211.519 19.0691C211.164 18.4626 210.671 17.9479 210.081 17.5663L208.422 16.6076C207.789 16.2915 207.091 16.127 206.383 16.127C205.675 16.127 204.977 16.2915 204.344 16.6076L147.814 49.1407C147.22 49.5269 146.726 50.0479 146.372 50.6614C146.017 51.2749 145.813 51.9635 145.775 52.6709V69.4091C145.813 70.1166 146.017 70.8051 146.372 71.4186C146.726 72.0321 147.22 72.5532 147.814 72.9394L149.473 73.898C150.104 74.2206 150.803 74.3888 151.512 74.3888C152.221 74.3888 152.92 74.2206 153.551 73.898L210.279 41.1824C212.112 40.1401 212.127 39.0901 212.127 37.7891V21.0585Z" fill="#37474F"/>
<path d="M145.775 69.3857C145.813 70.0932 146.017 70.7817 146.372 71.3952C146.726 72.0087 147.22 72.5297 147.814 72.9159L149.473 73.8746C150.047 74.1647 150.676 74.3303 151.318 74.3605C151.961 74.3906 152.602 74.2847 153.201 74.0496C152.242 74.4072 151.512 73.8594 151.512 72.7029V55.9647C151.537 55.2547 151.744 54.5629 152.113 53.9561L146.376 50.6465C146.007 51.2533 145.8 51.9451 145.775 52.6551V69.3857Z" fill="#263238"/>
<path d="M212.06 20.4811C211.824 19.6138 211.032 19.3399 210.089 19.8801L153.552 52.4588C152.947 52.8305 152.451 53.3555 152.114 53.9804L146.385 50.6708C146.721 50.0478 147.214 49.5234 147.815 49.1492L204.345 16.5705C204.979 16.2531 205.678 16.0879 206.388 16.0879C207.097 16.0879 207.796 16.2531 208.43 16.5705L210.081 17.5672C210.591 17.8941 211.029 18.3209 211.369 18.8217C211.709 19.3225 211.944 19.887 212.06 20.4811Z" fill="#455A64"/>
<path d="M156.99 57.1994L195.526 34.9832C196.211 34.5952 196.767 34.7702 196.767 35.3864C196.717 35.7664 196.578 36.1294 196.363 36.4465C196.148 36.7636 195.861 37.0258 195.526 37.2124L156.99 59.4134C156.313 59.8014 155.758 59.6264 155.758 59.0102C155.81 58.6338 155.948 58.2745 156.162 57.9604C156.376 57.6462 156.659 57.3858 156.99 57.1994Z" fill="#0052CC"/>
<path d="M156.99 62.79L204.101 35.5904C204.778 35.1947 205.333 35.3697 205.333 35.986C205.283 36.3657 205.145 36.7287 204.931 37.0466C204.717 37.3646 204.433 37.6291 204.101 37.8196L156.99 65.0268C156.313 65.4148 155.758 65.2399 155.758 64.6236C155.809 64.2438 155.946 63.8809 156.16 63.563C156.374 63.245 156.658 62.9805 156.99 62.79Z" fill="#0052CC"/>
<path d="M101.633 140.454L97.4176 138.02C97.3339 137.985 97.2642 137.924 97.2198 137.845L96.459 136.49L98.9621 135.045L98.886 135.266L101.633 140.454Z" fill="#0052CC"/>
<path opacity="0.2" d="M101.633 140.454L97.4176 138.02C97.3339 137.985 97.2642 137.924 97.2198 137.845L96.459 136.49L98.9621 135.045L98.886 135.266L101.633 140.454Z" fill="black"/>
<path d="M98.5664 135.252L101.488 140.304C101.531 140.37 101.591 140.422 101.662 140.456C101.732 140.49 101.811 140.504 101.889 140.497C101.967 140.49 102.042 140.462 102.105 140.416C102.168 140.37 102.218 140.308 102.249 140.236L105.338 131.334L98.5664 135.252Z" fill="#0052CC"/>
<path d="M130.08 94.4559C130.041 93.7487 129.837 93.0606 129.482 92.4473C129.128 91.834 128.634 91.3128 128.041 90.9257L126.39 89.967C125.757 89.6509 125.059 89.4863 124.351 89.4863C123.644 89.4863 122.945 89.6509 122.312 89.967L86.2109 110.791C85.6178 111.178 85.1241 111.699 84.7699 112.313C84.4157 112.926 84.2108 113.614 84.1719 114.321V134.605C84.2108 135.312 84.4157 136 84.7699 136.613C85.1241 137.227 85.6178 137.748 86.2109 138.135L87.8771 139.094C88.5081 139.413 89.2053 139.579 89.9123 139.579C90.6194 139.579 91.3165 139.413 91.9476 139.094L128.239 118.125C130.073 117.083 130.088 116.033 130.088 114.74L130.08 94.4559Z" fill="#0052CC"/>
<path opacity="0.2" d="M84.1641 134.605C84.203 135.312 84.4079 136 84.7621 136.613C85.1163 137.227 85.61 137.748 86.2031 138.135L87.8693 139.094C88.4439 139.383 89.073 139.547 89.7155 139.576C90.3579 139.605 90.9992 139.497 91.5974 139.261C90.6387 139.626 89.9083 139.078 89.9083 137.914V117.638C89.9327 116.929 90.1369 116.238 90.5018 115.63L84.7651 112.312C84.3957 112.919 84.1887 113.611 84.1641 114.321V134.605Z" fill="black"/>
<path opacity="0.4" d="M130.01 93.8777C129.775 93.0103 128.983 92.7364 128.047 93.2766L91.9385 114.108C91.3357 114.48 90.8421 115.005 90.5081 115.63L84.7715 112.32C85.1105 111.697 85.6061 111.172 86.2095 110.799L122.303 89.967C122.936 89.6509 123.634 89.4863 124.342 89.4863C125.05 89.4863 125.748 89.6509 126.381 89.967L128.047 90.9333C128.557 91.2651 128.994 91.6973 129.332 92.2035C129.669 92.7097 129.9 93.2794 130.01 93.8777Z" fill="white"/>
<path d="M95.3858 124.083L113.456 113.614C114.133 113.226 114.688 113.401 114.688 114.017C114.637 114.397 114.5 114.76 114.286 115.078C114.072 115.396 113.788 115.66 113.456 115.851L95.3554 126.312C94.6706 126.708 94.1152 126.525 94.1152 125.909C94.1685 125.526 94.3113 125.161 94.5321 124.844C94.7529 124.527 95.0454 124.266 95.3858 124.083Z" fill="white"/>
<path d="M95.3866 129.682L122.054 114.192C122.738 113.796 123.286 113.979 123.286 114.595C123.237 114.974 123.1 115.337 122.886 115.654C122.672 115.971 122.387 116.233 122.054 116.421L95.3866 131.881C94.7019 132.269 94.1465 132.094 94.1465 131.478C94.201 131.103 94.3412 130.746 94.5563 130.435C94.7714 130.123 95.0556 129.866 95.3866 129.682Z" fill="white"/>
<path d="M95.3866 118.202L122.054 102.78C122.738 102.392 123.286 102.567 123.286 103.183C123.237 103.564 123.1 103.927 122.886 104.245C122.672 104.564 122.387 104.828 122.054 105.017L95.3866 120.431C94.7019 120.827 94.1465 120.644 94.1465 120.036C94.1977 119.655 94.3362 119.291 94.5514 118.973C94.7665 118.655 95.0524 118.391 95.3866 118.202Z" fill="white"/>
<path d="M205.515 162.277L203.704 158.869L205.165 154.661V152.082L200.699 154.661V157.24L202.617 160.558C202.645 160.611 202.691 160.654 202.746 160.679L205.515 162.277Z" fill="#0052CC"/>
<path d="M205.516 162.262L202.77 160.68C202.717 160.655 202.672 160.615 202.64 160.566L202.123 159.668L203.523 158.861L205.44 162.179C205.461 162.21 205.487 162.238 205.516 162.262Z" fill="#EAF2F2"/>
<path d="M212.554 139.042C212.524 138.583 212.387 138.138 212.155 137.742C211.922 137.346 211.6 137.009 211.215 136.759L210.119 136.128C209.706 135.918 209.248 135.809 208.784 135.809C208.32 135.809 207.863 135.918 207.449 136.128L182.212 150.713C181.827 150.963 181.505 151.299 181.272 151.696C181.04 152.092 180.903 152.537 180.873 152.995V166.051C180.903 166.51 181.04 166.955 181.272 167.351C181.505 167.747 181.827 168.084 182.212 168.334L183.3 168.965C183.715 169.175 184.174 169.285 184.639 169.285C185.104 169.285 185.563 169.175 185.978 168.965L203.523 158.839L205.44 162.156C205.467 162.205 205.507 162.245 205.556 162.271C205.606 162.297 205.661 162.308 205.717 162.302C205.772 162.296 205.825 162.274 205.867 162.239C205.91 162.203 205.942 162.156 205.958 162.103L207.981 156.259L211.215 154.388C211.604 154.133 211.929 153.79 212.161 153.387C212.394 152.984 212.528 152.532 212.554 152.067V139.042Z" fill="#E6E6E6"/>
<path d="M180.873 166.042C180.903 166.5 181.04 166.945 181.272 167.342C181.505 167.738 181.827 168.074 182.212 168.324L183.3 168.956C183.678 169.146 184.091 169.254 184.514 169.273C184.936 169.291 185.357 169.219 185.75 169.062C185.118 169.306 184.639 168.948 184.639 168.188V155.162C184.657 154.698 184.79 154.245 185.027 153.846L181.261 151.67C181.024 152.069 180.891 152.522 180.873 152.986V166.042Z" fill="#EAF2F2"/>
<path d="M212.508 138.659C212.348 138.089 211.831 137.899 211.215 138.264L185.978 152.849C185.58 153.09 185.254 153.435 185.035 153.846L181.23 151.67C181.454 151.262 181.779 150.919 182.174 150.673L207.403 136.088C207.82 135.884 208.278 135.777 208.742 135.777C209.206 135.777 209.664 135.884 210.081 136.088L211.177 136.719C211.52 136.934 211.815 137.218 212.044 137.551C212.273 137.885 212.431 138.262 212.508 138.659Z" fill="#F0F0F0"/>
<path d="M192.011 155.375C191.491 155.713 191.058 156.169 190.747 156.706C190.436 157.242 190.257 157.845 190.223 158.464C190.223 159.605 190.983 160.069 192.011 159.499C192.53 159.159 192.963 158.701 193.274 158.164C193.584 157.626 193.764 157.022 193.799 156.402C193.799 155.269 192.992 154.805 192.011 155.375Z" fill="white"/>
<path d="M198.593 151.564C198.073 151.904 197.64 152.361 197.33 152.899C197.019 153.437 196.839 154.04 196.805 154.66C196.805 155.794 197.611 156.258 198.593 155.687C199.113 155.349 199.546 154.894 199.856 154.357C200.167 153.82 200.347 153.218 200.381 152.598C200.381 151.472 199.582 150.993 198.593 151.564Z" fill="white"/>
<path d="M205.181 147.752C204.66 148.091 204.227 148.549 203.916 149.087C203.605 149.625 203.426 150.228 203.393 150.849C203.393 151.99 204.191 152.447 205.181 151.884C205.699 151.543 206.131 151.086 206.44 150.548C206.749 150.01 206.928 149.407 206.961 148.787C206.961 147.669 206.162 147.189 205.181 147.752Z" fill="white"/>
<path d="M201.514 109.986L198.752 104.797L200.974 98.3829V94.457L194.172 98.3829V102.309L197.101 107.376C197.145 107.455 197.215 107.516 197.299 107.551L201.514 109.986Z" fill="#0052CC"/>
<path d="M197.292 107.551C197.206 107.517 197.134 107.456 197.087 107.376L196.326 106.022L198.456 104.789L201.378 109.833C201.412 109.898 201.462 109.953 201.523 109.993L197.292 107.551Z" fill="#263238"/>
<path d="M212.197 74.584C212.158 73.8768 211.953 73.1887 211.599 72.5754C211.244 71.9621 210.751 71.4408 210.158 71.0538L208.499 70.0647C207.866 69.7485 207.168 69.584 206.46 69.584C205.752 69.584 205.054 69.7485 204.421 70.0647L153.445 99.4783C152.851 99.8645 152.357 100.386 152.003 100.999C151.648 101.613 151.444 102.301 151.406 103.009V122.889C151.448 123.597 151.654 124.285 152.008 124.899C152.362 125.513 152.854 126.036 153.445 126.427L155.104 127.385C155.737 127.702 156.435 127.866 157.143 127.866C157.851 127.866 158.549 127.702 159.182 127.385L198.441 104.751L201.355 109.803C201.398 109.868 201.459 109.92 201.53 109.953C201.601 109.987 201.68 110 201.758 109.993C201.836 109.985 201.911 109.956 201.974 109.909C202.036 109.862 202.086 109.799 202.116 109.727L205.197 100.833L210.119 97.9719C210.712 97.5843 211.206 97.0629 211.56 96.4497C211.914 95.8365 212.119 95.1487 212.159 94.4416L212.197 74.584Z" fill="#37474F"/>
<path d="M163.807 105.602L206.132 81.0959C206.816 80.7003 207.372 80.8829 207.372 81.4992C207.321 81.8788 207.182 82.2413 206.967 82.5582C206.752 82.8751 206.466 83.1377 206.132 83.3252L163.807 107.831C163.13 108.227 162.574 108.052 162.574 107.436C162.625 107.056 162.763 106.693 162.977 106.375C163.19 106.057 163.474 105.793 163.807 105.602Z" fill="#0052CC"/>
<path d="M163.807 111.203L196.119 92.5471C196.804 92.1515 197.359 92.3341 197.359 92.9503C197.309 93.3303 197.171 93.6933 196.956 94.0104C196.74 94.3275 196.454 94.5898 196.119 94.7763L163.807 113.432C163.13 113.827 162.574 113.645 162.574 113.036C162.625 112.656 162.763 112.294 162.977 111.976C163.19 111.658 163.474 111.393 163.807 111.203Z" fill="#0052CC"/>
<path d="M163.807 116.801L204.694 93.1473C205.371 92.7592 205.926 92.9342 205.926 93.5505C205.875 93.9302 205.738 94.2931 205.524 94.6111C205.31 94.9291 205.026 95.1936 204.694 95.3841L163.807 119.031C163.13 119.426 162.574 119.244 162.574 118.627C162.625 118.249 162.763 117.887 162.977 117.57C163.19 117.253 163.475 116.99 163.807 116.801Z" fill="#0052CC"/>
<path d="M151.414 122.92C151.456 123.628 151.662 124.316 152.016 124.93C152.37 125.544 152.862 126.067 153.453 126.458L155.112 127.417C155.688 127.706 156.319 127.869 156.962 127.897C157.606 127.924 158.249 127.815 158.847 127.577C157.881 127.942 157.151 127.402 157.151 126.238V106.349C157.175 105.639 157.382 104.948 157.752 104.341L152.015 101.031C151.646 101.638 151.439 102.33 151.414 103.04V122.92Z" fill="#263238"/>
<path d="M212.129 74.0046C211.893 73.1373 211.102 72.8634 210.158 73.4036L159.183 102.825C158.578 103.197 158.082 103.721 157.745 104.346L152.016 101.037C152.352 100.414 152.845 99.8894 153.446 99.5152L204.422 70.094C205.055 69.7778 205.753 69.6133 206.461 69.6133C207.168 69.6133 207.866 69.7778 208.5 70.094L210.166 71.0602C210.675 71.3924 211.112 71.8247 211.45 72.3308C211.787 72.837 212.018 73.4064 212.129 74.0046Z" fill="#455A64"/>
<path d="M306.143 126.631C305.131 124.16 303.1 122.044 300.389 120.637C299.865 120.383 293.05 117.211 291.536 116.506C291.019 116.264 290.477 116.059 289.917 115.894C286.655 114.953 282.737 115.546 278.163 117.672C271.057 121.044 265.11 125.8 260.865 131.505C256.284 137.471 252.87 143.971 250.742 150.777C248.655 157.151 247.563 163.711 247.492 170.304C247.492 177.079 248.521 182.302 250.579 185.971C251.697 188.297 253.679 190.286 256.252 191.665C257.044 192.041 263.649 195.099 265.07 195.777C265.848 196.153 266.693 196.432 267.575 196.605C270.976 197.283 274.696 196.68 278.734 194.798C281.858 193.252 284.667 191.326 287.063 189.086C290.02 186.429 292.498 183.448 294.425 180.231L291.443 175.564L283.964 173.531C285.369 171.739 286.573 169.85 287.564 167.885C287.698 168.543 288.002 169.172 288.455 169.729C288.908 170.287 289.502 170.761 290.196 171.122C290.852 171.379 291.58 171.488 292.306 171.438C293.032 171.389 293.727 171.182 294.32 170.84C297.116 169.541 299.604 167.273 301.787 164.036C304.112 160.478 305.821 156.678 306.865 152.744C308.056 148.498 308.662 144.159 308.671 139.805C308.847 135.325 307.989 130.858 306.143 126.631ZM278.606 153.168L278.28 156.715C278.163 158.571 277.254 160.337 275.705 161.712C275.823 160.285 276.108 158.87 276.556 157.487C277.04 155.994 277.728 154.548 278.606 153.177V153.168ZM271.046 181.925C269.389 182.735 267.56 183.287 265.652 183.553C265.524 183.337 265.385 183.139 265.268 182.913C264.012 180.375 263.303 177.683 263.171 174.952C263.428 175.084 270.906 178.575 272.187 179.168C272.377 179.259 272.576 179.338 272.781 179.403C273.407 179.602 274.079 179.688 274.75 179.657C273.621 180.522 272.379 181.286 271.046 181.935V181.925ZM287.948 131.665L280.831 134.987L280.213 137.81L277.138 136.37C279.651 134.087 282.601 132.142 285.875 130.611C287.404 129.859 289.077 129.315 290.825 129.002C290.953 129.238 291.082 129.473 291.198 129.717C291.819 131.046 292.26 132.425 292.514 133.83L287.948 131.665Z" fill="#0052CC"/>
<path d="M294.798 156.931C294.798 157.26 294.74 157.702 294.74 158.258C294.74 160.036 295.241 160.695 296.231 160.234C297.467 159.434 298.383 158.357 298.863 157.138C299.861 155.134 300.583 153.048 301.018 150.918C301.587 148.296 301.864 145.638 301.845 142.976C301.958 139.866 301.366 136.766 300.098 133.829C298.925 131.388 297.151 129.82 294.775 129.124C292.398 128.427 289.432 128.923 285.875 130.611C280.025 133.373 275.251 137.406 272.095 142.251C268.806 147.053 266.416 152.222 265.001 157.59C263.783 161.994 263.116 166.487 263.009 170.999C263.009 176.237 263.762 180.212 265.269 182.922C266.775 185.632 268.794 187.2 271.326 187.627C273.85 188.047 276.692 187.523 279.853 186.055C282.095 184.949 284.105 183.561 285.805 181.943C287.922 179.977 289.809 177.857 291.443 175.61L294.425 180.249C292.499 183.466 290.021 186.447 287.063 189.104C284.668 191.343 281.858 193.27 278.734 194.816C274.704 196.698 270.984 197.3 267.575 196.623C264.166 195.945 261.448 193.772 259.421 190.102C257.371 186.432 256.346 181.209 256.346 174.434C256.397 167.827 257.473 161.251 259.549 154.861C261.682 148.056 265.096 141.556 269.672 135.589C273.944 129.89 279.915 125.147 287.04 121.793C291.548 119.667 295.474 119.102 298.689 120.043C301.904 120.984 304.431 123.205 306.109 126.63C307.955 130.857 308.812 135.324 308.637 139.804C308.64 144.189 308.038 148.56 306.843 152.837C305.798 156.772 304.089 160.571 301.764 164.13C299.582 167.367 297.093 169.635 294.297 170.933C293.704 171.275 293.009 171.482 292.283 171.531C291.558 171.581 290.829 171.472 290.173 171.215C289.479 170.855 288.886 170.38 288.432 169.822C287.979 169.265 287.675 168.637 287.541 167.978C286.395 170.258 284.962 172.437 283.266 174.481C281.958 176.214 280.187 177.69 278.082 178.8C277.319 179.236 276.44 179.521 275.516 179.634C274.591 179.747 273.647 179.684 272.759 179.449C271.198 178.96 269.975 177.756 269.066 175.836C268.061 173.354 267.604 170.748 267.715 168.138C267.705 164.348 268.277 160.571 269.416 156.893C270.42 153.53 272.042 150.308 274.226 147.332C275.898 144.903 278.302 142.854 281.216 141.376C283.301 140.435 284.885 140.124 285.945 140.538C287.202 141.132 288.19 142.036 288.764 143.117L289.614 139.136L296.743 135.814L294.798 156.931ZM284.512 165.852C285.597 164.262 286.46 162.58 287.087 160.836C287.943 158.044 288.211 155.155 287.879 152.292C287.849 151.705 287.672 151.13 287.357 150.601C287.043 150.071 286.598 149.6 286.05 149.214C285.106 148.687 283.93 148.753 282.555 149.412C281.082 150.177 279.878 151.237 279.061 152.489C277.95 154.059 277.107 155.743 276.556 157.495C275.972 159.28 275.671 161.117 275.659 162.963C275.659 165.296 276.16 167.028 277.174 168.129C277.371 168.385 277.634 168.605 277.944 168.773C278.254 168.942 278.605 169.055 278.974 169.107C279.342 169.159 279.72 169.147 280.082 169.072C280.444 168.998 280.783 168.862 281.076 168.675C282.509 167.995 283.695 167.021 284.512 165.852Z" fill="#0052CC"/>
<path opacity="0.4" d="M280.83 134.996L289.636 139.108L296.765 135.786L287.947 131.674L280.83 134.996Z" fill="black"/>
<path opacity="0.5" d="M280.213 137.838L286.305 140.661C287.382 141.28 288.238 142.118 288.786 143.089L289.637 139.108L280.83 134.996L280.213 137.838Z" fill="black"/>
<path opacity="0.5" d="M269.088 175.8C268.079 173.318 267.618 170.713 267.725 168.102C267.717 164.295 268.292 160.503 269.438 156.81C269.884 155.365 270.432 153.942 271.08 152.547L267.329 150.797C266.362 153 265.583 155.254 265 157.544C263.775 161.948 263.103 166.441 262.996 170.953C262.996 172.356 263.054 173.664 263.159 174.887L272.152 179.103C270.703 178.309 269.624 177.146 269.088 175.8Z" fill="black"/>
<path opacity="0.4" d="M277.138 136.398C275.191 138.191 273.5 140.154 272.094 142.252C270.233 145.008 268.64 147.877 267.33 150.834L271.081 152.584C271.926 150.759 272.979 149.001 274.226 147.333C275.89 144.899 278.296 142.849 281.215 141.376C283.312 140.435 284.885 140.125 285.945 140.539L277.138 136.398Z" fill="black"/>
<path opacity="0.6" d="M287.878 152.292C288.183 155.156 287.915 158.041 287.086 160.836C286.464 162.585 285.596 164.271 284.5 165.861C283.683 167.028 282.502 168.001 281.075 168.684C280.78 168.87 280.441 169.003 280.078 169.076C279.716 169.149 279.339 169.16 278.971 169.108C278.603 169.055 278.253 168.941 277.943 168.773C277.633 168.604 277.371 168.385 277.173 168.129C276.159 167.028 275.658 165.306 275.658 162.953C275.658 162.549 275.658 162.125 275.658 161.711C276.823 160.77 277.848 159.368 278.233 156.724L278.559 153.176C278.687 152.96 278.838 152.734 278.99 152.527C279.804 151.273 281.008 150.213 282.484 149.45C283.894 148.791 285.07 148.725 285.979 149.261C286.534 149.636 286.989 150.097 287.315 150.618C287.642 151.139 287.833 151.709 287.878 152.292Z" fill="black"/>
<path opacity="0.4" d="M299.922 120.428C299.544 120.272 299.155 120.134 298.757 120.014C295.508 119.073 291.594 119.666 287.016 121.793C279.903 125.164 273.952 129.924 269.706 135.635C266.62 139.653 264.063 143.92 262.076 148.367L253.258 144.255C255.261 139.809 257.825 135.543 260.911 131.523C265.156 125.814 271.103 121.055 278.209 117.68C282.783 115.554 286.701 114.961 289.963 115.902C290.52 116.07 291.061 116.271 291.582 116.504C292.863 117.134 298.233 119.638 299.922 120.428Z" fill="white"/>
<path opacity="0.5" d="M291.442 175.564C289.811 177.815 287.923 179.938 285.805 181.907C284.112 183.525 282.106 184.91 279.864 186.01C276.711 187.484 273.865 188.011 271.325 187.59C268.996 187.205 267.108 185.859 265.652 183.535C267.56 183.269 269.389 182.716 271.046 181.907C272.378 181.257 273.62 180.494 274.75 179.629C275.942 179.56 277.095 179.252 278.105 178.735C280.214 177.627 281.987 176.147 283.288 174.407L283.987 173.541L291.442 175.564Z" fill="black"/>
<path opacity="0.15" d="M264.744 195.626L256.24 191.674C253.672 190.293 251.694 188.305 250.579 185.981C248.521 182.311 247.492 177.091 247.492 170.322C247.564 163.727 248.652 157.165 250.731 150.787C251.441 148.566 252.256 146.383 253.212 144.256L262.041 148.368C261.086 150.495 260.259 152.678 259.549 154.899C257.465 161.273 256.378 167.833 256.31 174.425C256.31 181.188 257.335 186.41 259.386 190.093C260.473 192.316 262.334 194.238 264.744 195.626Z" fill="black"/>
<path opacity="0.6" d="M301.809 142.975C301.821 145.637 301.544 148.295 300.982 150.917C300.562 153.049 299.847 155.135 298.85 157.137C298.378 158.357 297.465 159.435 296.229 160.233C295.228 160.694 294.738 160.036 294.738 158.257C294.729 157.818 294.748 157.378 294.797 156.94L294.96 155.142L296.765 135.786L292.56 133.828C292.306 132.423 291.865 131.045 291.244 129.716C291.127 129.472 290.999 129.236 290.871 129.001C292.156 128.782 293.49 128.841 294.738 129.17C297.115 129.848 298.889 131.416 300.062 133.875C301.316 136.799 301.908 139.882 301.809 142.975Z" fill="black"/>
<path d="M334.727 288.8C334.73 288.782 334.73 288.764 334.727 288.746C334.73 288.728 334.73 288.71 334.727 288.693C334.731 288.669 334.731 288.645 334.727 288.621C334.719 288.594 334.706 288.569 334.69 288.545C334.625 288.426 334.53 288.324 334.412 288.25L334.365 288.223L334.317 288.197L296.565 267.514L296.49 267.479C295.818 267.13 295.06 266.96 294.295 266.987H294.219C293.566 267.019 292.931 267.197 292.364 267.505L289.622 269.007L241.983 295.055L235.916 298.375C235.744 298.499 235.603 298.658 235.504 298.84C235.404 299.023 235.349 299.224 235.342 299.429V302.615C235.34 302.863 235.407 303.107 235.537 303.322C235.667 303.537 235.855 303.715 236.081 303.839L236.68 304.165L273.683 324.45C274.046 324.635 274.454 324.724 274.865 324.709C275.244 324.708 275.617 324.621 275.953 324.454L326.871 296.57L334.256 292.504L334.327 292.459L334.374 292.432C334.472 292.375 334.555 292.296 334.617 292.203C334.678 292.11 334.716 292.005 334.727 291.896C334.727 291.834 334.727 288.992 334.727 288.8Z" fill="#B0C9EF"/>
<path opacity="0.25" d="M274.134 324.602L274.219 324.629C274.317 324.649 274.416 324.664 274.516 324.674H274.737H274.827V321.577C274.428 321.586 274.034 321.496 273.682 321.318L236.08 300.721C235.841 300.594 235.645 300.405 235.514 300.176C235.384 299.948 235.323 299.689 235.341 299.43V302.602C235.339 302.85 235.406 303.094 235.536 303.309C235.666 303.524 235.854 303.703 236.08 303.826L236.679 304.152L273.682 324.45C273.764 324.497 273.851 324.536 273.941 324.567C274.004 324.583 274.069 324.595 274.134 324.602Z" fill="black"/>
<path opacity="0.15" d="M334.726 291.897C334.715 292.006 334.677 292.111 334.615 292.204C334.554 292.297 334.471 292.375 334.373 292.433L334.326 292.46L334.255 292.504L326.87 296.548L275.962 324.45C275.626 324.617 275.253 324.705 274.874 324.705H274.836V321.609C275.227 321.609 275.613 321.521 275.962 321.354L334.335 289.381L334.382 289.355C334.481 289.297 334.564 289.218 334.625 289.125C334.686 289.033 334.724 288.927 334.736 288.818C334.726 288.993 334.726 291.834 334.726 291.897Z" fill="black"/>
<path opacity="0.4" d="M334.725 288.802C334.714 288.911 334.676 289.016 334.615 289.109C334.553 289.202 334.47 289.28 334.372 289.338L334.325 289.364L326.864 293.453L296.026 310.346L275.961 321.324C275.609 321.493 275.22 321.581 274.826 321.581C274.431 321.581 274.042 321.493 273.691 321.324L273.045 320.971L244.233 305.19L236.697 301.057L236.098 300.731C235.864 300.604 235.67 300.418 235.54 300.193C235.409 299.968 235.347 299.714 235.359 299.458V299.431C235.368 299.229 235.423 299.032 235.52 298.853C235.618 298.674 235.756 298.517 235.924 298.394L241.991 295.075L289.611 268.995L292.352 267.494C292.919 267.185 293.555 267.007 294.208 266.975H294.241C295.006 266.948 295.765 267.118 296.436 267.467L296.512 267.503L334.254 288.158L334.302 288.185L334.349 288.212C334.467 288.286 334.562 288.387 334.627 288.507C334.643 288.53 334.656 288.556 334.664 288.583C334.668 288.606 334.668 288.63 334.664 288.654C334.668 288.672 334.668 288.69 334.664 288.708C334.693 288.733 334.714 288.766 334.725 288.802Z" fill="black"/>
<path d="M334.725 288.8C334.714 288.909 334.676 289.014 334.615 289.107C334.553 289.2 334.47 289.278 334.372 289.336L334.325 289.363L326.864 293.451L296.026 310.344L275.961 321.322C275.609 321.491 275.22 321.58 274.826 321.58C274.431 321.58 274.042 321.491 273.691 321.322L273.045 320.969L244.233 305.188L236.697 301.056L236.098 300.729C235.864 300.602 235.67 300.416 235.54 300.191C235.409 299.967 235.347 299.712 235.359 299.456V299.429C235.584 299.373 235.814 299.335 236.047 299.317L242.806 298.679L277.873 295.368L283.347 294.849C284.552 294.733 285.631 294.318 285.749 293.925L286.846 290.449L293.695 268.698L294.208 267.081V267.059C294.221 267.023 294.237 266.989 294.255 266.956C295.02 266.929 295.779 267.099 296.45 267.447L296.526 267.483L298.165 268.377L334.254 288.156L334.302 288.183L334.349 288.21C334.467 288.284 334.562 288.385 334.627 288.505C334.643 288.528 334.656 288.554 334.664 288.581C334.668 288.605 334.668 288.629 334.664 288.652C334.668 288.67 334.668 288.688 334.664 288.706C334.693 288.732 334.714 288.764 334.725 288.8Z" fill="#B0C9EF"/>
<path opacity="0.25" d="M334.256 289.408L334.322 289.363L334.369 289.341C334.483 289.281 334.577 289.19 334.639 289.081C334.701 288.971 334.728 288.847 334.717 288.723C334.707 288.6 334.659 288.481 334.58 288.382C334.501 288.284 334.393 288.208 334.27 288.166L286.814 290.445L326.851 293.452L334.256 289.408Z" fill="black"/>
<path opacity="0.25" d="M273.683 321.322C274.046 321.505 274.454 321.594 274.865 321.581C275.244 321.583 275.618 321.495 275.953 321.327L296.028 310.335L277.851 295.363L273.023 320.983L273.683 321.322Z" fill="black"/>
<path d="M334.726 288.805C334.713 288.913 334.675 289.018 334.614 289.111C334.552 289.204 334.47 289.282 334.372 289.341L334.325 289.363L275.961 321.323C275.626 321.491 275.252 321.579 274.873 321.577L278.17 292.795C278.307 291.602 281.194 290.619 284.943 290.489L334.726 288.805Z" fill="#B0C9EF"/>
<path opacity="0.25" d="M294.242 266.947L294.054 268.667L291.67 290.212V290.275L291.609 290.802L291.096 295.484C290.964 296.677 288.076 297.66 284.318 297.79L280.945 297.906L277.563 298.022H277.361L242.91 299.202L235.346 299.461V299.429C235.354 299.228 235.41 299.031 235.507 298.852C235.605 298.673 235.743 298.516 235.911 298.393L241.978 295.073L289.607 268.994L292.339 267.492C292.906 267.183 293.542 267.006 294.195 266.974L294.242 266.947Z" fill="black"/>
<path d="M294.219 266.953V267.051V267.074L293.937 268.678L290.197 290.289V290.33L290.136 290.691L289.448 294.668C289.255 295.794 286.622 296.723 283.117 296.902L279.966 297.067L277.687 297.188H277.545L242.878 299.038L235.342 299.44C235.351 299.238 235.406 299.041 235.503 298.862C235.601 298.683 235.739 298.526 235.907 298.403L241.974 295.083L289.603 269.004L292.335 267.503C292.908 267.179 293.554 266.99 294.219 266.953Z" fill="#B0C9EF"/>
</svg>
