<svg width="32" height="32" viewBox="0 0 32 32" fill="none" xmlns="http://www.w3.org/2000/svg">
<path d="M4 26V8C4 7.73478 4.10536 7.48043 4.29289 7.29289C4.48043 7.10536 4.73478 7 5 7H11.6663C11.8826 7 12.0932 7.07018 12.2662 7.2L16 10H25C25.2652 10 25.5196 10.1054 25.7071 10.2929C25.8946 10.4804 26 10.7348 26 11V14" stroke="#404040" stroke-width="2" stroke-linecap="round" stroke-linejoin="round"/>
<path d="M4 26L7.7725 14.6838C7.83888 14.4846 7.96623 14.3114 8.13651 14.1887C8.30678 14.066 8.51136 14 8.72125 14H29C29.1585 14 29.3147 14.0376 29.4557 14.1098C29.5968 14.182 29.7186 14.2867 29.8113 14.4153C29.904 14.5438 29.9647 14.6925 29.9886 14.8492C30.0125 15.0058 29.9989 15.1659 29.9487 15.3162L26.3862 26H4Z" stroke="#404040" stroke-width="2" stroke-linecap="round" stroke-linejoin="round"/>
</svg>
