<svg width="21" height="20" viewBox="0 0 21 20" fill="none" xmlns="http://www.w3.org/2000/svg">
<path d="M9.73672 4.375C9.36933 3.80006 8.86305 3.32692 8.2646 2.99922C7.66614 2.67153 6.9948 2.49984 6.3125 2.5C6.009 3.02473 5.82696 3.61081 5.77978 4.21515C5.7326 4.81948 5.82146 5.42671 6.03984 5.99219C5.6123 6.62179 5.38094 7.36398 5.375 8.125V8.75C5.375 9.74456 5.77009 10.6984 6.47335 11.4017C7.17661 12.1049 8.13044 12.5 9.125 12.5H12.875C13.8696 12.5 14.8234 12.1049 15.5267 11.4017C16.2299 10.6984 16.625 9.74456 16.625 8.75V8.125C16.6191 7.36398 16.3877 6.62179 15.9602 5.99219C16.1785 5.42671 16.2674 4.81948 16.2202 4.21515C16.173 3.61081 15.991 3.02473 15.6875 2.5C15.0052 2.49984 14.3339 2.67153 13.7354 2.99922C13.137 3.32692 12.6307 3.80006 12.2633 4.375H9.73672Z" stroke="#0052CC" stroke-width="2" stroke-linecap="round" stroke-linejoin="round"/>
<path d="M8.5 18.125V15C8.5 14.337 8.76339 13.7011 9.23223 13.2322C9.70107 12.7634 10.337 12.5 11 12.5C11.663 12.5 12.2989 12.7634 12.7678 13.2322C13.2366 13.7011 13.5 14.337 13.5 15V18.125" stroke="#0052CC" stroke-width="2" stroke-linecap="round" stroke-linejoin="round"/>
<path d="M8.5 16.25H6C5.33696 16.25 4.70107 15.9866 4.23223 15.5178C3.76339 15.0489 3.5 14.413 3.5 13.75C3.5 13.087 3.23661 12.4511 2.76777 11.9822C2.29893 11.5134 1.66304 11.25 1 11.25" stroke="#0052CC" stroke-width="2" stroke-linecap="round" stroke-linejoin="round"/>
</svg>
