<svg width="365" height="324" viewBox="0 0 365 324" fill="none" xmlns="http://www.w3.org/2000/svg">
<path d="M182.5 323.233C283.292 323.233 365 281.076 365 229.073C365 177.071 283.292 134.914 182.5 134.914C81.708 134.914 0 177.071 0 229.073C0 281.076 81.708 323.233 182.5 323.233Z" fill="#F1F1F1"/>
<path d="M96.4965 274.695L67.7541 257.482C66.7434 256.869 66.7434 255.889 67.7541 255.267L252.689 144.231C253.259 143.929 253.89 143.771 254.53 143.771C255.17 143.771 255.801 143.929 256.372 144.231L285.114 161.444C286.132 162.05 286.132 163.037 285.114 163.651L100.179 274.695C99.6089 274.997 98.978 275.155 98.3379 275.155C97.6979 275.155 97.0669 274.997 96.4965 274.695Z" fill="#EAF2F2"/>
<path d="M142.894 297.15L133.178 291.319C130.115 289.479 130.115 286.5 133.178 284.66L264.563 205.995C266.282 205.087 268.182 204.613 270.11 204.613C272.038 204.613 273.939 205.087 275.657 205.995L285.366 211.825C288.428 213.665 288.428 216.652 285.366 218.484L153.98 297.15C152.263 298.056 150.363 298.529 148.437 298.529C146.511 298.529 144.612 298.056 142.894 297.15Z" fill="#EAF2F2"/>
<path d="M83.3965 257.241L251.096 160.425V18.2363L83.3965 115.06V257.241Z" fill="#0052CC"/>
<path d="M76.5586 111.118L83.3958 115.061L251.096 18.2373L257.933 6.40039L76.5586 111.118Z" fill="#37474F"/>
<path d="M257.935 164.368V6.36914L251.098 18.2367V160.425L257.935 164.368Z" fill="#37474F"/>
<path d="M76.5586 111.117L83.3958 115.06V257.241L76.5586 269.086V111.117Z" fill="#37474F"/>
<path d="M83.3958 257.24L251.096 160.424L257.933 164.367L76.5586 269.085L83.3958 257.24Z" fill="#37474F"/>
<g opacity="0.5">
<path d="M76.5586 111.118L83.3958 115.061L251.096 18.2373L257.933 6.40039L76.5586 111.118Z" fill="#455A64"/>
</g>
<g opacity="0.5">
<path d="M83.3958 257.24L251.096 160.424L257.933 164.367L76.5586 269.085L83.3958 257.24Z" fill="#455A64"/>
</g>
<path d="M257.934 6.39945L253.371 3.76562L71.9961 108.483L76.5594 111.117L257.934 6.39945Z" fill="#455A64"/>
<path d="M71.9961 108.482L76.5594 111.116V269.085L71.9961 266.458V108.482Z" fill="#263238"/>
<g style="mix-blend-mode:multiply" opacity="0.1">
<path d="M251.096 18.2363L248.815 19.5532V159.108L83.3965 254.615V257.241L251.096 160.425V18.2363Z" fill="black"/>
</g>
<path opacity="0.2" d="M165.307 75.155V193.624C165.307 195.209 166.417 195.852 167.787 195.055L237.232 154.951C237.953 154.479 238.553 153.845 238.984 153.099C239.415 152.353 239.664 151.516 239.712 150.656V32.1562L165.307 75.155ZM174.594 79.6111C173.545 80.216 172.695 79.7259 172.695 78.5162C172.73 77.8566 172.92 77.2145 173.25 76.6423C173.58 76.0701 174.04 75.5841 174.594 75.2239C175.643 74.6191 176.493 75.1091 176.493 76.3188C176.452 76.9729 176.26 77.6084 175.93 78.1747C175.6 78.741 175.143 79.2224 174.594 79.5805V79.6111ZM183.782 74.2516C182.733 74.8564 181.883 74.3664 181.883 73.1567C181.919 72.4973 182.109 71.8557 182.439 71.2837C182.769 70.7117 183.229 70.2255 183.782 69.8644C184.831 69.2595 185.681 69.7495 185.681 70.9593C185.65 71.6155 185.466 72.2554 185.143 72.8274C184.82 73.3993 184.367 73.8872 183.82 74.2516H183.782ZM193.008 68.892C191.959 69.4969 191.109 69.0069 191.109 67.7971C191.145 67.1378 191.335 66.4961 191.665 65.9241C191.995 65.3521 192.455 64.8659 193.008 64.5049C194.057 63.9 194.907 64.39 194.907 65.5997C194.881 66.2612 194.699 66.9073 194.376 67.4849C194.052 68.0625 193.597 68.5552 193.046 68.9226L193.008 68.892ZM202.242 63.5325C201.193 64.145 200.343 63.6473 200.343 62.4376C200.38 61.7786 200.571 61.1373 200.9 60.5655C201.23 59.9937 201.69 59.5073 202.242 59.1453C203.29 58.5405 204.14 59.0305 204.14 60.2479C204.122 60.9106 203.946 61.5595 203.628 62.1412C203.31 62.7228 202.859 63.2207 202.31 63.5937L202.242 63.5325ZM211.429 58.173C210.38 58.7778 209.53 58.2878 209.53 57.0704C209.589 56.4233 209.797 55.7986 210.139 55.2458C210.48 54.693 210.946 54.2272 211.498 53.8853C212.547 53.2728 213.397 53.7628 213.397 54.9802C213.367 55.6461 213.18 56.2955 212.849 56.8746C212.519 57.4537 212.056 57.946 211.498 58.3108L211.429 58.173ZM220.655 52.8134C219.606 53.4183 218.757 52.9283 218.757 51.7185C218.791 51.0589 218.981 50.4168 219.311 49.8446C219.641 49.2724 220.102 48.7864 220.655 48.4263C221.704 47.8214 222.554 48.3114 222.554 49.5211C222.549 50.1973 222.38 50.8621 222.063 51.4593C221.746 52.0564 221.289 52.5682 220.732 52.9512L220.655 52.8134ZM229.881 47.4539C228.833 48.0588 227.983 47.5687 227.983 46.359C228.018 45.6997 228.209 45.058 228.539 44.486C228.869 43.914 229.329 43.4278 229.881 43.0667C230.93 42.4619 231.78 42.9519 231.78 44.1616C231.775 44.8378 231.606 45.5026 231.289 46.0998C230.972 46.6969 230.515 47.2087 229.958 47.5917L229.881 47.4539Z" fill="black"/>
<path d="M168.109 76.7258V195.225C168.109 196.802 169.22 197.445 170.59 196.657L240.034 156.545C240.757 156.074 241.358 155.44 241.789 154.694C242.22 153.948 242.469 153.11 242.515 152.249V33.75L168.109 76.7258ZM177.397 81.1742C176.348 81.7791 175.498 81.289 175.498 80.0793C175.535 79.4203 175.726 78.7791 176.056 78.2073C176.385 77.6354 176.845 77.149 177.397 76.787C178.446 76.1822 179.296 76.6722 179.296 77.8896C179.26 78.5479 179.069 79.1885 178.739 79.7592C178.409 80.33 177.949 80.8148 177.397 81.1742ZM186.584 75.8147C185.536 76.4195 184.686 75.9295 184.686 74.7121C184.721 74.0538 184.912 73.4132 185.242 72.8425C185.572 72.2717 186.032 71.7869 186.584 71.4275C187.633 70.815 188.483 71.305 188.483 72.5224C188.457 73.1847 188.274 73.8313 187.951 74.41C187.628 74.9886 187.173 75.483 186.623 75.853L186.584 75.8147ZM195.811 70.4551C194.762 71.06 193.912 70.57 193.912 69.3603C193.946 68.7006 194.136 68.0585 194.466 67.4863C194.796 66.9142 195.257 66.4281 195.811 66.068C196.859 65.4555 197.709 65.9531 197.709 67.1629C197.695 67.8372 197.518 68.4981 197.194 69.0898C196.87 69.6815 196.409 70.1865 195.849 70.5623L195.811 70.4551ZM205.044 65.0956C203.995 65.7005 203.145 65.2105 203.145 64.0007C203.181 63.3414 203.372 62.6997 203.702 62.1277C204.031 61.5557 204.491 61.0695 205.044 60.7084C206.093 60.1036 206.943 60.5936 206.943 61.8033C206.928 62.4777 206.752 63.1386 206.428 63.7303C206.104 64.3219 205.643 64.827 205.083 65.2028L205.044 65.0956ZM214.232 59.7361C213.183 60.3409 212.333 59.8509 212.333 58.6412C212.369 57.9819 212.559 57.3402 212.889 56.7682C213.219 56.1962 213.679 55.71 214.232 55.3489C215.281 54.7441 216.131 55.2341 216.131 56.4438C216.122 57.115 215.951 57.7742 215.634 58.3658C215.317 58.9574 214.863 59.4641 214.309 59.8433L214.232 59.7361ZM223.458 54.3765C222.409 54.9814 221.559 54.4914 221.559 53.2817C221.595 52.6223 221.785 51.9807 222.115 51.4087C222.445 50.8367 222.905 50.3504 223.458 49.9894C224.507 49.3845 225.357 49.8745 225.357 51.0843C225.356 51.7645 225.19 52.4345 224.873 53.0361C224.555 53.6378 224.096 54.153 223.535 54.5373L223.458 54.3765ZM232.646 49.017C231.597 49.6295 230.747 49.1319 230.747 47.9221C230.784 47.2631 230.975 46.6219 231.305 46.0501C231.635 45.4783 232.094 44.9918 232.646 44.6298C233.695 44.025 234.545 44.515 234.545 45.7324C234.552 46.4131 234.394 47.0855 234.083 47.6912C233.772 48.2969 233.318 48.8177 232.761 49.2084L232.646 49.017Z" fill="#FAFAFA"/>
<g opacity="0.24">
<path d="M176.456 98.7208C176.188 98.7182 175.925 98.6499 175.69 98.5217C175.394 98.3177 175.158 98.0384 175.006 97.7127C174.854 97.387 174.792 97.0267 174.825 96.6688V91.6538C174.874 90.7445 175.137 89.8596 175.592 89.0708C176.047 88.282 176.681 87.6114 177.444 87.1135L234.622 54.0835C234.904 53.8505 235.25 53.709 235.614 53.6782C235.978 53.6475 236.343 53.7287 236.66 53.9112C236.976 54.0937 237.229 54.3686 237.385 54.6991C237.541 55.0296 237.592 55.3999 237.532 55.7603V60.7753C237.483 61.6846 237.22 62.5695 236.765 63.3583C236.31 64.1471 235.676 64.8177 234.913 65.3156L177.735 98.3456C177.35 98.5825 176.908 98.712 176.456 98.7208ZM235.855 54.3132C235.513 54.3271 235.18 54.43 234.89 54.6118L177.712 87.6418C177.031 88.085 176.464 88.683 176.058 89.3869C175.652 90.0908 175.419 90.8807 175.377 91.6921V96.7071C175.316 96.9648 175.341 97.2351 175.446 97.4779C175.551 97.7208 175.732 97.9233 175.961 98.0555C176.19 98.1878 176.456 98.2427 176.719 98.2122C176.982 98.1817 177.228 98.0674 177.421 97.8862L234.599 64.8562C235.279 64.4137 235.845 63.817 236.251 63.1145C236.657 62.412 236.891 61.6236 236.935 60.8135V55.7986C236.966 55.5414 236.928 55.2807 236.826 55.0427C236.724 54.8047 236.561 54.598 236.353 54.4434C236.205 54.3433 236.033 54.2851 235.855 54.2749V54.3132Z" fill="#0052CC"/>
<path d="M236.95 58.1114L174.939 93.9277L175.227 94.425L237.237 58.6087L236.95 58.1114Z" fill="#0052CC"/>
<path d="M176.455 184.64C176.186 184.639 175.922 184.568 175.689 184.433C175.392 184.23 175.155 183.951 175.003 183.625C174.851 183.299 174.789 182.938 174.824 182.58V107.761C174.874 106.851 175.137 105.965 175.592 105.175C176.046 104.385 176.68 103.713 177.443 103.213L234.621 70.1909C234.903 69.9579 235.249 69.8165 235.613 69.7857C235.977 69.7549 236.342 69.8362 236.658 70.0186C236.975 70.2011 237.228 70.476 237.384 70.8065C237.54 71.137 237.591 71.5073 237.531 71.8677V146.687C237.482 147.596 237.219 148.481 236.764 149.27C236.309 150.059 235.675 150.729 234.912 151.227L177.711 184.257C177.331 184.49 176.899 184.621 176.455 184.64ZM235.854 70.39C235.512 70.4039 235.179 70.5068 234.889 70.6886L177.711 103.711C177.03 104.154 176.463 104.752 176.057 105.456C175.651 106.16 175.418 106.95 175.375 107.761V182.573C175.349 182.83 175.389 183.091 175.49 183.329C175.592 183.568 175.753 183.776 175.957 183.936C176.195 184.037 176.455 184.074 176.712 184.043C176.969 184.012 177.213 183.914 177.42 183.759L234.598 150.729C235.278 150.287 235.844 149.69 236.25 148.988C236.656 148.285 236.89 147.497 236.933 146.687V71.8677C236.964 71.6106 236.927 71.3498 236.825 71.1118C236.723 70.8739 236.559 70.6671 236.352 70.5125C236.2 70.4259 236.028 70.381 235.854 70.3823V70.39Z" fill="#0052CC"/>
<path d="M237.076 74.148L174.939 110.037L175.227 110.534L237.363 74.6453L237.076 74.148Z" fill="#0052CC"/>
<path d="M237.08 79.5152L174.943 115.404L175.231 115.902L237.367 80.0125L237.08 79.5152Z" fill="#0052CC"/>
<path d="M237.078 84.8824L174.941 120.771L175.229 121.269L237.365 85.3796L237.078 84.8824Z" fill="#0052CC"/>
<path d="M237.078 90.2574L174.941 126.146L175.229 126.644L237.365 90.7546L237.078 90.2574Z" fill="#0052CC"/>
<path d="M237.076 95.6246L174.939 131.514L175.227 132.011L237.363 96.1218L237.076 95.6246Z" fill="#0052CC"/>
<path d="M237.08 100.992L174.943 136.881L175.231 137.378L237.367 101.489L237.08 100.992Z" fill="#0052CC"/>
<path d="M237.078 106.359L174.941 142.248L175.229 142.745L237.365 106.856L237.078 106.359Z" fill="#0052CC"/>
<path d="M237.078 111.732L174.941 147.621L175.229 148.118L237.365 112.229L237.078 111.732Z" fill="#0052CC"/>
<path d="M237.074 117.099L174.938 152.988L175.225 153.486L237.361 117.596L237.074 117.099Z" fill="#0052CC"/>
<path d="M237.072 122.466L174.936 158.355L175.223 158.853L237.36 122.964L237.072 122.466Z" fill="#0052CC"/>
<path d="M237.08 127.841L174.943 163.73L175.231 164.228L237.367 128.339L237.08 127.841Z" fill="#0052CC"/>
<path d="M237.078 133.209L174.941 169.098L175.229 169.595L237.365 133.706L237.078 133.209Z" fill="#0052CC"/>
<path d="M237.074 138.576L174.938 174.465L175.225 174.962L237.361 139.073L237.074 138.576Z" fill="#0052CC"/>
<path d="M237.07 143.943L174.934 179.832L175.221 180.329L237.358 144.44L237.07 143.943Z" fill="#0052CC"/>
</g>
<path d="M184.402 86.6398V86.7623C184.388 86.981 184.32 87.193 184.205 87.3798C184.091 87.5666 183.932 87.7226 183.743 87.8342C182.894 88.3242 182.051 88.8219 181.201 89.3655V89.4267C181.201 91.4404 181.11 93.477 181.11 95.4907C181.11 96.1721 181.11 96.8229 181.11 97.4737C181.11 98.1245 181.178 98.5533 181.178 99.1045C181.21 99.3414 181.173 99.5822 181.073 99.799C180.972 100.016 180.813 100.2 180.612 100.33C180.275 100.521 179.999 100.398 179.999 99.8013V98.8901C179.999 97.0296 179.999 95.1768 179.999 93.3392C179.999 92.2826 179.999 91.2949 179.999 90.2077V90.0928C179.364 90.5293 178.713 90.9657 178.078 91.4098C177.94 91.5093 177.634 91.7313 177.473 91.8232C177.09 92.0453 176.807 91.8232 176.807 91.3255C176.823 91.083 176.894 90.8474 177.015 90.6365C177.135 90.4255 177.302 90.2449 177.503 90.1082L179.67 88.8525C180.589 88.3242 181.523 87.6734 182.442 87.0992L183.207 86.6015C183.376 86.4867 183.537 86.3641 183.705 86.2646C184.119 86.0502 184.402 86.1345 184.402 86.6398Z" fill="#455A64"/>
<path d="M189.708 90.1544C189.764 90.4392 189.787 90.7295 189.776 91.0196C189.777 91.6002 189.723 92.1795 189.616 92.75C189.211 94.5089 188.159 96.0508 186.668 97.0682L186.53 97.1448C186.233 97.35 185.877 97.4542 185.516 97.4418C185.154 97.4293 184.807 97.3011 184.524 97.0759C184.214 96.7319 183.979 96.3265 183.835 95.8859C183.691 95.4454 183.642 94.9795 183.69 94.5186C183.73 92.5621 184.465 90.6839 185.764 89.2203C186.065 88.8839 186.416 88.597 186.806 88.3705C187.203 88.1172 187.667 87.9892 188.138 88.003C188.601 88.1275 189.006 88.4083 189.285 88.7977C189.564 89.187 189.7 89.661 189.669 90.1391L189.708 90.1544ZM188.62 91.946C188.62 91.5479 188.536 91.3106 188.528 90.8971C188.283 89.496 187.418 89.473 186.79 89.8405C186.155 90.3162 185.64 90.9349 185.287 91.6465C184.935 92.3581 184.755 93.1426 184.761 93.9367C184.761 95.3455 185.412 96.3255 186.561 95.6671C187.203 95.2673 187.73 94.7081 188.092 94.0439C188.448 93.4027 188.63 92.6794 188.62 91.946Z" fill="#455A64"/>
<path d="M200.894 82.2745V82.4199C200.945 84.3764 200.45 86.3083 199.466 87.9998C198.481 89.6913 197.046 91.0757 195.32 91.9982C195.141 92.1156 194.948 92.2107 194.746 92.2815C194.632 92.4448 194.482 92.5808 194.309 92.6796H194.263C194.034 92.7945 193.72 92.9016 193.72 92.3198C193.72 91.1713 193.781 89.9692 193.781 88.8054C193.781 86.3554 193.659 83.8747 193.613 81.5394V81.2791C193.593 81.0763 193.614 80.8716 193.674 80.677C193.735 80.4825 193.834 80.3019 193.965 80.146C194.016 80.0991 194.073 80.058 194.133 80.0235C194.401 79.8627 194.593 79.8856 194.707 80.0235C194.828 79.913 194.956 79.8107 195.09 79.7172C195.467 79.437 195.86 79.1813 196.269 78.9516C197.487 78.2472 198.719 77.9103 199.615 78.5611C200.511 79.2119 200.894 80.5135 200.894 82.2745ZM199.738 83.0861C199.738 81.8763 199.539 80.6819 198.896 80.1383C198.252 79.5947 197.249 79.9469 196.361 80.4599C196.007 80.6721 195.67 80.9101 195.351 81.1719C195.182 81.2944 195.006 81.4629 194.838 81.5701V83.3923L194.914 87.144C194.914 88.3614 194.96 89.4409 194.968 90.4975C195.144 90.3903 195.312 90.3444 195.504 90.2372C197 89.4307 198.213 88.1856 198.98 86.6693C199.475 85.5392 199.733 84.3197 199.738 83.0861Z" fill="#455A64"/>
<path d="M207.855 79.6727C207.911 79.96 207.934 80.2529 207.923 80.5455C207.924 81.1261 207.87 81.7054 207.763 82.2759C207.361 84.0361 206.308 85.5789 204.815 86.5941L204.685 86.663C204.387 86.8725 204.03 86.9791 203.666 86.9667C203.303 86.9542 202.953 86.8234 202.671 86.5941C202.36 86.2521 202.125 85.8481 201.981 85.4086C201.837 84.9692 201.788 84.5043 201.837 84.0445C201.878 82.0861 202.614 80.206 203.911 78.7386C204.216 78.4065 204.566 78.1202 204.953 77.8887C205.35 77.6373 205.815 77.5119 206.285 77.5289C206.753 77.6457 207.166 77.9221 207.453 78.3106C207.739 78.6992 207.881 79.1754 207.855 79.6574V79.6727ZM206.767 81.4643C206.767 81.0738 206.691 80.8365 206.675 80.4154C206.43 79.0219 205.565 78.9989 204.937 79.3588C204.303 79.8357 203.789 80.4547 203.437 81.166C203.084 81.8773 202.903 82.6612 202.908 83.455C202.908 84.8714 203.559 85.8515 204.708 85.193C205.352 84.7922 205.88 84.23 206.239 83.5622C206.596 82.9212 206.778 82.1978 206.767 81.4643Z" fill="#455A64"/>
<path d="M218.541 77.3596C218.509 77.6273 218.41 77.8824 218.252 78.1008C218.094 78.3192 217.882 78.4936 217.638 78.6076C216.505 79.3197 215.395 79.9935 214.262 80.805C213.81 81.1266 213.327 81.5171 212.891 81.7698C212.843 81.7994 212.792 81.8226 212.738 81.8387C212.669 81.899 212.595 81.9528 212.516 81.9995C212.256 82.1526 211.85 82.1909 211.85 81.5171C211.85 79.9858 211.85 78.3856 211.85 76.8237C211.85 75.1392 211.85 73.4165 211.781 72.069C211.781 71.7781 211.72 71.4871 211.72 71.1732C211.712 70.9112 211.759 70.6505 211.857 70.4075C211.949 70.2266 212.089 70.0753 212.263 69.9711C212.86 69.6266 212.883 70.2544 212.914 70.8516C212.914 73.608 212.914 77.0457 212.991 80.1542C214.445 79.1589 215.663 78.3626 217.424 77.1912C217.551 77.0899 217.684 76.9954 217.822 76.9079C218.235 76.6859 218.541 76.8543 218.541 77.3596Z" fill="#455A64"/>
<path d="M220.97 69.6349C220.97 69.7115 220.97 69.8033 220.97 69.8876L220.932 73.1186C220.932 73.5014 220.932 73.8842 220.932 74.2747V75.5304C220.932 75.7141 220.932 75.8673 220.932 76.0434V76.2501C220.941 76.3033 220.941 76.3576 220.932 76.4109C220.936 76.5962 220.892 76.7795 220.805 76.9431C220.718 77.1067 220.59 77.2451 220.434 77.345H220.365C219.913 77.6053 219.737 77.2684 219.737 76.8396C219.737 76.6559 219.737 76.4492 219.737 76.2731V75.5074C219.737 74.9561 219.737 74.3972 219.737 73.846V73.4095C219.737 72.4984 219.737 71.6026 219.691 70.6992V70.5613C219.671 70.25 219.731 69.9387 219.868 69.6579C219.973 69.4238 220.147 69.2265 220.365 69.0913C220.771 68.8846 220.97 69.1143 220.97 69.6349ZM221.054 65.7454C221.091 65.8457 221.107 65.9526 221.1 66.0593C221.099 66.4139 220.965 66.7552 220.725 67.0164C220.649 67.1053 220.559 67.1805 220.457 67.2384C220.181 67.3992 219.898 67.3762 219.852 66.9781C219.848 66.9067 219.848 66.8351 219.852 66.7637C219.84 66.408 219.957 66.0597 220.181 65.7837C220.267 65.6814 220.371 65.5957 220.488 65.531C220.535 65.4905 220.592 65.4634 220.653 65.4525C220.714 65.4417 220.777 65.4476 220.835 65.4696C220.893 65.4915 220.944 65.5287 220.983 65.5773C221.021 65.6258 221.046 65.6839 221.054 65.7454Z" fill="#455A64"/>
<path d="M226.857 66.2266C226.835 66.4529 226.765 66.6719 226.652 66.8687C226.538 67.0655 226.384 67.2356 226.198 67.3675C226.102 67.4203 225.995 67.4517 225.885 67.4593C225.615 67.5281 225.357 67.6365 225.119 67.7809C224.353 68.2403 223.526 69.0289 223.526 69.6338C223.526 70.2386 224.56 69.5342 225.287 69.1361C226.183 68.6461 227.936 67.8039 227.936 70.1161C227.936 72.1757 226.298 74.1128 224.79 74.9856C224.337 75.2865 223.802 75.4415 223.258 75.4297C223.048 75.4304 222.846 75.352 222.691 75.2101C222.537 75.0682 222.441 74.8733 222.424 74.6641C222.449 74.4689 222.515 74.2812 222.618 74.1136C222.721 73.9459 222.858 73.8021 223.021 73.6917C223.404 73.4697 223.618 73.6917 223.748 73.6917C224.147 73.7464 224.552 73.6419 224.874 73.4008C225.471 73.0562 226.872 71.992 226.872 70.6904C226.872 69.6797 225.999 70.1238 225.264 70.5449C223.825 71.3795 222.447 72.0303 222.447 70.1621C222.45 69.4923 222.635 68.836 222.983 68.2633C223.524 67.4018 224.271 66.6887 225.157 66.1884C225.908 65.8055 226.857 65.3308 226.857 66.2266Z" fill="#455A64"/>
<path d="M232.676 62.9823C232.67 63.1973 232.609 63.4071 232.499 63.592C232.389 63.7769 232.234 63.9307 232.048 64.0389C231.985 64.0739 231.918 64.1021 231.849 64.1231L230.969 64.6361H230.93V66.4506C230.93 67.0019 230.93 68.6021 231.007 69.7735V70.5392C231.007 71.2283 230.815 71.5116 230.517 71.6877C229.996 71.9863 229.812 71.5881 229.812 71.2283C229.812 69.919 229.812 69.2452 229.812 68.2576C229.812 67.2699 229.812 66.1367 229.812 65.3251L229.422 65.6161C228.947 65.9683 228.832 66.0525 228.771 66.0831C228.48 66.2592 228.373 65.9377 228.373 65.5472C228.373 64.6667 228.786 64.46 229.751 63.8857C229.751 63.3038 229.667 62.8291 229.667 62.2166C229.675 61.941 229.766 61.6742 229.927 61.451C230.013 61.3481 230.116 61.2624 230.234 61.1983C230.8 60.8691 230.884 61.5275 230.884 62.2855C230.884 62.5994 230.884 62.9057 230.884 63.189C231.283 62.9133 231.65 62.676 231.872 62.5382C232.362 62.2702 232.676 62.385 232.676 62.9823Z" fill="#455A64"/>
<path d="M197.716 110.874C197.127 111.64 196.553 112.643 195.649 113.11C195.419 113.224 195.136 113.324 194.929 113.11C194.643 112.666 194.506 112.143 194.539 111.617C194.539 111.372 194.125 111.18 193.965 111.41C193.199 112.528 192.701 113.806 191.828 114.855C191.476 115.284 190.933 115.874 190.297 115.828C190.103 115.802 189.923 115.713 189.784 115.575C189.646 115.436 189.557 115.256 189.532 115.062L189.822 114.671C190.52 113.856 191.042 112.904 191.354 111.877C191.474 111.409 191.411 110.914 191.178 110.491C191.129 110.424 191.067 110.369 190.996 110.327C190.924 110.286 190.845 110.259 190.763 110.25C190.681 110.241 190.598 110.248 190.519 110.273C190.44 110.297 190.367 110.338 190.305 110.392C189.635 111.071 189.205 111.95 189.08 112.895C188.918 113.517 188.872 114.163 188.942 114.802C188.812 114.985 188.682 115.169 188.544 115.345C188.087 115.946 187.574 116.503 187.013 117.007C186.852 117.137 186.576 117.413 186.346 117.413C186.346 117.413 186.262 117.16 186.247 117.068C186.247 116.846 185.81 116.639 185.65 116.854C185.37 117.26 185.131 117.693 184.938 118.148C184.902 117.906 184.801 117.678 184.647 117.489C184.195 116.999 183.437 117.244 182.993 117.612C182.769 117.813 182.571 118.042 182.403 118.293C182.539 117.565 182.521 116.816 182.35 116.096C182.311 115.929 182.236 115.773 182.132 115.638C182.028 115.503 181.896 115.391 181.746 115.311C181.595 115.23 181.429 115.183 181.258 115.172C181.088 115.16 180.917 115.186 180.757 115.246C179.992 115.575 179.54 116.563 179.226 117.305C179.026 117.801 178.87 118.314 178.759 118.837C178.666 119.152 178.627 119.481 178.644 119.809L178.399 119.878C178.292 119.878 178.307 120.108 178.399 120.123C178.57 120.176 178.75 120.192 178.927 120.169C178.949 120.168 178.97 120.163 178.989 120.153C179.009 120.144 179.026 120.13 179.039 120.113C179.053 120.097 179.063 120.077 179.069 120.057C179.075 120.036 179.076 120.014 179.073 119.993C179.146 119.309 179.322 118.641 179.593 118.01C179.816 117.213 180.25 116.49 180.849 115.919C181.446 115.475 181.714 115.996 181.775 116.563C181.818 117.457 181.741 118.353 181.546 119.227C181.385 119.952 181.285 120.69 181.247 121.432C181.243 121.473 181.243 121.514 181.247 121.555V121.624C181.247 121.93 181.929 122.045 181.913 121.692C181.952 120.537 182.363 119.425 183.085 118.523C183.23 118.331 183.85 117.604 184.141 117.857C184.279 117.971 184.264 118.393 184.279 118.553C184.279 118.867 184.279 119.181 184.325 119.495C184.341 119.562 184.375 119.623 184.424 119.671C184.473 119.719 184.534 119.753 184.601 119.768C184.668 119.783 184.738 119.779 184.803 119.757C184.868 119.734 184.925 119.694 184.968 119.641C185.32 119.036 185.542 118.37 185.879 117.765C185.991 117.893 186.141 117.98 186.307 118.014C186.474 118.047 186.646 118.024 186.798 117.948C187.448 117.618 188.007 117.134 188.429 116.54C188.689 116.241 188.934 115.927 189.195 115.606C189.192 115.628 189.192 115.652 189.195 115.674C189.388 115.991 189.689 116.226 190.042 116.337C190.395 116.449 190.777 116.428 191.116 116.279C191.973 115.794 192.668 115.067 193.115 114.189C193.459 113.638 193.758 113.048 194.087 112.482C194.286 113.247 194.738 114.013 195.68 113.776C196.243 113.538 196.75 113.184 197.167 112.737C197.584 112.29 197.902 111.759 198.099 111.18C198.137 110.95 197.839 110.682 197.716 110.874ZM190.496 111.05C190.554 110.995 190.607 110.936 190.657 110.874C190.706 111.105 190.724 111.342 190.711 111.578C190.487 112.482 190.06 113.322 189.463 114.036C189.513 113.317 189.678 112.612 189.953 111.946C190.081 111.623 190.256 111.321 190.473 111.05H190.496Z" fill="#455A64"/>
<path d="M222.716 96.6315C222.34 96.8765 221.95 97.0909 221.552 97.2976C221.345 97.4199 221.115 97.4987 220.877 97.5289C220.639 97.5592 220.397 97.5404 220.166 97.4737C219.867 97.3676 219.547 97.3366 219.233 97.3833C218.919 97.4301 218.622 97.5531 218.367 97.7417C217.547 98.3925 217.341 99.5563 216.59 100.245C216.307 99.7477 216.345 99.0969 215.94 98.6451C215.91 98.6124 215.874 98.5862 215.834 98.5682C215.794 98.5503 215.75 98.541 215.706 98.541C215.662 98.541 215.618 98.5503 215.578 98.5682C215.538 98.5862 215.502 98.6124 215.472 98.6451C214.856 99.5975 214.123 100.469 213.29 101.241C212.992 101.486 212.525 101.777 212.142 101.631L212.372 101.287C212.908 100.521 213.604 99.5945 213.566 98.5992C213.566 97.979 213.237 97.0679 212.433 97.3053C212.111 97.4612 211.833 97.6959 211.626 97.9877C211.418 98.2794 211.288 98.6188 211.246 98.9744C210.978 99.8633 211.035 100.819 211.407 101.669C211.269 101.876 211.131 102.091 210.986 102.297C210.602 102.912 210.115 103.456 209.546 103.905C209.309 104.104 209.007 104.211 208.696 104.204C208.298 104.158 208.038 103.79 207.847 103.438C207.755 103.3 207.51 103.139 207.372 103.316C206.897 103.986 206.552 104.739 206.354 105.536C206.234 105.313 206.076 105.114 205.887 104.946C205.838 104.898 205.772 104.87 205.703 104.87C205.634 104.87 205.568 104.898 205.519 104.946C204.873 105.583 204.398 106.373 204.141 107.243C204.018 106.348 203.758 105.475 202.901 105.283C202.513 105.234 202.119 105.292 201.762 105.45C201.404 105.607 201.097 105.86 200.872 106.179C200.244 106.945 200.029 108.109 199.233 108.759C199.164 108.821 199.233 109.027 199.325 108.974C200.764 108.269 200.711 105.988 202.518 105.727C203.919 105.521 203.651 108.024 203.819 108.89C203.865 109.127 204.302 109.295 204.34 108.974C204.451 107.691 204.957 106.474 205.787 105.49C205.953 105.758 206.089 106.043 206.193 106.34C206.262 106.501 206.622 106.646 206.69 106.401C206.891 105.542 207.216 104.716 207.655 103.951C207.816 104.203 208.046 104.402 208.318 104.524C208.59 104.647 208.892 104.687 209.187 104.64C209.91 104.414 210.535 103.947 210.955 103.316C211.283 102.904 211.587 102.475 211.866 102.029C212.102 102.151 212.369 102.197 212.632 102.159C213.43 101.969 214.13 101.492 214.6 100.82C215.013 100.333 215.397 99.8215 215.748 99.2883C215.802 99.472 215.832 99.6711 215.886 99.8396C215.969 100.179 216.144 100.489 216.391 100.735C216.44 100.794 216.509 100.834 216.584 100.848C216.66 100.862 216.738 100.849 216.805 100.812C217.754 100.169 217.907 98.8748 218.765 98.1551C218.996 97.9428 219.294 97.8181 219.607 97.8029C219.997 97.8029 220.373 98.002 220.771 98.0173C221.601 97.9383 222.366 97.5336 222.899 96.8918C222.983 96.8612 222.853 96.5473 222.716 96.6315ZM211.629 100.054C211.652 99.4512 211.806 98.8607 212.081 98.3236C212.196 98.1168 212.433 97.8029 212.693 97.7723C212.953 97.7417 212.869 97.7723 212.931 97.9178C212.999 98.1276 213.03 98.3479 213.022 98.5686C212.898 99.363 212.556 100.108 212.035 100.72L211.728 101.179C211.617 100.815 211.583 100.432 211.629 100.054Z" fill="#455A64"/>
<path d="M205.051 122.556C204.209 123.238 203.772 124.218 203.06 124.999C202.887 124.786 202.733 124.558 202.601 124.317C202.581 124.273 202.551 124.233 202.513 124.202C202.474 124.172 202.429 124.151 202.381 124.141C202.333 124.131 202.284 124.133 202.237 124.146C202.19 124.16 202.146 124.184 202.111 124.218C201.965 124.379 201.82 124.517 201.697 124.677C201.616 124.514 201.564 124.338 201.544 124.157C201.537 124.095 201.514 124.037 201.476 123.988C201.438 123.939 201.388 123.901 201.33 123.879C201.272 123.857 201.209 123.851 201.149 123.862C201.088 123.874 201.031 123.901 200.985 123.942C199.814 125.297 199.14 127.602 197.448 128.291C197.614 127.801 197.674 127.282 197.624 126.767C197.574 126.252 197.415 125.754 197.157 125.305C197.073 125.167 196.835 125.014 196.698 125.183C195.664 126.408 195.404 128.192 194.125 129.21C193.987 128.979 193.923 128.712 193.941 128.444C193.941 128.192 193.505 127.97 193.382 128.268C193.26 128.567 193.137 129.08 193.015 129.486C192.923 129.943 192.741 130.378 192.479 130.764C192.035 131.277 191.866 130.289 191.851 129.999C191.851 129.417 191.92 128.842 191.889 128.268C191.889 128.016 191.445 127.793 191.33 128.092C190.753 129.52 190.083 130.909 189.324 132.25C189.225 132.441 188.758 133.498 188.444 133.459C188.13 133.421 187.839 132.533 187.739 132.349C187.64 132.165 187.395 132.096 187.265 132.219C186.886 132.61 186.589 133.074 186.392 133.582C186.347 133.364 186.275 133.153 186.177 132.954C186.156 132.904 186.124 132.86 186.084 132.824C186.044 132.788 185.996 132.761 185.944 132.745C185.893 132.729 185.838 132.724 185.785 132.731C185.731 132.738 185.68 132.757 185.634 132.786C184.417 133.969 183.298 135.249 182.288 136.614C181.742 137.303 181.109 137.918 180.405 138.444C180.259 138.543 179.846 138.849 179.639 138.773C179.432 138.696 179.493 138.513 179.478 138.375C179.505 137.317 179.795 136.284 180.32 135.366C180.56 134.838 180.834 134.327 181.14 133.834C181.4 133.348 181.772 132.93 182.227 132.617C182.433 132.502 182.717 132.41 182.824 132.701C182.874 133.018 182.842 133.342 182.732 133.643C182.602 134.141 182.403 134.631 182.242 135.121L181.875 135.075C181.737 135.075 181.76 135.297 181.875 135.335C182.025 135.368 182.174 135.411 182.319 135.465C182.38 135.465 182.433 135.465 182.472 135.465C182.916 134.746 184.003 132.724 182.893 132.112C181.783 131.499 180.695 133.329 180.267 134.087C179.548 135.236 179.074 136.521 178.873 137.862C178.827 138.359 178.873 139.003 179.363 139.271C180.006 139.623 180.764 139.041 181.239 138.65C183.008 137.203 184.118 135.144 185.764 133.582C185.844 134.204 185.844 134.835 185.764 135.458V135.527C185.764 135.817 186.292 135.971 186.377 135.657C186.556 134.708 186.912 133.802 187.426 132.985C187.58 133.37 187.847 133.701 188.191 133.934C188.651 134.171 189.018 133.865 189.286 133.498C189.803 132.716 190.256 131.894 190.641 131.04C190.856 130.619 191.062 130.205 191.254 129.777C191.252 129.997 191.27 130.217 191.307 130.435C191.415 130.963 191.866 131.622 192.486 131.484C193.107 131.346 193.252 130.718 193.398 130.282C193.497 129.991 193.574 129.692 193.65 129.394C193.753 129.561 193.898 129.698 194.071 129.792C194.11 129.816 194.155 129.829 194.201 129.829C194.248 129.829 194.293 129.816 194.332 129.792C195.679 128.85 195.993 127.204 196.866 125.91C197.195 126.852 197.279 128.429 196.185 128.513C195.832 128.513 196.001 129.019 196.276 129.041C196.302 129.038 196.328 129.038 196.353 129.041C198.949 129.141 199.791 126.622 201.069 124.807C201.169 125.017 201.307 125.206 201.475 125.366C201.598 125.481 201.873 125.573 201.95 125.366C202.014 125.195 202.116 125.041 202.248 124.915C202.414 125.165 202.599 125.403 202.8 125.627C202.876 125.711 203.091 125.81 203.198 125.703C204.025 124.899 204.446 123.789 205.242 122.962C205.464 122.763 205.204 122.426 205.051 122.556Z" fill="#455A64"/>
<path d="M222.984 112.213C222.493 112.683 222.116 113.259 221.881 113.897C221.618 114.576 221.16 115.162 220.564 115.581C219.898 115.934 219.515 115.467 219.508 114.862C219.883 114.234 220.273 113.591 220.664 113.001C220.824 112.772 220.472 112.504 220.258 112.572C219.871 112.758 219.542 113.046 219.308 113.405C219.073 113.764 218.941 114.18 218.926 114.609C218.505 115.405 217.957 116.127 217.302 116.745C217.134 116.898 216.835 117.159 216.575 117.105C216.315 117.052 216.231 116.584 216.192 116.339C216.07 115.428 215.296 115.574 214.661 116.01C213.757 116.653 213.551 117.855 212.977 118.767C212.785 118.46 212.67 118.108 212.471 117.81C212.426 117.741 212.36 117.689 212.282 117.663C212.204 117.637 212.12 117.637 212.042 117.664C210.886 118.269 210.879 119.54 210.511 120.619C210.511 120.252 210.511 119.854 210.511 119.54C210.537 119.202 210.49 118.863 210.373 118.545C210.257 118.226 210.074 117.937 209.837 117.695C208.605 116.799 207.449 118.973 207.05 119.831C206.859 120.244 206.453 121.018 206.867 121.423C207.043 121.584 207.15 121.293 207.035 121.155C206.92 121.018 207.249 120.528 207.295 120.39C207.475 120.03 207.677 119.682 207.9 119.348C208.114 119.02 208.355 118.71 208.62 118.422C208.785 118.203 209.012 118.038 209.271 117.947C209.945 117.863 209.937 119.126 209.945 119.525C209.888 120.226 209.924 120.931 210.052 121.622C210.07 121.676 210.101 121.724 210.142 121.763C210.184 121.801 210.235 121.829 210.29 121.843C210.345 121.856 210.402 121.856 210.457 121.842C210.512 121.827 210.562 121.799 210.603 121.76C211.369 120.796 211.177 119.096 212.134 118.315C212.291 118.709 212.526 119.069 212.823 119.371C212.854 119.404 212.89 119.431 212.931 119.449C212.972 119.467 213.016 119.476 213.061 119.476C213.105 119.476 213.15 119.467 213.19 119.449C213.231 119.431 213.268 119.404 213.298 119.371C213.987 118.522 214.125 117.274 214.952 116.531C215.049 116.447 215.154 116.372 215.266 116.309C215.327 116.309 215.45 116.24 215.534 116.194C215.618 116.148 215.534 116.309 215.534 116.316C215.551 116.664 215.68 116.997 215.901 117.266C217.027 118.453 218.359 116.546 219.01 115.543C219.106 115.758 219.264 115.939 219.462 116.064C219.661 116.189 219.893 116.253 220.128 116.248C221.054 116.286 221.659 115.482 222.103 114.762C222.442 114.004 222.855 113.281 223.336 112.603C223.565 112.412 223.16 112.067 222.984 112.213Z" fill="#455A64"/>
<path d="M186.102 147.57C185.82 147.392 185.501 147.281 185.169 147.245C184.837 147.209 184.502 147.25 184.188 147.363C183.539 147.556 182.917 147.829 182.335 148.175C181.891 148.42 180.926 148.879 181.01 149.484C181.01 149.561 181.125 149.714 181.217 149.63C181.997 148.975 182.883 148.457 183.836 148.098C184.31 147.864 184.84 147.765 185.367 147.815C185.964 147.945 186.087 148.634 186.056 149.147C185.915 150.081 185.475 150.944 184.8 151.605C184.1 152.408 183.266 153.084 182.335 153.603C182.335 153.466 182.373 153.328 182.396 153.19C182.473 152.746 182.542 152.309 182.618 151.865C182.695 151.421 182.764 150.993 182.84 150.564C182.946 150.081 183.002 149.588 183.009 149.094C183.009 148.971 182.81 148.764 182.718 148.941C182.562 149.342 182.456 149.761 182.404 150.189C182.297 150.648 182.197 151.115 182.113 151.582C182.029 152.049 181.945 152.478 181.86 152.922L181.745 153.588C181.745 153.703 181.7 153.81 181.684 153.925C181.226 154.16 180.712 154.266 180.198 154.231C179.684 154.196 179.189 154.021 178.767 153.726C178.545 153.557 178.56 153.856 178.629 153.986C178.802 154.235 179.03 154.441 179.296 154.587C179.562 154.734 179.858 154.816 180.161 154.828C180.727 154.861 181.293 154.772 181.822 154.568C183.073 154.098 184.198 153.343 185.107 152.363C185.979 151.577 186.572 150.529 186.799 149.377C186.838 149.042 186.796 148.702 186.674 148.387C186.553 148.072 186.356 147.792 186.102 147.57Z" fill="#455A64"/>
<path d="M205.189 139.286C204.975 140.052 203.42 142.854 202.41 141.583C202.274 141.409 202.177 141.208 202.126 140.994C202.638 140.167 203.049 139.283 203.351 138.36C203.497 137.877 203.658 137.165 203.16 136.828C202.662 136.492 202.05 136.828 201.812 137.357C201.521 138.086 201.385 138.869 201.414 139.654C201.398 140.057 201.429 140.46 201.506 140.856C201.407 141.024 201.315 141.193 201.208 141.353C200.92 141.842 200.605 142.315 200.266 142.77C200.136 142.938 199.783 143.459 199.5 143.436C199.217 143.413 199.179 142.594 199.11 142.387C199.041 142.18 198.796 142.004 198.635 142.188C197.969 142.954 197.984 144.125 197.41 144.952C197.134 145.35 196.644 145.457 196.453 144.952C196.308 144.453 196.223 143.939 196.2 143.421C196.162 143.237 195.756 143.015 195.687 143.283C195.549 143.788 195.412 144.301 195.258 144.814C195.12 145.411 194.899 145.986 194.6 146.522C194.508 146.667 194.378 146.843 194.171 146.813C193.965 146.782 193.857 146.499 193.796 146.322C193.627 145.818 193.567 145.283 193.62 144.753C193.62 144.462 193.145 144.186 193.038 144.539C192.82 145.252 192.544 145.946 192.211 146.613C191.905 147.241 191.446 148.237 190.749 148.52C190.68 148.546 190.608 148.559 190.534 148.558C190.642 148.306 190.733 148.053 190.818 147.793C191.116 146.881 191.461 145.411 190.588 144.684C190.536 144.627 190.465 144.59 190.388 144.578C190.312 144.567 190.233 144.583 190.167 144.623C189.671 145.105 189.373 145.755 189.332 146.445C189.332 146.59 189.332 146.744 189.294 146.904C188.743 146.223 187.954 147.096 187.617 147.67C187.173 148.436 186.637 149.745 187.028 150.633C187.418 151.521 188.46 151.269 189.041 150.763C189.57 150.27 189.999 149.68 190.305 149.025C190.462 149.078 190.63 149.095 190.795 149.077C190.96 149.058 191.12 149.004 191.262 148.918C191.897 148.446 192.39 147.807 192.686 147.073C192.854 146.744 193 146.407 193.145 146.062C193.181 146.2 193.224 146.335 193.275 146.468C193.316 146.614 193.387 146.75 193.482 146.868C193.577 146.987 193.694 147.084 193.828 147.156C193.962 147.227 194.109 147.271 194.26 147.284C194.411 147.298 194.563 147.281 194.707 147.234C195.235 147.004 195.473 146.169 195.618 145.702C195.733 145.373 195.825 145.036 195.909 144.707C195.954 144.875 196.018 145.037 196.101 145.189C196.215 145.423 196.415 145.603 196.658 145.694C196.901 145.786 197.17 145.78 197.41 145.679C197.915 145.434 198.176 144.753 198.329 144.271C198.482 143.788 198.589 143.405 198.78 143C198.957 143.574 199.247 144.148 199.906 143.834C200.564 143.52 201.062 142.617 201.437 141.989C201.537 141.843 201.629 141.69 201.721 141.537C201.721 141.537 201.721 141.537 201.721 141.583C203.03 143.804 205.357 141.07 205.633 139.539C205.763 139.279 205.281 138.972 205.189 139.286ZM190.427 145.281C190.611 145.849 190.611 146.46 190.427 147.027C190.336 147.395 190.219 147.756 190.075 148.106C189.969 147.794 189.92 147.464 189.93 147.134C189.905 146.48 190.079 145.835 190.427 145.281ZM187.694 150.641C187.196 150.357 187.648 149.109 187.793 148.719C187.939 148.328 188.705 146.422 189.325 147.249C189.322 147.705 189.459 148.151 189.715 148.528L189.807 148.635C189.647 148.962 189.463 149.277 189.256 149.576C188.995 149.967 188.253 150.955 187.694 150.671V150.641ZM202.165 138.191C202.203 138.023 202.517 136.897 202.884 137.158C203.06 137.288 202.815 138.008 202.754 138.176C202.549 138.774 202.292 139.352 201.989 139.906C201.98 139.34 202.039 138.774 202.165 138.222V138.191Z" fill="#455A64"/>
<path d="M224.567 128.322C223.801 128.72 222.002 128.368 222.27 127.243C222.308 127.09 222.033 126.76 221.926 126.975C221.573 127.679 221.236 128.399 220.838 129.08C220.572 129.595 220.246 130.075 219.866 130.512C219.594 130.821 219.27 131.08 218.909 131.278C218.825 131.324 218.618 131.438 218.526 131.4C218.434 131.362 218.526 130.971 218.526 130.849C218.526 130.726 218.281 130.397 218.12 130.558C217.278 131.431 216.895 132.663 215.969 133.46C215.867 133.389 215.785 133.296 215.727 133.186C215.67 133.077 215.64 132.955 215.64 132.832C215.64 132.625 215.303 132.365 215.134 132.579C214.369 133.59 214.307 135.052 213.419 136.002C212.791 136.675 212.692 135.611 212.707 135.152C212.722 134.692 212.791 134.287 212.845 133.858V133.689C212.845 133.513 212.845 133.345 212.845 133.176C212.845 133.008 212.416 132.763 212.409 133.077C212.398 133.333 212.372 133.589 212.332 133.843C212.223 134.376 212.04 134.891 211.788 135.374C211.461 136.11 210.93 136.737 210.257 137.181C210.119 137.257 210.257 137.564 210.364 137.502C211.185 137.109 211.853 136.454 212.263 135.642C212.332 136.231 212.722 136.943 213.419 136.721C214.116 136.499 214.422 135.619 214.675 135.052C214.928 134.486 215.065 133.942 215.333 133.429C215.488 133.692 215.717 133.902 215.992 134.034C216.032 134.055 216.077 134.066 216.122 134.066C216.167 134.066 216.212 134.055 216.252 134.034C217.018 133.292 217.654 132.428 218.136 131.477C218.161 131.571 218.212 131.657 218.282 131.726C218.352 131.795 218.439 131.843 218.534 131.867C218.94 131.982 219.399 131.645 219.698 131.408C220.126 131.074 220.491 130.667 220.777 130.206C221.279 129.485 221.707 128.715 222.056 127.909C222.171 128.152 222.335 128.369 222.538 128.545C222.742 128.721 222.98 128.853 223.237 128.932C223.494 129.012 223.765 129.036 224.032 129.005C224.299 128.974 224.557 128.887 224.789 128.751C224.935 128.567 224.743 128.223 224.567 128.322Z" fill="#455A64"/>
<path d="M206.643 153.344C206.643 153.137 206.283 152.953 206.168 153.175C205.887 153.768 205.662 154.386 205.494 155.02C205.352 155.749 205.031 156.43 204.56 157.004C203.971 157.547 203.795 156.667 203.795 156.2C204.062 155.573 204.195 154.898 204.185 154.217C204.185 153.995 203.81 153.734 203.672 154.01C203.384 154.652 203.243 155.35 203.259 156.054C203.039 156.582 202.784 157.093 202.493 157.585C201.727 157.065 201.214 158.06 200.763 158.703C200.66 158.332 200.637 157.943 200.694 157.562C200.694 157.356 200.365 157.088 200.204 157.302C199.946 157.719 199.747 158.17 199.614 158.642C199.476 159.009 199.262 159.836 198.849 159.99C198.083 160.258 198.374 157.379 198.351 156.973C198.351 156.781 198.014 156.483 197.853 156.72C196.888 158.183 196.843 160.074 195.771 161.483C195.702 161.582 195.564 161.674 195.51 161.773C195.516 161.799 195.516 161.825 195.51 161.85C195.514 161.825 195.514 161.799 195.51 161.773C195.426 161.911 195.472 161.697 195.51 161.773C195.458 161.595 195.417 161.414 195.388 161.23C195.353 160.687 195.353 160.142 195.388 159.599C195.388 159.369 194.982 159.14 194.844 159.369C194.332 160.408 193.877 161.474 193.481 162.562C193.053 163.527 192.341 164.905 191.123 164.951C190.656 164.951 190.534 164.606 190.564 164.185C190.872 163.987 191.162 163.762 191.429 163.512C192.178 162.877 192.713 162.027 192.961 161.077C193.053 160.61 192.961 159.859 192.34 159.844C191.72 159.829 191.184 160.839 190.932 161.375C190.647 161.931 190.416 162.513 190.243 163.113C190.154 163.403 190.09 163.701 190.051 164.002C189.588 164.291 189.064 164.469 188.52 164.522C188.351 164.522 188.42 164.851 188.574 164.851C189.103 164.845 189.626 164.725 190.105 164.499C190.124 164.637 190.163 164.771 190.22 164.897C190.356 165.145 190.574 165.338 190.836 165.443C191.099 165.548 191.39 165.558 191.659 165.472C192.313 165.311 192.883 164.912 193.259 164.354C193.938 163.271 194.481 162.109 194.875 160.893C194.921 161.743 195.135 162.6 195.84 162.348C196.14 162.185 196.383 161.934 196.536 161.628C196.808 161.195 197.032 160.732 197.202 160.25C197.463 159.553 197.654 158.818 197.93 158.121C197.911 158.392 197.911 158.663 197.93 158.933C197.983 159.522 198.129 160.388 198.833 160.518C199.538 160.648 199.783 159.967 199.989 159.515C200.127 159.216 200.219 158.879 200.334 158.55C200.401 158.857 200.578 159.13 200.832 159.316C200.872 159.347 200.922 159.365 200.973 159.365C201.025 159.365 201.074 159.347 201.115 159.316C201.329 159.048 201.49 158.749 201.689 158.466C201.888 158.183 202.187 157.784 202.547 158.167C202.569 158.197 202.597 158.222 202.631 158.239C202.664 158.256 202.701 158.264 202.738 158.264C202.775 158.264 202.812 158.256 202.845 158.239C202.879 158.222 202.907 158.197 202.929 158.167C203.136 157.823 203.343 157.448 203.542 157.065C203.608 157.293 203.757 157.488 203.959 157.613C204.162 157.737 204.403 157.782 204.637 157.739C205.402 157.593 205.778 156.529 206.007 155.878C206.13 155.541 206.222 155.197 206.321 154.852C206.333 156.08 206.189 157.305 205.892 158.497H205.824C204.798 159.025 203.45 159.124 203.044 160.388C202.684 161.49 203.756 162.103 204.69 161.628C205.427 161.167 205.959 160.441 206.176 159.599C206.495 158.586 206.683 157.536 206.735 156.475C206.775 155.431 206.744 154.384 206.643 153.344ZM190.893 162.7C191.045 162.28 191.224 161.871 191.429 161.475C191.597 161.071 191.86 160.714 192.195 160.434C192.409 160.303 192.394 160.357 192.402 160.625C192.29 161.539 191.852 162.381 191.169 162.999C190.999 163.186 190.814 163.36 190.618 163.519C190.71 163.205 190.825 162.868 190.893 162.7ZM204.79 160.648C204.568 160.901 203.787 161.551 203.496 161.138C203.32 160.885 203.542 160.434 203.672 160.219C203.863 159.944 204.129 159.729 204.438 159.599C204.821 159.423 205.203 159.3 205.586 159.117C205.548 159.216 205.525 159.316 205.487 159.415C205.327 159.863 205.091 160.28 204.79 160.648Z" fill="#455A64"/>
<path d="M213.794 148.964C213.616 148.634 213.335 148.369 212.995 148.211C212.654 148.052 212.271 148.008 211.903 148.084C211.466 148.162 211.049 148.329 210.678 148.574C210.456 148.723 210.262 148.909 210.104 149.125C210.058 149.026 210.004 148.941 209.951 148.85C209.776 148.584 209.558 148.349 209.308 148.153C209.11 147.959 208.862 147.822 208.593 147.757C208.323 147.692 208.041 147.702 207.776 147.785C207.528 147.927 207.338 148.153 207.241 148.423C207.144 148.692 207.146 148.988 207.248 149.255C207.482 149.885 207.821 150.47 208.251 150.986C208.701 151.506 209.116 152.056 209.491 152.632C209.509 152.663 209.534 152.691 209.563 152.712C209.592 152.734 209.625 152.749 209.66 152.757C209.696 152.765 209.732 152.765 209.768 152.758C209.803 152.751 209.837 152.737 209.866 152.716C210.378 152.352 210.928 152.044 211.505 151.797C212.189 151.482 212.826 151.072 213.396 150.58C213.629 150.391 213.795 150.131 213.866 149.839C213.938 149.547 213.913 149.24 213.794 148.964ZM211.168 151.261C210.671 151.483 210.19 151.739 209.729 152.027C209.034 151.192 208.401 150.306 207.837 149.378C207.669 149.003 207.585 148.536 208.044 148.321C208.504 148.107 208.978 148.505 209.262 148.773C209.503 148.987 209.698 149.247 209.836 149.539C209.836 149.577 209.836 149.638 209.882 149.684C209.876 149.735 209.884 149.786 209.904 149.833C209.924 149.88 209.956 149.921 209.997 149.952C210.031 149.963 210.069 149.963 210.104 149.952C210.104 149.952 210.272 149.876 210.242 149.86C210.211 149.845 210.502 149.508 210.533 149.47C210.633 149.349 210.746 149.238 210.869 149.141C211.137 148.935 211.441 148.781 211.765 148.689C212.037 148.575 212.338 148.554 212.622 148.63C212.906 148.707 213.157 148.875 213.335 149.11C213.542 149.508 213.166 149.914 212.845 150.182C212.335 150.604 211.781 150.969 211.191 151.269L211.168 151.261Z" fill="#455A64"/>
<path d="M188.528 165.7C188.306 165.861 188.153 165.937 187.938 165.746C187.693 165.494 187.508 165.19 187.395 164.858C187.139 164.323 186.995 163.742 186.974 163.15C186.974 162.836 186.392 162.683 186.384 163.058C186.397 163.949 186.341 164.84 186.216 165.723C186.151 166.176 186.035 166.62 185.871 167.047C185.779 167.277 185.641 167.683 185.404 167.813C185.167 167.943 184.922 167.315 184.838 167.101C184.627 166.598 184.513 166.061 184.501 165.516C184.501 165.516 184.501 165.47 184.501 165.439C184.501 165.141 183.842 165.011 183.85 165.355V165.432C183.849 166.168 183.712 166.898 183.444 167.583C183.298 168.021 183.087 168.434 182.816 168.808C182.877 167.805 182.946 166.649 182.012 166.113C180.565 165.286 179.44 167.246 179.355 168.456C179.355 168.602 179.623 168.877 179.692 168.648C179.852 168.05 180.133 167.492 180.519 167.009C180.848 166.611 181.499 166.159 181.943 166.664C182.204 167.085 182.307 167.584 182.234 168.073C182.234 168.548 182.15 169.015 182.15 169.49C182.151 169.55 182.166 169.608 182.194 169.661C182.223 169.714 182.264 169.759 182.314 169.792C182.364 169.825 182.421 169.845 182.48 169.852C182.54 169.858 182.6 169.849 182.655 169.827C183.336 169.368 183.83 168.681 184.049 167.89C184.127 167.689 184.193 167.485 184.248 167.277C184.269 167.322 184.287 167.368 184.302 167.415C184.516 167.874 184.899 168.464 185.481 168.433C186.246 168.387 186.53 167.323 186.69 166.741C186.826 166.241 186.908 165.727 186.935 165.21L187.096 165.539C187.479 166.228 188.298 166.894 188.98 166.152C189.186 165.884 188.742 165.547 188.528 165.7Z" fill="#455A64"/>
<path d="M235.463 82.2219C235.21 81.9999 234.751 81.7625 234.422 81.9922C233.727 82.6223 233.158 83.3784 232.745 84.2202C232.178 85.116 229.782 90.6134 228.733 92.918C228.618 93.163 228.473 93.4999 228.212 93.431C228.122 93.4052 228.041 93.3516 227.983 93.2778L225.816 91.1723C225.257 91.7695 224.644 92.5352 224.889 93.3085C225.034 93.668 225.275 93.9806 225.586 94.2119C226.029 94.6102 226.505 94.9688 227.01 95.2838C227.424 95.5863 227.896 95.8001 228.396 95.9117C228.604 95.9385 228.814 95.9172 229.012 95.8495C229.21 95.7818 229.39 95.6694 229.537 95.5212C230.463 94.4876 234.828 86.9383 235.287 86.1037C235.809 85.4074 236.129 84.581 236.213 83.7149C236.137 83.1474 235.873 82.6219 235.463 82.2219Z" fill="#0052CC"/>
<path d="M235.463 113.827C235.21 113.605 234.751 113.367 234.422 113.605C233.724 114.231 233.154 114.988 232.745 115.833C232.178 116.721 229.782 122.218 228.733 124.53C228.618 124.775 228.473 125.105 228.212 125.043C228.123 125.011 228.043 124.956 227.983 124.883L225.816 122.785C225.257 123.374 224.644 124.14 224.889 124.921C225.034 125.28 225.275 125.593 225.586 125.824C226.029 126.22 226.505 126.576 227.01 126.889C227.424 127.193 227.895 127.41 228.396 127.524C228.604 127.552 228.816 127.53 229.014 127.461C229.212 127.392 229.391 127.277 229.537 127.126C230.463 126.1 234.828 118.551 235.287 117.716C235.807 117.018 236.127 116.193 236.213 115.327C236.139 114.757 235.874 114.229 235.463 113.827Z" fill="#0052CC"/>
<path d="M222.402 117.672C222.095 117.484 221.733 117.405 221.376 117.449C221.252 117.474 221.139 117.533 221.048 117.619C220.957 117.706 220.893 117.817 220.863 117.939C219.546 118.422 218.237 118.927 216.904 119.387C215.274 119.938 213.635 120.458 212.012 121.025C208.773 122.158 205.588 123.414 202.411 124.692C196.033 127.265 189.663 129.853 183.139 132.05C181.608 132.548 180.161 133.015 178.699 133.582C177.741 133.964 176.754 134.217 175.812 134.615C175.663 134.657 175.536 134.756 175.46 134.891C175.433 134.983 175.439 135.081 175.479 135.168C175.518 135.255 175.587 135.325 175.674 135.366C176.271 135.695 177.458 135.182 178.048 134.983C179.303 134.562 180.528 134.095 181.799 133.697C185.161 132.648 188.484 131.484 191.753 130.251C198.192 127.847 204.493 125.068 210.963 122.725C212.839 122.051 214.738 121.438 216.629 120.803C218.529 120.224 220.395 119.539 222.218 118.751C222.318 118.708 222.406 118.641 222.474 118.556C222.541 118.47 222.586 118.369 222.605 118.261C222.623 118.154 222.614 118.044 222.579 117.941C222.543 117.838 222.482 117.745 222.402 117.672Z" fill="#0052CC"/>
<path d="M201.859 161.366C199.945 162.415 192.411 167.017 190.451 168.096C187.105 169.941 183.828 171.848 180.551 173.808C180.39 173.907 180.206 174.022 180.16 174.206C180.015 174.834 180.926 174.39 181.11 174.306C181.63 174.068 182.151 173.816 182.641 173.54C183.659 173.012 189.042 169.949 190.734 169.03C192.717 167.951 200.427 163.326 202.387 162.239C202.908 161.971 202.31 161.121 201.859 161.366Z" fill="#0052CC"/>
<path d="M218.221 151.957C217.456 152.355 210.036 156.934 208.306 157.952C208.142 158.034 207.998 158.151 207.885 158.296C207.829 158.369 207.799 158.458 207.799 158.549C207.799 158.641 207.829 158.729 207.885 158.802C208.061 158.978 208.36 158.871 208.582 158.756C211.897 157.048 215.097 155.142 218.298 153.235C218.475 153.143 218.635 153.021 218.773 152.876C219.094 152.485 218.757 151.72 218.221 151.957Z" fill="#0052CC"/>
<path opacity="0.2" d="M91.627 117.647L157.496 79.6172V136.114L91.627 174.144V117.647Z" fill="black"/>
<path d="M96.1602 120.258L162.029 82.2363V138.733L96.1602 176.763V120.258Z" fill="#F5F5F5"/>
<path d="M94.2754 119.178V175.675L96.1589 176.762V120.257L94.2754 119.178Z" fill="#EAF2F2"/>
<path d="M162.028 82.2357L160.144 81.1484L94.2754 119.178L96.1589 120.258L162.028 82.2357Z" fill="#0052CC"/>
<g opacity="0.8">
<path d="M162.028 82.2357L160.144 81.1484L94.2754 119.178L96.1589 120.258L162.028 82.2357Z" fill="white"/>
</g>
<path d="M94.2754 119.178L96.1589 120.257V131.122L94.2754 130.042V119.178Z" fill="#0052CC"/>
<g opacity="0.5">
<path d="M94.2754 119.178L96.1589 120.257V131.122L94.2754 130.042V119.178Z" fill="white"/>
</g>
<path d="M96.1602 131.123L162.029 93.1009V82.2363L96.1602 120.258V131.123Z" fill="#0052CC"/>
<g opacity="0.65">
<path d="M96.1602 131.123L162.029 93.1009V82.2363L96.1602 120.258V131.123Z" fill="white"/>
</g>
<path d="M100.631 134.628C100.631 135.233 101.075 135.455 101.634 135.141L106.572 132.285C106.858 132.107 107.098 131.863 107.273 131.574C107.447 131.286 107.551 130.96 107.575 130.624C107.575 130.026 107.124 129.797 106.572 130.118L101.634 132.966C101.349 133.146 101.109 133.39 100.935 133.678C100.761 133.967 100.657 134.292 100.631 134.628Z" fill="#455A64"/>
<path d="M108.961 129.819C108.961 130.424 109.405 130.646 109.964 130.325L114.902 127.477C115.188 127.297 115.427 127.053 115.601 126.765C115.775 126.476 115.879 126.151 115.905 125.815C115.905 125.21 115.454 124.988 114.902 125.302L109.964 128.158C109.678 128.337 109.438 128.58 109.264 128.869C109.089 129.157 108.986 129.483 108.961 129.819Z" fill="#455A64"/>
<path d="M117.322 125.013C117.322 125.61 117.774 125.839 118.325 125.518L123.264 122.67C123.55 122.489 123.79 122.245 123.964 121.955C124.138 121.665 124.242 121.338 124.267 121.001C124.267 120.403 123.815 120.174 123.264 120.495L118.325 123.343C118.04 123.525 117.801 123.77 117.626 124.059C117.452 124.349 117.348 124.676 117.322 125.013Z" fill="#455A64"/>
<path d="M125.621 120.204C125.621 120.801 126.073 121.031 126.624 120.709L131.563 117.861C131.849 117.681 132.089 117.436 132.263 117.146C132.437 116.856 132.541 116.529 132.566 116.192C132.566 115.595 132.114 115.365 131.563 115.687L126.624 118.535C126.338 118.715 126.098 118.96 125.924 119.25C125.75 119.54 125.646 119.867 125.621 120.204Z" fill="#455A64"/>
<path d="M133.951 115.388C133.951 115.993 134.403 116.215 134.954 115.901L139.893 113.045C140.18 112.867 140.42 112.624 140.594 112.335C140.769 112.046 140.872 111.72 140.896 111.383C140.896 110.786 140.452 110.556 139.893 110.878L134.931 113.726C134.65 113.908 134.415 114.153 134.245 114.441C134.075 114.73 133.975 115.054 133.951 115.388Z" fill="#455A64"/>
<path d="M142.283 110.579C142.283 111.184 142.735 111.406 143.286 111.085L148.225 108.236C148.511 108.058 148.751 107.815 148.926 107.526C149.1 107.237 149.204 106.911 149.228 106.575C149.228 105.97 148.784 105.748 148.225 106.062L143.286 108.918C143 109.096 142.76 109.34 142.586 109.629C142.412 109.917 142.308 110.243 142.283 110.579Z" fill="#455A64"/>
<path d="M150.613 105.778C150.613 106.375 151.065 106.605 151.616 106.283L156.555 103.435C156.842 103.256 157.083 103.012 157.257 102.722C157.432 102.431 157.535 102.104 157.558 101.766C157.558 101.169 157.114 100.939 156.555 101.261L151.616 104.109C151.331 104.29 151.092 104.535 150.918 104.825C150.743 105.115 150.639 105.441 150.613 105.778Z" fill="#455A64"/>
<path d="M101.059 140.341L107.123 136.857V142.316L101.059 145.892V140.341Z" fill="#0052CC"/>
<path d="M101.059 148.013L107.123 144.521V149.988L101.059 153.564V148.013Z" fill="#0052CC"/>
<path d="M101.059 155.685L107.123 152.193V157.652L101.059 161.228V155.685Z" fill="#0052CC"/>
<path d="M101.059 163.349L107.123 159.865V165.324L101.059 168.9V163.349Z" fill="#0052CC"/>
<path d="M109.396 135.525L115.46 132.041V137.5L109.396 141.076V135.525Z" fill="#EAF2F2"/>
<path d="M109.396 143.197L115.46 139.713V145.172L109.396 148.748V143.197Z" fill="#EAF2F2"/>
<path d="M109.396 150.868L115.46 147.385V152.844L109.396 156.419V150.868Z" fill="#EAF2F2"/>
<path d="M109.396 158.54L115.46 155.049V160.516L109.396 164.091V158.54Z" fill="#EAF2F2"/>
<path d="M117.736 130.716L123.793 127.225V132.691L117.736 136.259V130.716Z" fill="#EAF2F2"/>
<path d="M117.736 138.388L123.793 134.896V140.356L117.736 143.931V138.388Z" fill="#EAF2F2"/>
<path d="M117.736 146.052L123.793 142.568V148.027L117.736 151.603V146.052Z" fill="#EAF2F2"/>
<path d="M117.736 153.724L123.793 150.24V155.699L117.736 159.275V153.724Z" fill="#EAF2F2"/>
<path d="M126.074 125.9L132.131 122.416V127.875L126.074 131.451V125.9Z" fill="#EAF2F2"/>
<path d="M126.074 133.572L132.131 130.088V135.547L126.074 139.123V133.572Z" fill="#EAF2F2"/>
<path d="M126.074 141.243L132.131 137.752V143.211L126.074 146.787V141.243Z" fill="#EAF2F2"/>
<path d="M126.074 148.915L132.131 145.424V150.883L126.074 154.458V148.915Z" fill="#EAF2F2"/>
<path d="M134.412 121.085L140.468 117.602V123.061L134.412 126.636V121.085Z" fill="#EAF2F2"/>
<path d="M134.412 128.757L140.468 125.273V130.732L134.412 134.308V128.757Z" fill="#EAF2F2"/>
<path d="M134.412 136.427L140.468 132.943V138.402L134.412 141.978V136.427Z" fill="#EAF2F2"/>
<path d="M134.412 144.101L140.468 140.609V146.076L134.412 149.644V144.101Z" fill="#EAF2F2"/>
<path d="M142.75 116.277L148.806 112.785V118.244L142.75 121.827V116.277Z" fill="#EAF2F2"/>
<path d="M142.75 123.946L148.806 120.455V125.914L142.75 129.49V123.946Z" fill="#EAF2F2"/>
<path d="M142.75 131.613L148.806 128.129V133.588L142.75 137.164V131.613Z" fill="#EAF2F2"/>
<path d="M142.75 139.284L148.806 135.801V141.26L142.75 144.835V139.284Z" fill="#EAF2F2"/>
<path d="M151.08 111.46L157.144 107.977V113.436L151.08 117.011V111.46Z" fill="#EAF2F2"/>
<path d="M151.08 119.132L157.144 115.641V121.107L151.08 124.683V119.132Z" fill="#EAF2F2"/>
<path d="M151.08 126.804L157.144 123.312V128.772L151.08 132.347V126.804Z" fill="#EAF2F2"/>
<path d="M151.08 134.468L157.144 130.984V136.443L151.08 140.019V134.468Z" fill="#EAF2F2"/>
<path d="M156.991 106.016L157.458 107.019C157.464 107.034 157.472 107.047 157.483 107.057C157.494 107.068 157.507 107.077 157.521 107.082C157.536 107.088 157.551 107.091 157.566 107.091C157.582 107.09 157.597 107.087 157.611 107.081L158.668 106.675C158.836 106.614 158.905 106.851 158.782 107.073L158.017 108.512C157.97 108.596 157.952 108.693 157.963 108.788L158.139 110.082C158.139 110.289 157.994 110.564 157.841 110.541L156.899 110.427C156.861 110.427 156.823 110.437 156.79 110.456C156.756 110.475 156.728 110.501 156.707 110.534L155.766 111.743C155.613 111.935 155.436 111.866 155.467 111.629L155.651 110.097C155.658 110.061 155.656 110.023 155.645 109.987C155.634 109.951 155.615 109.918 155.59 109.891L154.824 109.339C154.701 109.247 154.77 108.934 154.939 108.811L155.995 107.992C156.069 107.93 156.123 107.847 156.149 107.754L156.623 106.223C156.7 105.986 156.914 105.856 156.991 106.016Z" fill="#F28F8F"/>
<path d="M133.485 139.744C133.513 139.201 133.372 138.663 133.083 138.203C132.794 137.743 132.371 137.382 131.87 137.171C130.507 136.681 129.359 137.768 128.509 138.702C128.287 138.94 128.693 139.055 128.869 138.886C129.749 138.059 131.372 137.232 132.314 138.343C133.256 139.453 132.766 141.076 132.314 142.278C131.548 144.284 129.496 146.213 127.161 146.037C122.07 145.654 127.582 136.696 130.599 136.191C130.836 136.145 131.012 135.77 130.683 135.716C129.152 135.464 128.08 136.819 127.131 137.845C126.069 138.961 125.241 140.278 124.696 141.719C123.678 144.422 125.178 147.745 128.478 146.688C129.95 146.225 131.232 145.298 132.134 144.047C133.037 142.796 133.511 141.286 133.485 139.744Z" fill="#F28F8F"/>
<path d="M124.273 136.497C124.01 136.114 123.707 135.76 123.37 135.44C123.247 135.302 122.949 135.44 123.018 135.647C123.194 136.068 123.561 136.298 123.783 136.673C123.82 136.739 123.861 136.803 123.906 136.864C123.243 136.5 122.519 136.261 121.77 136.16C120.306 135.849 118.782 135.987 117.398 136.558C117.26 136.604 117.314 136.734 117.436 136.749C117.653 136.753 117.869 136.714 118.072 136.635C118.826 136.476 119.599 136.422 120.369 136.474C121.488 136.497 122.586 136.78 123.577 137.301C123.224 137.195 122.849 137.186 122.491 137.273C122.133 137.361 121.805 137.542 121.54 137.798C121.486 137.86 121.479 137.982 121.586 137.998C122.068 138.059 122.474 137.875 122.956 137.89C123.514 137.902 124.067 138.001 124.595 138.181C124.809 138.25 124.962 138.028 124.955 137.844C124.84 137.347 124.607 136.884 124.273 136.497Z" fill="#F28F8F"/>
<path d="M128.478 109.094L128.409 109.155C128.357 109.212 128.295 109.259 128.225 109.293C128.095 109.385 128.026 109.293 127.904 109.216L126.901 108.627C126.487 108.389 126.005 108.106 125.492 107.792C124.979 107.478 124.428 107.149 123.892 106.804C123.731 106.697 124.03 106.169 124.206 106.261C124.772 106.552 125.331 106.866 125.859 107.156C126.388 107.447 126.87 107.715 127.291 107.922L128.302 108.496C128.417 108.573 128.539 108.581 128.532 108.741C128.546 108.815 128.546 108.89 128.532 108.963L128.478 109.094Z" fill="#455A64"/>
<path d="M129.511 109.815C128.746 111.154 127.475 111.882 126.143 111.162L126.066 111.124C125.871 110.975 125.717 110.778 125.619 110.553C125.521 110.328 125.483 110.082 125.507 109.838C125.546 109.138 125.748 108.456 126.098 107.849C126.448 107.241 126.935 106.724 127.521 106.338C127.718 106.206 127.942 106.121 128.178 106.091C128.413 106.06 128.652 106.085 128.876 106.162L128.952 106.201C128.994 106.224 129.032 106.253 129.067 106.285C130.285 107.058 130.277 108.49 129.511 109.815Z" fill="#37474F"/>
<path d="M131.105 112.463L132.636 109.914C131.496 109.327 130.435 108.597 129.482 107.739L129.428 107.678L129.374 107.632C129.224 107.537 129.049 107.49 128.871 107.497C128.693 107.504 128.522 107.564 128.379 107.67C127.995 107.923 127.677 108.263 127.449 108.662C127.222 109.061 127.092 109.508 127.07 109.967C127.052 110.13 127.078 110.295 127.146 110.444C127.213 110.594 127.319 110.722 127.453 110.817C127.53 110.862 127.616 110.888 127.705 110.894C128.903 111.263 130.047 111.791 131.105 112.463Z" fill="#455A64"/>
<path d="M133.914 110.372C133.914 109.954 133.748 109.553 133.452 109.257C133.156 108.961 132.755 108.795 132.336 108.795C132.145 108.795 131.956 108.832 131.778 108.902H131.716C131.631 108.931 131.548 108.969 131.471 109.017C131.005 109.318 130.616 109.726 130.338 110.206C130.06 110.687 129.9 111.226 129.871 111.781C129.874 111.915 129.889 112.048 129.917 112.179C129.993 112.56 130.207 112.9 130.518 113.133C130.829 113.367 131.215 113.477 131.603 113.443C131.99 113.408 132.351 113.232 132.616 112.948C132.882 112.664 133.033 112.292 133.041 111.903C133.045 111.855 133.045 111.806 133.041 111.758C133.299 111.629 133.517 111.432 133.671 111.187C133.825 110.943 133.909 110.661 133.914 110.372Z" fill="#37474F"/>
<path d="M132.337 109.608C133.217 109.103 133.929 109.516 133.929 110.535C133.899 111.087 133.74 111.624 133.463 112.103C133.186 112.582 132.8 112.989 132.337 113.291C131.456 113.804 130.744 113.39 130.744 112.372C130.774 111.819 130.934 111.28 131.21 110.8C131.487 110.32 131.873 109.911 132.337 109.608Z" fill="#455A64"/>
<path opacity="0.2" d="M106.742 178.715V228.229L147.766 204.547V155.025L106.742 178.715Z" fill="black"/>
<path d="M152.482 206.99C152.482 206.99 128.265 220.549 125.218 222.241C122.17 223.933 120.187 219.033 120.164 216.063C117.102 218.007 110.885 219.225 110.571 215.343L108.389 187.136L149.412 163.447L152.482 206.99Z" fill="#455A64"/>
<path d="M149.412 163.449L108.389 187.13V179.535L149.412 155.846V163.449Z" fill="#37474F"/>
<path d="M111.857 217.418L123.089 222.372L119.59 213.223L111.857 217.418Z" fill="#37474F"/>
<path d="M121.151 188.392C120.66 188.034 120.08 187.819 119.474 187.772C118.868 187.724 118.261 187.846 117.721 188.124C115.951 188.851 114.536 190.242 113.778 191.998C113.655 192.327 113.938 192.618 114.145 192.32C114.627 191.593 115.192 190.925 115.83 190.329C115.83 190.865 115.914 191.393 115.929 191.929C115.929 192.756 115.929 193.614 115.929 194.471C115.876 195.895 115.776 197.358 115.745 198.782C115.488 198.836 115.221 198.809 114.98 198.705C114.811 198.606 114.429 198.866 114.566 199.203C114.704 199.54 114.919 199.907 115.332 199.969C115.703 200.023 116.081 199.975 116.427 199.831C117.219 199.508 117.951 199.055 118.594 198.491C120.207 197.072 121.363 195.207 121.917 193.131C122.43 191.064 122.131 189.234 121.151 188.392ZM121.09 192.488C120.799 194.327 119.908 196.018 118.555 197.297C118.003 197.831 117.357 198.26 116.649 198.56H116.557V198.315C116.557 197.848 116.557 197.373 116.603 196.906C116.657 195.758 116.718 194.609 116.733 193.484C116.788 192.405 116.719 191.323 116.526 190.26C116.526 190.13 116.465 189.969 116.419 189.808C116.686 189.622 116.968 189.458 117.261 189.318C117.691 189.076 118.173 188.941 118.667 188.925C119.16 188.909 119.65 189.013 120.094 189.227C120.937 189.755 121.342 190.919 121.151 192.488H121.09Z" fill="#FAFAFA"/>
<path d="M127.001 209.845C127.009 209.403 126.993 208.961 126.955 208.521C126.955 207.679 126.955 206.806 126.955 205.948C126.955 203.82 126.955 201.714 126.955 199.578C126.955 199.111 126.304 199.272 126.281 199.808C126.147 201.22 125.616 202.566 124.75 203.69C124.497 204.019 124.811 204.363 125.048 204.095C125.546 203.501 125.955 202.838 126.266 202.128C126.266 203.605 126.266 205.075 126.266 206.545C126.266 207.38 126.266 208.23 126.266 209.041C126.226 209.475 126.27 209.911 126.396 210.328C126.564 210.642 127.031 210.198 127.054 209.845H127.001Z" fill="#FAFAFA"/>
<path d="M131.595 204.801C131.518 204.035 131.426 203.338 131.388 202.58C131.281 200.682 131.35 198.676 131.311 196.739C131.311 196.287 130.683 196.402 130.645 196.945C130.543 198.18 130.074 199.356 129.298 200.322C129.076 200.605 129.298 200.942 129.497 200.796L129.619 200.705C129.745 200.588 129.861 200.46 129.964 200.322C130.203 200.003 130.405 199.659 130.569 199.296V199.235C130.569 200.544 130.569 201.845 130.569 203.063C130.607 203.828 130.699 204.594 130.775 205.406C130.775 205.75 130.844 206.102 130.86 206.462C130.834 206.792 130.868 207.124 130.959 207.442C131.074 207.657 131.464 207.549 131.587 207.136C131.729 206.364 131.732 205.573 131.595 204.801Z" fill="#FAFAFA"/>
<path d="M140.952 200.392C140.822 200.813 140.791 201.012 140.539 200.981C140.266 200.92 140.024 200.762 139.857 200.537C139.245 199.841 139.352 198.179 139.222 197.008C139.176 196.656 138.831 196.724 138.617 197.008C138.088 195.974 136.802 196.947 135.968 198.118C135.139 199.345 134.686 200.787 134.666 202.268C134.666 203.447 134.911 204.565 135.868 204.243C136.825 203.922 137.813 202.651 138.41 201.441C138.57 201.109 138.706 200.766 138.816 200.415C138.908 200.862 139.141 201.267 139.482 201.571C139.626 201.715 139.805 201.818 140.001 201.87C140.197 201.923 140.404 201.922 140.6 201.87C140.89 201.731 141.135 201.514 141.308 201.244C141.481 200.973 141.575 200.66 141.58 200.338C141.595 199.956 141.097 199.902 140.952 200.392ZM138.104 200.507C137.757 201.522 137.153 202.429 136.35 203.141C135.707 203.654 135.447 203.141 135.409 202.375C135.353 201.26 135.568 200.149 136.037 199.136C136.58 198.011 137.767 196.763 138.395 197.337C138.395 197.337 138.441 197.337 138.464 197.337C138.487 197.337 138.464 197.375 138.464 197.398C138.522 198.447 138.401 199.499 138.104 200.507Z" fill="#FAFAFA"/>
<path d="M147.988 197.405C147.223 196.877 147.483 195.261 147.498 194.021C147.498 193.026 147.338 191.808 146.603 191.724C145.492 191.617 144.849 194.205 144.535 195.606C144.421 194.901 144.229 194.166 143.724 193.998C143.218 193.829 142.713 194.166 142.384 194.955C142.17 195.545 142.048 196.165 142.024 196.793C141.848 196.055 141.73 195.305 141.672 194.549C141.672 194.358 141.381 194.266 141.366 194.587C141.308 195.471 141.329 196.357 141.427 197.237C141.537 198.031 141.69 198.818 141.886 199.595C141.963 199.893 142.483 199.786 142.568 199.312C142.828 197.872 142.476 196.371 143.104 194.924C143.104 194.886 143.104 194.871 143.165 194.871C143.25 194.864 143.334 194.888 143.402 194.94C143.615 195.217 143.745 195.549 143.777 195.897C143.917 196.806 143.966 197.727 143.923 198.645C143.923 199.143 144.543 198.86 144.689 198.354C145.033 196.823 145.224 195.361 145.722 193.837C145.823 193.498 145.956 193.17 146.12 192.857C146.151 192.799 146.184 192.743 146.22 192.689C146.174 192.765 146.312 192.589 146.22 192.689C146.435 192.858 146.58 193.1 146.626 193.37C146.71 193.922 146.728 194.483 146.679 195.039C146.626 196.41 146.603 197.803 147.445 198.263C147.797 198.423 148.341 197.658 147.988 197.405Z" fill="#FAFAFA"/>
<path d="M127.997 186.173C127.904 186.164 127.81 186.186 127.729 186.234L127.645 186.196C127.536 186.176 127.426 186.163 127.316 186.158C127.147 186.152 126.977 186.164 126.811 186.196C126.465 186.277 126.139 186.428 125.854 186.64C125.282 187.098 124.833 187.69 124.544 188.363C123.962 189.611 123.603 191.311 124.223 192.612C124.397 192.908 124.631 193.164 124.909 193.364C125.187 193.565 125.504 193.705 125.839 193.777C126.174 193.849 126.521 193.851 126.857 193.782C127.193 193.713 127.511 193.576 127.791 193.378C128.925 192.483 129.66 191.176 129.835 189.741C130.065 188.355 129.781 186.257 127.997 186.173ZM128.817 189.404C128.697 190.598 128.154 191.708 127.285 192.536C127.087 192.694 126.861 192.813 126.619 192.888C126.411 192.953 126.19 192.966 125.976 192.926L125.769 192.873C125.733 192.868 125.699 192.855 125.67 192.834L125.54 192.781L125.448 192.704L125.371 192.628L125.302 192.543C125.24 192.438 125.186 192.328 125.142 192.214C125.069 191.964 125.02 191.708 124.996 191.448C124.973 191.143 124.973 190.835 124.996 190.53C125.08 189.857 125.279 189.205 125.586 188.6C125.847 188.008 126.279 187.507 126.826 187.161C127.114 187.011 127.436 186.942 127.76 186.962L128.128 187.008C128.19 187.028 128.249 187.056 128.304 187.092L128.426 187.184C128.456 187.208 128.481 187.236 128.503 187.268L128.564 187.352C128.594 187.389 128.617 187.43 128.633 187.475C128.685 187.56 128.724 187.653 128.748 187.75C128.885 188.283 128.906 188.839 128.809 189.381L128.817 189.404Z" fill="#FAFAFA"/>
<path d="M136.808 186.472C136.683 186.511 136.569 186.582 136.479 186.678C136.255 186.982 136.077 187.318 135.951 187.674C135.848 187.878 135.719 188.068 135.568 188.24C135.26 188.62 134.873 188.928 134.435 189.144C134.249 189.248 134.047 189.32 133.838 189.358H133.677H133.355H133.202H133.141L133.003 189.297H132.957L132.827 189.197L132.781 189.151L132.659 189.013L132.567 188.876C132.432 188.653 132.334 188.41 132.276 188.156C132.258 188.065 132.245 187.973 132.237 187.88V187.605C132.31 186.459 132.64 185.344 133.202 184.343C133.438 183.846 133.786 183.41 134.22 183.072C134.42 182.917 134.671 182.847 134.922 182.876C135.172 182.904 135.401 183.03 135.56 183.225C135.58 183.249 135.604 183.268 135.632 183.282C135.66 183.295 135.69 183.302 135.721 183.302C135.752 183.302 135.782 183.295 135.81 183.282C135.838 183.268 135.863 183.249 135.882 183.225C135.913 183.16 135.923 183.086 135.91 183.015C135.898 182.944 135.864 182.878 135.813 182.827C135.626 182.552 135.359 182.339 135.049 182.218C134.739 182.096 134.4 182.071 134.075 182.146C133.491 182.361 132.995 182.765 132.666 183.294C131.871 184.428 131.379 185.745 131.234 187.122C131.141 187.738 131.246 188.367 131.535 188.918C131.825 189.469 132.283 189.913 132.842 190.185C133.429 190.354 134.051 190.354 134.638 190.185C135.225 190.015 135.751 189.684 136.158 189.228C136.654 188.753 137.014 188.152 137.199 187.49C137.268 187.23 137.406 186.579 136.984 186.533C136.93 186.502 136.87 186.481 136.808 186.472Z" fill="#FAFAFA"/>
<path d="M141.058 186.57C141.042 186.496 141.016 186.424 140.982 186.356C140.982 186.31 140.928 186.264 140.898 186.226C140.865 186.18 140.827 186.139 140.783 186.103C140.727 186.049 140.662 186.005 140.591 185.973C140.491 185.92 140.379 185.893 140.266 185.893C140.152 185.893 140.041 185.92 139.94 185.973C139.86 186.013 139.787 186.067 139.726 186.134C139.686 186.182 139.65 186.233 139.619 186.287C139.598 186.33 139.588 186.377 139.588 186.425C139.588 186.473 139.598 186.52 139.619 186.563L139.673 186.655V186.701C139.673 186.747 139.673 186.785 139.673 186.831C139.687 187.004 139.766 187.165 139.895 187.283C140.004 187.373 140.137 187.431 140.277 187.451C140.384 187.462 140.491 187.449 140.591 187.413C140.673 187.378 140.75 187.335 140.821 187.283C140.882 187.236 140.934 187.179 140.974 187.114C141.052 186.985 141.087 186.835 141.074 186.685C141.072 186.647 141.067 186.608 141.058 186.57Z" fill="#FAFAFA"/>
<path d="M292.594 213.194C292.451 210.515 291.678 207.909 290.337 205.586C288.995 203.263 287.125 201.289 284.877 199.826C282.771 198.608 280.865 198.486 279.471 199.259H279.425L180.672 256.086L191.636 274.959L290.305 218.186C291.737 217.374 292.594 215.652 292.594 213.194Z" fill="#0052CC"/>
<path opacity="0.7" d="M292.594 213.194C292.451 210.515 291.678 207.909 290.337 205.586C288.995 203.263 287.125 201.289 284.877 199.826C282.771 198.608 280.865 198.486 279.471 199.259H279.425L180.672 256.086L191.636 274.959L290.305 218.186C291.737 217.374 292.594 215.652 292.594 213.194Z" fill="white"/>
<path d="M290.336 205.583C289.041 203.227 287.161 201.244 284.877 199.826C282.771 198.608 280.865 198.486 279.471 199.259H279.425L180.672 256.086L186.154 265.526L290.282 205.599L290.336 205.583Z" fill="#0052CC"/>
<path opacity="0.8" d="M290.336 205.583C289.041 203.227 287.161 201.244 284.877 199.826C282.771 198.608 280.865 198.486 279.471 199.259H279.425L180.672 256.086L186.154 265.526L290.282 205.599L290.336 205.583Z" fill="white"/>
<path opacity="0.3" d="M184.088 261.911L287.849 202.19C286.981 201.251 285.98 200.444 284.878 199.794C284.664 199.664 284.449 199.557 284.243 199.457L181.99 258.305L184.088 261.911Z" fill="white"/>
<path d="M186.179 256.613C188.43 258.08 190.304 260.058 191.646 262.387C192.989 264.715 193.762 267.328 193.904 270.011C193.904 274.935 190.443 276.902 186.179 274.468C183.934 273.001 182.065 271.027 180.724 268.704C179.384 266.382 178.608 263.777 178.461 261.099C178.461 256.146 181.922 254.155 186.179 256.613Z" fill="#EAF2F2"/>
<path d="M284.181 221.777C285.574 220.966 286.432 219.243 286.432 216.785C286.291 214.104 285.519 211.494 284.177 209.168C282.836 206.843 280.964 204.867 278.714 203.402C276.609 202.184 274.702 202.054 273.309 202.835L275.506 201.557C276.892 200.791 278.806 200.906 280.912 202.123C283.155 203.588 285.022 205.56 286.362 207.88C287.703 210.199 288.48 212.801 288.629 215.476C288.629 217.934 287.764 219.664 286.371 220.468L284.181 221.777Z" fill="#0052CC"/>
<path opacity="0.05" d="M191.668 274.958L290.338 218.185C291.731 217.373 292.589 215.651 292.589 213.193C292.584 212.281 292.479 211.372 292.275 210.482L188.912 270.203L191.668 274.958Z" fill="black"/>
<path d="M194.531 270.343C194.531 265.021 190.794 258.552 186.178 255.887C183.881 254.555 181.79 254.432 180.282 255.305L146.395 274.867L158.3 295.28L192.081 275.779C193.589 274.883 194.531 273.007 194.531 270.343Z" fill="#455A64"/>
<path opacity="0.15" d="M189.608 258.735L155.782 278.259C154.79 277.141 153.63 276.185 152.344 275.426L186.178 255.887C187.463 256.651 188.62 257.612 189.608 258.735Z" fill="white"/>
<path d="M194.531 270.342C194.531 273.014 193.597 274.882 192.074 275.755L158.309 295.279C159.794 294.406 160.705 292.546 160.705 289.919C160.641 287.715 160.119 285.549 159.174 283.557L193.008 264.018C193.945 265.998 194.464 268.151 194.531 270.342Z" fill="#37474F"/>
<path d="M152.344 275.425C156.938 278.082 160.697 284.559 160.697 289.88C160.697 295.201 156.938 297.361 152.344 294.696C147.75 292.032 143.998 285.562 143.998 280.241C143.998 274.919 147.75 272.76 152.344 275.425Z" fill="#37474F"/>
<path d="M152.344 294.697C156.938 297.361 160.697 295.202 160.697 289.881C160.597 286.973 159.754 284.139 158.247 281.65C159.778 285.065 160.697 290.716 158.699 293.334C156.7 295.953 154.166 295.156 152.344 294.697Z" fill="#263238"/>
<path d="M152.344 278.841C149.381 277.141 146.984 278.527 146.984 281.957C147.085 283.822 147.623 285.636 148.553 287.255C149.484 288.873 150.783 290.251 152.344 291.275C155.315 292.99 157.703 291.597 157.703 288.166C157.603 286.301 157.066 284.485 156.135 282.865C155.204 281.245 153.906 279.867 152.344 278.841ZM152.344 289.407C151.247 288.692 150.335 287.729 149.68 286.596C149.026 285.462 148.648 284.19 148.577 282.884C148.577 280.487 150.269 279.515 152.344 280.717C153.443 281.43 154.358 282.392 155.014 283.526C155.67 284.659 156.048 285.932 156.119 287.24C156.119 289.644 154.434 290.609 152.344 289.407Z" fill="#263238"/>
<path d="M166.952 281.443L164.869 282.653L166.952 283.855L169.042 282.653L166.952 281.443Z" fill="#455A64"/>
<path d="M197.93 269.292L195.84 268.09C195.54 267.949 195.208 267.89 194.879 267.92C194.549 267.949 194.233 268.066 193.964 268.259L166.975 283.847V291.075L193.964 275.494C194.738 274.991 195.383 274.313 195.847 273.515C196.311 272.717 196.581 271.822 196.636 270.9V270.632L196.881 270.785L197.93 269.292Z" fill="#455A64"/>
<path d="M198.704 271.015V272.087C198.648 273.008 198.377 273.903 197.913 274.701C197.449 275.499 196.805 276.177 196.032 276.681L169.043 292.293V285.057L196.032 269.476C197.517 268.634 198.704 269.323 198.704 271.015Z" fill="#37474F"/>
<path d="M164.869 289.88V282.652L169.034 285.064L169.042 292.292L164.869 289.88Z" fill="#263238"/>
<path d="M132.042 51.7322L129.278 46.5335L131.498 40.1174V36.1973L124.699 40.1174V44.0452L127.624 49.1137C127.669 49.1931 127.739 49.2551 127.823 49.2898L132.042 51.7322Z" fill="#0052CC"/>
<path opacity="0.2" d="M132.042 51.7322L129.278 46.5335L131.498 40.1174V36.1973L124.699 40.1174V44.0452L127.624 49.1137C127.669 49.1931 127.739 49.2551 127.823 49.2898L132.042 51.7322Z" fill="black"/>
<path d="M148.281 4.98237C148.244 4.27422 148.039 3.58497 147.684 2.97134C147.329 2.35771 146.833 1.83724 146.237 1.45273L144.583 0.488019C143.951 0.167197 143.252 0 142.543 0C141.834 0 141.134 0.167197 140.502 0.488019L115.044 15.2191C114.45 15.6054 113.955 16.1263 113.6 16.7396C113.245 17.3528 113.039 18.0411 113 18.7487V46.7408C113.039 47.4484 113.245 48.1367 113.6 48.7499C113.955 49.3632 114.45 49.8841 115.044 50.2704L116.698 51.2275C117.33 51.5483 118.029 51.7155 118.739 51.7155C119.448 51.7155 120.147 51.5483 120.779 51.2275L128.971 46.4958L131.889 51.549C131.932 51.6149 131.992 51.6677 132.063 51.7019C132.134 51.7361 132.213 51.7505 132.292 51.7434C132.37 51.7363 132.446 51.7081 132.509 51.6618C132.573 51.6154 132.623 51.5527 132.654 51.4801L135.717 42.5757L146.199 36.5041C146.794 36.1191 147.29 35.5985 147.645 34.985C148 34.3715 148.205 33.6824 148.243 32.9744L148.281 4.98237Z" fill="#0052CC"/>
<path opacity="0.2" d="M113 46.7403C113.039 47.4478 113.245 48.1362 113.6 48.7494C113.955 49.3627 114.45 49.8836 115.044 50.2699L116.698 51.227C117.274 51.5155 117.905 51.6796 118.548 51.7086C119.192 51.7377 119.835 51.6309 120.434 51.3954C119.47 51.7552 118.742 51.2116 118.742 50.0479V22.0634C118.768 21.3526 118.974 20.6598 119.34 20.0498L113.597 16.7422C113.23 17.349 113.025 18.0395 113 18.7482V46.7403Z" fill="black"/>
<path opacity="0.5" d="M148.213 4.40063C147.975 3.53545 147.187 3.25982 146.245 3.80343L120.78 18.5345C120.175 18.9113 119.679 19.4391 119.34 20.0658L113.605 16.7582C113.947 16.1337 114.443 15.6067 115.045 15.2269L140.495 0.495829C141.127 0.175007 141.826 0.0078125 142.536 0.0078125C143.245 0.0078125 143.944 0.175007 144.576 0.495829L146.245 1.45289C146.755 1.78587 147.192 2.21873 147.531 2.72536C147.869 3.23198 148.101 3.80187 148.213 4.40063Z" fill="white"/>
<path d="M141.994 11.6365C141.422 11.3992 140.78 11.3971 140.207 11.6308C139.633 11.8645 139.175 12.315 138.932 12.8845L130.081 33.9322L127.975 31.8879C127.529 31.4554 126.928 31.218 126.307 31.2281C125.685 31.2381 125.093 31.4948 124.66 31.9415C124.228 32.3882 123.99 32.9885 124 33.6102C124.01 34.2319 124.267 34.8242 124.714 35.2567L129.308 39.6975C129.523 39.909 129.778 40.076 130.058 40.189C130.337 40.302 130.637 40.3587 130.938 40.356C131.095 40.3562 131.252 40.3408 131.405 40.31C131.78 40.2379 132.132 40.0734 132.427 39.8314C132.722 39.5895 132.953 39.2776 133.098 38.9242L143.273 14.7144C143.393 14.4286 143.455 14.1218 143.456 13.8118C143.456 13.5018 143.395 13.1947 143.277 12.9084C143.158 12.6221 142.983 12.3623 142.763 12.144C142.543 11.9256 142.282 11.7532 141.994 11.6365Z" fill="#FAFAFA"/>
</svg>
