<svg width="42" height="42" viewBox="0 0 42 42" fill="none" xmlns="http://www.w3.org/2000/svg">
<path fill-rule="evenodd" clip-rule="evenodd" d="M36.988 8.99114V27.4662L20.9882 36.7037L4.98828 27.4662V8.99114L20.9882 18.2287L36.988 8.99114ZM8.7216 11.1466V25.3108L20.9882 32.3929L33.2547 25.3108V11.1466L20.9882 4.06445L8.7216 11.1466Z" fill="#0052CC"/>
<path d="M21 21.9237V28.0821L36.9809 18.2287V12.0396L21 21.9237Z" fill="#00CADB"/>
<path d="M20.9999 28.0821V21.9238L11.1465 16.9971V23.1554L20.9999 28.0821Z" fill="#00A2AF"/>
<path d="M21 18.2287V4.06445L33.2551 11.1466L21 18.2287Z" fill="#0042A3"/>
<path d="M36.9809 27.4665L33.2551 25.311L21 32.3931V36.704L36.9809 27.4665Z" fill="#0042A3"/>
<path d="M8.74488 25.3416L5.01907 27.497L4.98828 9.02197L8.74488 11.1158V25.3416Z" fill="#0042A3"/>
</svg>
